<svg xmlns="http://www.w3.org/2000/svg" viewBox="0 0 20 20">
    <defs>
        <style>
            .cls-1{fill:#3a51b2}.cls-2{fill:#fff;opacity:0}.cls-3{clip-path:url(#clip-path)}.cls-4{fill:none;stroke:#3a51b2}.cls-5{clip-path:url(#clip-path-2)}
        </style>
        <clipPath id="clip-path">
            <path id="패스_508" d="M0 0h15.024L0 14.652z" class="cls-1" data-name="패스 508" transform="rotate(180 7.512 7.326)"/>
        </clipPath>
        <clipPath id="clip-path-2">
            <path id="패스_506" d="M0 0h14.067L0 13.719z" class="cls-1" data-name="패스 506"/>
        </clipPath>
    </defs>
    <g id="btn_Hide" transform="translate(-292 -3643)">
        <path id="사각형_103" d="M0 0h20v20H0z" class="cls-2" data-name="사각형 103" transform="translate(292 3643)"/>
        <g id="마스크_그룹_3" class="cls-3" data-name="마스크 그룹 3" transform="translate(296.976 3645.067)">
            <path id="패스_461" d="M9.888 98.725c-3.778 0-7.2 2.1-9.733 5.522a.808.808 0 0 0 0 .951c2.528 3.422 5.955 5.526 9.733 5.526s7.2-2.1 9.733-5.522a.808.808 0 0 0 0-.951c-2.529-3.422-5.955-5.526-9.733-5.526zm.271 10.225a4.234 4.234 0 1 1 3.879-3.95 4.22 4.22 0 0 1-3.879 3.95z" class="cls-1" data-name="패스 461" transform="translate(-4.976 -96.792)"/>
        </g>
        <path id="선_321" d="M0 14L13.843 0" class="cls-4" data-name="선 321" transform="translate(294.966 3646)"/>
        <g id="마스크_그룹_2" class="cls-5" data-name="마스크 그룹 2" transform="translate(292 3647)">
            <path id="패스_507" d="M9.888 98.725c-3.778 0-7.2 2.1-9.733 5.522a.808.808 0 0 0 0 .951c2.528 3.422 5.955 5.526 9.733 5.526s7.2-2.1 9.733-5.522a.808.808 0 0 0 0-.951c-2.529-3.422-5.955-5.526-9.733-5.526zm.271 10.225a4.234 4.234 0 1 1 3.879-3.95 4.22 4.22 0 0 1-3.879 3.95z" class="cls-1" data-name="패스 507" transform="translate(0 -98.725)"/>
        </g>
    </g>
</svg>
