<svg xmlns="http://www.w3.org/2000/svg" viewBox="0 0 20 20">
    <defs>
        <style>
            .cls-1{fill:#fff;opacity:0}.cls-2{fill:#3a51b2}
        </style>
    </defs>
    <g id="btn_Show" transform="translate(-1080 -320)">
        <path id="사각형_101" d="M0 0h20v20H0z" class="cls-1" data-name="사각형 101" transform="translate(1080 320)"/>
        <path id="패스_461" d="M10 98.725c-3.821 0-7.286 2.1-9.844 5.522a.8.8 0 0 0 0 .951c2.557 3.422 6.022 5.526 9.844 5.526s7.286-2.1 9.844-5.522a.8.8 0 0 0 0-.951c-2.558-3.422-6.023-5.526-9.844-5.526zm.274 10.225A4.234 4.234 0 1 1 14.2 105a4.223 4.223 0 0 1-3.926 3.95zm-.127-1.95a2.28 2.28 0 1 1 2.115-2.129A2.269 2.269 0 0 1 10.147 107z" class="cls-2" data-name="패스 461" transform="translate(1080 225.275)"/>
    </g>
</svg>
