<svg xmlns="http://www.w3.org/2000/svg" viewBox="0 0 17 17">
    <defs>
        <style>
            .cls-1{fill:none}.cls-2{fill:#c7cacb}
        </style>
    </defs>
    <g id="icon_search_01" transform="translate(-712 -442)">
        <path id="사각형_693" d="M0 0h16v16H0z" class="cls-1" data-name="사각형 693" transform="translate(713 443)"/>
        <path id="패스_208" d="M15.9 14.5l-3.3-3.3A6.847 6.847 0 0 0 14 7a6.957 6.957 0 0 0-7-7 6.957 6.957 0 0 0-7 7 6.957 6.957 0 0 0 7 7 6.847 6.847 0 0 0 4.2-1.4l3.3 3.3zM2 7a4.951 4.951 0 0 1 5-5 4.951 4.951 0 0 1 5 5 4.951 4.951 0 0 1-5 5 4.951 4.951 0 0 1-5-5z" class="cls-2" data-name="패스 208" transform="translate(712 442)"/>
    </g>
</svg>
