<svg xmlns="http://www.w3.org/2000/svg" viewBox="0 0 250 162">
    <defs>
        <style>
            .cls-1{fill:#fff409}.cls-2,.cls-4,.cls-5{fill:none;stroke:#2d3241;stroke-miterlimit:10;stroke-width:3px}.cls-2,.cls-4{stroke-linecap:round}.cls-3{fill:#2d3241}.cls-4{stroke-linejoin:round}
        </style>
    </defs>
    <g id="illust_Tdone" transform="translate(-621 -221)">
        <g id="그룹_19" data-name="그룹 19" transform="translate(621 221)">
            <circle id="타원_10" cx="7" cy="7" r="7" class="cls-1" data-name="타원 10" transform="translate(0 31)"/>
        </g>
        <g id="그룹_20" data-name="그룹 20" transform="translate(621 221)">
            <circle id="타원_11" cx="7" cy="7" r="7" class="cls-1" data-name="타원 11" transform="translate(150 80)"/>
        </g>
        <g id="그룹_21" data-name="그룹 21" transform="translate(621 221)">
            <path id="선_26" d="M0 0h9" class="cls-2" data-name="선 26" transform="translate(7 43)"/>
            <path id="선_27" d="M0 0v9" class="cls-2" data-name="선 27" transform="translate(11.5 38.5)"/>
        </g>
        <g id="그룹_22" data-name="그룹 22" transform="translate(621 221)">
            <path id="선_28" d="M0 0h9" class="cls-2" data-name="선 28" transform="translate(184 142)"/>
            <path id="선_29" d="M0 0v9" class="cls-2" data-name="선 29" transform="translate(188.5 137.5)"/>
        </g>
        <g id="그룹_23" data-name="그룹 23" transform="translate(621 221)">
            <path id="패스_43" d="M237.3 79a3 3 0 1 1-3 3 3.009 3.009 0 0 1 3-3m0-3a6 6 0 1 0 6 6 6.018 6.018 0 0 0-6-6z" class="cls-1" data-name="패스 43"/>
        </g>
        <g id="그룹_24" data-name="그룹 24" transform="translate(621 221)">
            <path id="패스_44" d="M42 107a3 3 0 1 1-3 3 2.946 2.946 0 0 1 3-3m0-3a6 6 0 1 0 6 6 6.018 6.018 0 0 0-6-6z" class="cls-1" data-name="패스 44"/>
        </g>
        <g id="그룹_25" data-name="그룹 25" transform="translate(621 221)">
            <path id="패스_45" d="M243.8 82l2.9 5-1.3 4h-3.3l-1.3-4 3-5m0-6l-6.2 10.6L240 94h7.6l2.4-7.4-6.2-10.6z" class="cls-3" data-name="패스 45"/>
        </g>
        <g id="그룹_26" data-name="그룹 26" transform="translate(621 221)">
            <path id="패스_46" d="M96.8 0L86.5 17.7 90.4 30h12.8l3.9-12.3z" class="cls-1" data-name="패스 46"/>
        </g>
        <path id="패스_47" d="M214 55l-27 11V34l27-11z" class="cls-1" data-name="패스 47" transform="translate(621 221)"/>
        <g id="그룹_27" data-name="그룹 27" transform="translate(621 221)">
            <path id="패스_48" d="M60 162V90l72 72z" class="cls-1" data-name="패스 48"/>
        </g>
        <g id="그룹_28" data-name="그룹 28" transform="translate(621 221)">
            <path id="패스_49" d="M204.5 12.8L177.5 2l-27 10.8" class="cls-4" data-name="패스 49"/>
            <path id="패스_50" d="M150.5 12.8v32.4l27 10.8 27-10.8V12.8l-27 10.8z" class="cls-4" data-name="패스 50"/>
            <path id="선_30" d="M0 0v32.4" class="cls-5" data-name="선 30" transform="translate(177.5 23.6)"/>
        </g>
        <g id="그룹_29" data-name="그룹 29" transform="translate(621 221)">
            <path id="패스_51" d="M128 68a1 1 0 0 1 1 1v68.3a.908.908 0 0 1-.3.7L115 151.7a.908.908 0 0 1-.7.3H64a1 1 0 0 1-1-1V69a1 1 0 0 1 1-1h64m0-3H64a4.012 4.012 0 0 0-4 4v82a4.012 4.012 0 0 0 4 4h50.3a3.631 3.631 0 0 0 2.8-1.2l13.7-13.7a3.949 3.949 0 0 0 1.2-2.8V69a4.012 4.012 0 0 0-4-4z" class="cls-3" data-name="패스 51"/>
        </g>
        <path id="선_31" d="M0 0h43.5" class="cls-4" data-name="선 31" transform="translate(695.5 314)"/>
        <path id="선_32" d="M0 0h43.5" class="cls-4" data-name="선 32" transform="translate(695.5 324)"/>
        <path id="선_33" d="M0 0h22" class="cls-4" data-name="선 33" transform="translate(695.5 304)"/>
        <path id="패스_52" d="M92.5 127.5l7-5-4 11 16-16-3 12 10-8-2 8" class="cls-4" data-name="패스 52" transform="translate(621 221)"/>
        <g id="그룹_30" data-name="그룹 30" transform="translate(621 221)">
            <path id="선_34" d="M0 0h3" class="cls-4" data-name="선 34" transform="translate(96 19)"/>
            <path id="선_35" d="M0 0v3" class="cls-4" data-name="선 35" transform="translate(96 19)"/>
            <path id="선_36" d="M0 0v3" class="cls-4" data-name="선 36" transform="translate(96 29)"/>
            <path id="선_37" d="M0 0v3" class="cls-4" data-name="선 37" transform="translate(96 39)"/>
            <path id="선_38" d="M0 0v3" class="cls-4" data-name="선 38" transform="translate(96 49)"/>
            <path id="선_39" d="M0 0h3" class="cls-4" data-name="선 39" transform="translate(106 19)"/>
            <path id="선_40" d="M0 0h3" class="cls-4" data-name="선 40" transform="translate(116 19)"/>
            <path id="선_41" d="M0 0h3" class="cls-4" data-name="선 41" transform="translate(126 19)"/>
            <path id="선_42" d="M0 0h3" class="cls-4" data-name="선 42" transform="translate(136 19)"/>
        </g>
        <g id="그룹_31" data-name="그룹 31" transform="translate(621 221)">
            <path id="선_43" d="M3 0H0" class="cls-4" data-name="선 43" transform="translate(175 110)"/>
            <path id="선_44" d="M0 3V0" class="cls-4" data-name="선 44" transform="translate(178 107)"/>
            <path id="선_45" d="M0 3V0" class="cls-4" data-name="선 45" transform="translate(178 97)"/>
            <path id="선_46" d="M0 3V0" class="cls-4" data-name="선 46" transform="translate(178 87)"/>
            <path id="선_47" d="M0 3V0" class="cls-4" data-name="선 47" transform="translate(178 77)"/>
            <path id="선_48" d="M0 3V0" class="cls-4" data-name="선 48" transform="translate(178 67)"/>
            <path id="선_49" d="M3 0H0" class="cls-4" data-name="선 49" transform="translate(165 110)"/>
            <path id="선_50" d="M3 0H0" class="cls-4" data-name="선 50" transform="translate(155 110)"/>
            <path id="선_51" d="M3 0H0" class="cls-4" data-name="선 51" transform="translate(145 110)"/>
        </g>
        <path id="패스_53" d="M115 153v-15h15" class="cls-4" data-name="패스 53" transform="translate(621 221)"/>
    </g>
</svg>
