<svg xmlns="http://www.w3.org/2000/svg" width="20" height="20" viewBox="0 0 20 20">
    <defs>
        <style>
            .cls-1{fill:#fff;opacity:0}.cls-2,.cls-3,.cls-4{fill:#313557}.cls-2,.cls-4{stroke:#313557;stroke-miterlimit:10}.cls-2{stroke-width:.3px}.cls-4{stroke-width:.312px}
        </style>
    </defs>
    <g id="icon-clearPK" transform="translate(-1098 -25)">
        <path id="사각형_4278" d="M0 0h20v20H0z" class="cls-1" data-name="사각형 4278" transform="translate(1098 25)"/>
        <path id="패스_2162" d="M451.4 209.965h-4.15a.936.936 0 0 1-.935-.935v-4.308a.936.936 0 0 1 .935-.934h7.565a.935.935 0 0 1 .935.934v.506a.642.642 0 0 0 1.283 0v-.506a2.22 2.22 0 0 0-2.218-2.217h-.515v-1.737a3.269 3.269 0 0 0-6.536 0v1.737h-.514a2.219 2.219 0 0 0-2.217 2.217v4.308a2.22 2.22 0 0 0 2.217 2.218h4.15a.642.642 0 1 0 0-1.283zm-2.354-9.2a1.987 1.987 0 0 1 3.971 0v1.737h-3.971z" class="cls-2" data-name="패스 2162" transform="translate(655.964 -170.567)"/>
        <path id="패스_2163" d="M449.566 206.169a.28.28 0 0 0-.382-.1l-.3.174v-.346a.28.28 0 1 0-.56 0v.346l-.3-.174a.28.28 0 0 0-.28.486l.3.173-.3.173a.281.281 0 0 0 .14.523.283.283 0 0 0 .14-.038l.3-.173v.346a.28.28 0 0 0 .56 0v-.346l.3.173a.283.283 0 0 0 .14.038.281.281 0 0 0 .14-.523l-.3-.173.3-.173a.28.28 0 0 0 .102-.386z" class="cls-3" data-name="패스 2163" transform="translate(655.964 -170.567)"/>
        <path id="패스_2164" d="M452.369 206.169a.281.281 0 0 0-.383-.1l-.3.174v-.346a.281.281 0 1 0-.561 0v.346l-.3-.174a.28.28 0 0 0-.28.486l.3.173-.3.173a.281.281 0 0 0 .141.523.282.282 0 0 0 .139-.038l.3-.173v.346a.281.281 0 0 0 .561 0v-.346l.3.173a.279.279 0 0 0 .383-.1.28.28 0 0 0-.1-.382l-.3-.173.3-.173a.281.281 0 0 0 .1-.389z" class="cls-3" data-name="패스 2164" transform="translate(655.964 -170.567)"/>
        <path id="패스_2165" d="M458.471 210.707a.611.611 0 1 1-.864.864l-1.554-1.554-1.554 1.554a.611.611 0 0 1-.864-.864l1.554-1.554-1.554-1.554a.611.611 0 1 1 .864-.864l1.554 1.554 1.554-1.554a.611.611 0 1 1 .864.864l-1.554 1.554z" class="cls-4" data-name="패스 2165" transform="translate(655.964 -170.567)"/>
    </g>
</svg>
