<svg xmlns="http://www.w3.org/2000/svg" viewBox="0 0 54 54">
    <defs>
        <style>
            .cls-1{fill:#ffb822}.cls-2{clip-path:url(#clip-path)}.cls-3{fill:#fff}
        </style>
        <clipPath id="clip-path">
            <circle id="타원_588" cx="27" cy="27" r="27" data-name="타원 588"/>
        </clipPath>
    </defs>
    <g id="icon_node_vd_03" transform="translate(-43.6 -62.6)">
        <circle id="타원_507" cx="27" cy="27" r="27" class="cls-1" data-name="타원 507" transform="translate(43.6 62.6)"/>
        <g id="그룹_1126" class="cls-2" data-name="그룹 1126" transform="translate(43.6 62.6)">
            <g id="그룹_1116" data-name="그룹 1116" transform="translate(-11.879 -18.452)">
                <circle id="타원_508" cx="1.091" cy="1.091" r="1.091" class="cls-3" data-name="타원 508" transform="translate(0 39.91)"/>
                <circle id="타원_509" cx="2.83" cy="2.83" r="2.83" class="cls-3" data-name="타원 509" transform="translate(3.567 32.866)"/>
                <circle id="타원_510" cx="1.091" cy="1.091" r="1.091" class="cls-3" data-name="타원 510" transform="translate(10.936 28.975)"/>
                <circle id="타원_511" cx="2.83" cy="2.83" r="2.83" class="cls-3" data-name="타원 511" transform="translate(14.502 21.93)"/>
                <circle id="타원_512" cx="1.091" cy="1.091" r="1.091" class="cls-3" data-name="타원 512" transform="translate(21.901 18.01)"/>
                <circle id="타원_513" cx="2.83" cy="2.83" r="2.83" class="cls-3" data-name="타원 513" transform="translate(25.467 10.965)"/>
                <circle id="타원_514" cx="1.091" cy="1.091" r="1.091" class="cls-3" data-name="타원 514" transform="translate(32.866 7.045)"/>
                <circle id="타원_515" cx="2.83" cy="2.83" r="2.83" class="cls-3" data-name="타원 515" transform="translate(36.432)"/>
            </g>
            <g id="그룹_1117" data-name="그룹 1117" transform="translate(-12.852 -8.519)">
                <circle id="타원_516" cx="1.091" cy="1.091" r="1.091" class="cls-3" data-name="타원 516" transform="translate(0 39.91)"/>
                <circle id="타원_517" cx="2.83" cy="2.83" r="2.83" class="cls-3" data-name="타원 517" transform="translate(3.567 32.866)"/>
                <circle id="타원_518" cx="1.091" cy="1.091" r="1.091" class="cls-3" data-name="타원 518" transform="translate(10.936 28.975)"/>
                <circle id="타원_519" cx="2.83" cy="2.83" r="2.83" class="cls-3" data-name="타원 519" transform="translate(14.502 21.93)"/>
                <circle id="타원_520" cx="1.091" cy="1.091" r="1.091" class="cls-3" data-name="타원 520" transform="translate(21.901 18.01)"/>
                <circle id="타원_521" cx="2.83" cy="2.83" r="2.83" class="cls-3" data-name="타원 521" transform="translate(25.467 10.965)"/>
                <circle id="타원_522" cx="1.091" cy="1.091" r="1.091" class="cls-3" data-name="타원 522" transform="translate(32.836 7.045)"/>
                <circle id="타원_523" cx="2.83" cy="2.83" r="2.83" class="cls-3" data-name="타원 523" transform="translate(36.403)"/>
            </g>
            <g id="그룹_1118" data-name="그룹 1118" transform="translate(-2.388 -8.931)">
                <circle id="타원_524" cx="1.091" cy="1.091" r="1.091" class="cls-3" data-name="타원 524" transform="translate(0 39.91)"/>
                <circle id="타원_525" cx="2.83" cy="2.83" r="2.83" class="cls-3" data-name="타원 525" transform="translate(3.567 32.866)"/>
                <circle id="타원_526" cx="1.091" cy="1.091" r="1.091" class="cls-3" data-name="타원 526" transform="translate(10.965 28.945)"/>
                <circle id="타원_527" cx="2.83" cy="2.83" r="2.83" class="cls-3" data-name="타원 527" transform="translate(14.532 21.901)"/>
                <circle id="타원_528" cx="1.091" cy="1.091" r="1.091" class="cls-3" data-name="타원 528" transform="translate(21.901 17.98)"/>
                <circle id="타원_529" cx="2.83" cy="2.83" r="2.83" class="cls-3" data-name="타원 529" transform="translate(25.467 10.936)"/>
                <circle id="타원_530" cx="1.091" cy="1.091" r="1.091" class="cls-3" data-name="타원 530" transform="translate(32.866 7.045)"/>
                <circle id="타원_531" cx="2.83" cy="2.83" r="2.83" class="cls-3" data-name="타원 531" transform="translate(36.432)"/>
            </g>
            <g id="그룹_1119" data-name="그룹 1119" transform="translate(-3.36 1.002)">
                <circle id="타원_532" cx="1.091" cy="1.091" r="1.091" class="cls-3" data-name="타원 532" transform="translate(0 39.91)"/>
                <circle id="타원_533" cx="2.83" cy="2.83" r="2.83" class="cls-3" data-name="타원 533" transform="translate(3.567 32.866)"/>
                <circle id="타원_534" cx="1.091" cy="1.091" r="1.091" class="cls-3" data-name="타원 534" transform="translate(10.965 28.945)"/>
                <circle id="타원_535" cx="2.83" cy="2.83" r="2.83" class="cls-3" data-name="타원 535" transform="translate(14.532 21.901)"/>
                <circle id="타원_536" cx="1.091" cy="1.091" r="1.091" class="cls-3" data-name="타원 536" transform="translate(21.901 17.98)"/>
                <circle id="타원_537" cx="2.83" cy="2.83" r="2.83" class="cls-3" data-name="타원 537" transform="translate(25.467 10.936)"/>
                <circle id="타원_538" cx="1.091" cy="1.091" r="1.091" class="cls-3" data-name="타원 538" transform="translate(32.866 7.045)"/>
                <circle id="타원_539" cx="2.83" cy="2.83" r="2.83" class="cls-3" data-name="타원 539" transform="translate(36.432)"/>
            </g>
            <g id="그룹_1120" data-name="그룹 1120" transform="translate(7.133 .56)">
                <circle id="타원_540" cx="1.091" cy="1.091" r="1.091" class="cls-3" data-name="타원 540" transform="translate(0 39.91)"/>
                <circle id="타원_541" cx="2.83" cy="2.83" r="2.83" class="cls-3" data-name="타원 541" transform="translate(3.567 32.866)"/>
                <circle id="타원_542" cx="1.091" cy="1.091" r="1.091" class="cls-3" data-name="타원 542" transform="translate(10.936 28.945)"/>
                <circle id="타원_543" cx="2.83" cy="2.83" r="2.83" class="cls-3" data-name="타원 543" transform="translate(14.502 21.901)"/>
                <circle id="타원_544" cx="1.091" cy="1.091" r="1.091" class="cls-3" data-name="타원 544" transform="translate(21.901 18.01)"/>
                <circle id="타원_545" cx="2.83" cy="2.83" r="2.83" class="cls-3" data-name="타원 545" transform="translate(25.467 10.965)"/>
                <circle id="타원_546" cx="1.091" cy="1.091" r="1.091" class="cls-3" data-name="타원 546" transform="translate(32.866 7.045)"/>
                <circle id="타원_547" cx="2.83" cy="2.83" r="2.83" class="cls-3" data-name="타원 547" transform="translate(36.432)"/>
            </g>
            <g id="그룹_1121" data-name="그룹 1121" transform="translate(6.131 10.493)">
                <circle id="타원_548" cx="1.091" cy="1.091" r="1.091" class="cls-3" data-name="타원 548" transform="translate(0 39.91)"/>
                <circle id="타원_549" cx="2.83" cy="2.83" r="2.83" class="cls-3" data-name="타원 549" transform="translate(3.567 32.866)"/>
                <circle id="타원_550" cx="1.091" cy="1.091" r="1.091" class="cls-3" data-name="타원 550" transform="translate(10.965 28.945)"/>
                <circle id="타원_551" cx="2.83" cy="2.83" r="2.83" class="cls-3" data-name="타원 551" transform="translate(14.532 21.901)"/>
                <circle id="타원_552" cx="1.091" cy="1.091" r="1.091" class="cls-3" data-name="타원 552" transform="translate(21.93 18.01)"/>
                <circle id="타원_553" cx="2.83" cy="2.83" r="2.83" class="cls-3" data-name="타원 553" transform="translate(25.497 10.965)"/>
                <circle id="타원_554" cx="1.091" cy="1.091" r="1.091" class="cls-3" data-name="타원 554" transform="translate(32.866 7.045)"/>
                <circle id="타원_555" cx="2.83" cy="2.83" r="2.83" class="cls-3" data-name="타원 555" transform="translate(36.432)"/>
            </g>
            <g id="그룹_1122" data-name="그룹 1122" transform="translate(16.624 10.081)">
                <circle id="타원_556" cx="1.091" cy="1.091" r="1.091" class="cls-3" data-name="타원 556" transform="translate(0 39.91)"/>
                <circle id="타원_557" cx="2.83" cy="2.83" r="2.83" class="cls-3" data-name="타원 557" transform="translate(3.567 32.866)"/>
                <circle id="타원_558" cx="1.091" cy="1.091" r="1.091" class="cls-3" data-name="타원 558" transform="translate(10.965 28.945)"/>
                <circle id="타원_559" cx="2.83" cy="2.83" r="2.83" class="cls-3" data-name="타원 559" transform="translate(14.532 21.901)"/>
                <circle id="타원_560" cx="1.091" cy="1.091" r="1.091" class="cls-3" data-name="타원 560" transform="translate(21.901 17.98)"/>
                <circle id="타원_561" cx="2.83" cy="2.83" r="2.83" class="cls-3" data-name="타원 561" transform="translate(25.467 10.936)"/>
                <circle id="타원_562" cx="1.091" cy="1.091" r="1.091" class="cls-3" data-name="타원 562" transform="translate(32.866 7.045)"/>
                <circle id="타원_563" cx="2.83" cy="2.83" r="2.83" class="cls-3" data-name="타원 563" transform="translate(36.432)"/>
            </g>
            <g id="그룹_1123" data-name="그룹 1123" transform="translate(15.652 20.014)">
                <circle id="타원_564" cx="1.091" cy="1.091" r="1.091" class="cls-3" data-name="타원 564" transform="translate(0 39.91)"/>
                <circle id="타원_565" cx="2.83" cy="2.83" r="2.83" class="cls-3" data-name="타원 565" transform="translate(3.567 32.866)"/>
                <circle id="타원_566" cx="1.091" cy="1.091" r="1.091" class="cls-3" data-name="타원 566" transform="translate(10.965 28.945)"/>
                <circle id="타원_567" cx="2.83" cy="2.83" r="2.83" class="cls-3" data-name="타원 567" transform="translate(14.502 21.901)"/>
                <circle id="타원_568" cx="1.091" cy="1.091" r="1.091" class="cls-3" data-name="타원 568" transform="translate(21.901 17.98)"/>
                <circle id="타원_569" cx="2.83" cy="2.83" r="2.83" class="cls-3" data-name="타원 569" transform="translate(25.467 10.936)"/>
                <circle id="타원_570" cx="1.091" cy="1.091" r="1.091" class="cls-3" data-name="타원 570" transform="translate(32.866 7.045)"/>
                <circle id="타원_571" cx="2.83" cy="2.83" r="2.83" class="cls-3" data-name="타원 571" transform="translate(36.432)"/>
            </g>
            <g id="그룹_1124" data-name="그룹 1124" transform="translate(26.145 19.572)">
                <circle id="타원_572" cx="1.091" cy="1.091" r="1.091" class="cls-3" data-name="타원 572" transform="translate(0 39.91)"/>
                <circle id="타원_573" cx="2.83" cy="2.83" r="2.83" class="cls-3" data-name="타원 573" transform="translate(3.567 32.866)"/>
                <circle id="타원_574" cx="1.091" cy="1.091" r="1.091" class="cls-3" data-name="타원 574" transform="translate(10.936 28.945)"/>
                <circle id="타원_575" cx="2.83" cy="2.83" r="2.83" class="cls-3" data-name="타원 575" transform="translate(14.502 21.901)"/>
                <circle id="타원_576" cx="1.091" cy="1.091" r="1.091" class="cls-3" data-name="타원 576" transform="translate(21.901 18.01)"/>
                <circle id="타원_577" cx="2.83" cy="2.83" r="2.83" class="cls-3" data-name="타원 577" transform="translate(25.467 10.965)"/>
                <circle id="타원_578" cx="1.091" cy="1.091" r="1.091" class="cls-3" data-name="타원 578" transform="translate(32.836 7.045)"/>
                <circle id="타원_579" cx="2.83" cy="2.83" r="2.83" class="cls-3" data-name="타원 579" transform="translate(36.403)"/>
            </g>
            <g id="그룹_1125" data-name="그룹 1125" transform="translate(25.143 29.505)">
                <circle id="타원_580" cx="1.091" cy="1.091" r="1.091" class="cls-3" data-name="타원 580" transform="translate(0 39.91)"/>
                <circle id="타원_581" cx="2.83" cy="2.83" r="2.83" class="cls-3" data-name="타원 581" transform="translate(3.567 32.866)"/>
                <circle id="타원_582" cx="1.091" cy="1.091" r="1.091" class="cls-3" data-name="타원 582" transform="translate(10.965 28.945)"/>
                <circle id="타원_583" cx="2.83" cy="2.83" r="2.83" class="cls-3" data-name="타원 583" transform="translate(14.532 21.901)"/>
                <circle id="타원_584" cx="1.091" cy="1.091" r="1.091" class="cls-3" data-name="타원 584" transform="translate(21.93 18.01)"/>
                <circle id="타원_585" cx="2.83" cy="2.83" r="2.83" class="cls-3" data-name="타원 585" transform="translate(25.497 10.965)"/>
                <circle id="타원_586" cx="1.091" cy="1.091" r="1.091" class="cls-3" data-name="타원 586" transform="translate(32.866 7.045)"/>
                <circle id="타원_587" cx="2.83" cy="2.83" r="2.83" class="cls-3" data-name="타원 587" transform="translate(36.432)"/>
            </g>
        </g>
    </g>
</svg>
