<svg xmlns="http://www.w3.org/2000/svg" viewBox="0 0 54 54">
    <defs>
        <style>
            .cls-1{fill:#edf0f1}.cls-2{clip-path:url(#clip-path)}.cls-3{fill:#acb1b3}
        </style>
        <clipPath id="clip-path">
            <circle id="타원_626" cx="27" cy="27" r="27" data-name="타원 626"/>
        </clipPath>
    </defs>
    <g id="icon_node_c_05" transform="translate(-28.9 -5.4)">
        <circle id="타원_593" cx="27" cy="27" r="27" class="cls-1" data-name="타원 593" transform="translate(28.9 5.4)"/>
        <g id="그룹_1207" class="cls-2" data-name="그룹 1207" transform="translate(28.9 5.4)">
            <circle id="타원_594" cx="3.242" cy="3.242" r="3.242" class="cls-3" data-name="타원 594" transform="translate(-.118 31.127)"/>
            <circle id="타원_595" cx="3.242" cy="3.242" r="3.242" class="cls-3" data-name="타원 595" transform="translate(15.504 31.127)"/>
            <circle id="타원_596" cx="3.242" cy="3.242" r="3.242" class="cls-3" data-name="타원 596" transform="translate(31.716 31.127)"/>
            <circle id="타원_597" cx="3.242" cy="3.242" r="3.242" class="cls-3" data-name="타원 597" transform="translate(47.928 31.127)"/>
            <circle id="타원_598" cx="3.242" cy="3.242" r="3.242" class="cls-3" data-name="타원 598" transform="translate(-8.519 38.79)"/>
            <circle id="타원_599" cx="3.242" cy="3.242" r="3.242" class="cls-3" data-name="타원 599" transform="translate(7.104 38.79)"/>
            <circle id="타원_600" cx="3.242" cy="3.242" r="3.242" class="cls-3" data-name="타원 600" transform="translate(23.316 38.79)"/>
            <circle id="타원_601" cx="3.242" cy="3.242" r="3.242" class="cls-3" data-name="타원 601" transform="translate(39.527 38.79)"/>
            <circle id="타원_602" cx="3.242" cy="3.242" r="3.242" class="cls-3" data-name="타원 602" transform="translate(-.118 47.486)"/>
            <circle id="타원_603" cx="3.242" cy="3.242" r="3.242" class="cls-3" data-name="타원 603" transform="translate(15.504 47.486)"/>
            <circle id="타원_604" cx="3.242" cy="3.242" r="3.242" class="cls-3" data-name="타원 604" transform="translate(31.716 47.486)"/>
            <circle id="타원_605" cx="3.242" cy="3.242" r="3.242" class="cls-3" data-name="타원 605" transform="translate(47.928 47.486)"/>
            <circle id="타원_606" cx="3.242" cy="3.242" r="3.242" class="cls-3" data-name="타원 606" transform="translate(-8.519 55.15)"/>
            <circle id="타원_607" cx="3.242" cy="3.242" r="3.242" class="cls-3" data-name="타원 607" transform="translate(7.104 55.15)"/>
            <circle id="타원_608" cx="3.242" cy="3.242" r="3.242" class="cls-3" data-name="타원 608" transform="translate(23.316 55.15)"/>
            <circle id="타원_609" cx="3.242" cy="3.242" r="3.242" class="cls-3" data-name="타원 609" transform="translate(39.527 55.15)"/>
            <circle id="타원_610" cx="3.242" cy="3.242" r="3.242" class="cls-3" data-name="타원 610" transform="translate(-.118 -1.592)"/>
            <circle id="타원_611" cx="3.242" cy="3.242" r="3.242" class="cls-3" data-name="타원 611" transform="translate(15.504 -1.592)"/>
            <circle id="타원_612" cx="3.242" cy="3.242" r="3.242" class="cls-3" data-name="타원 612" transform="translate(31.716 -1.592)"/>
            <circle id="타원_613" cx="3.242" cy="3.242" r="3.242" class="cls-3" data-name="타원 613" transform="translate(47.928 -1.592)"/>
            <circle id="타원_614" cx="3.242" cy="3.242" r="3.242" class="cls-3" data-name="타원 614" transform="translate(-8.519 6.072)"/>
            <circle id="타원_615" cx="3.242" cy="3.242" r="3.242" class="cls-3" data-name="타원 615" transform="translate(7.104 6.072)"/>
            <circle id="타원_616" cx="3.242" cy="3.242" r="3.242" class="cls-3" data-name="타원 616" transform="translate(23.316 6.072)"/>
            <circle id="타원_617" cx="3.242" cy="3.242" r="3.242" class="cls-3" data-name="타원 617" transform="translate(39.527 6.072)"/>
            <circle id="타원_618" cx="3.242" cy="3.242" r="3.242" class="cls-3" data-name="타원 618" transform="translate(-.118 14.767)"/>
            <circle id="타원_619" cx="3.242" cy="3.242" r="3.242" class="cls-3" data-name="타원 619" transform="translate(15.504 14.767)"/>
            <circle id="타원_620" cx="3.242" cy="3.242" r="3.242" class="cls-3" data-name="타원 620" transform="translate(31.716 14.767)"/>
            <circle id="타원_621" cx="3.242" cy="3.242" r="3.242" class="cls-3" data-name="타원 621" transform="translate(47.928 14.767)"/>
            <circle id="타원_622" cx="3.242" cy="3.242" r="3.242" class="cls-3" data-name="타원 622" transform="translate(-8.519 22.431)"/>
            <circle id="타원_623" cx="3.242" cy="3.242" r="3.242" class="cls-3" data-name="타원 623" transform="translate(7.104 22.431)"/>
            <circle id="타원_624" cx="3.242" cy="3.242" r="3.242" class="cls-3" data-name="타원 624" transform="translate(23.316 22.431)"/>
            <circle id="타원_625" cx="3.242" cy="3.242" r="3.242" class="cls-3" data-name="타원 625" transform="translate(39.527 22.431)"/>
        </g>
    </g>
</svg>
