<svg xmlns="http://www.w3.org/2000/svg" viewBox="0 0 12 12.003">
    <defs>
        <style>
            .cls-1{fill:#fff}
        </style>
    </defs>
    <g id="icon_refresh_01" transform="translate(-1094 -3933.376)">
        <path id="패스_1031" d="M4.854 5.944V4.515a.283.283 0 0 0-.282-.282h-1L5 2.807a3 3 0 0 1 4.139 0 .281.281 0 0 0 .4 0L10.546 1.8a.281.281 0 0 0 0-.4A4.924 4.924 0 0 0 7.067 0a4.935 4.935 0 0 0-3.481 1.4L1.993 2.99V1.655a.283.283 0 0 0-.282-.282H.282A.283.283 0 0 0 0 1.655v4.289a.283.283 0 0 0 .282.282h4.289a.283.283 0 0 0 .283-.282z" class="cls-1" data-name="패스 1031" transform="translate(1094 3933.376)"/>
        <path id="패스_1032" d="M58.945 202.9h-4.289a.283.283 0 0 0-.282.282v1.429a.283.283 0 0 0 .282.282h1l-1.426 1.429a3 3 0 0 1-4.139 0 .281.281 0 0 0-.4 0l-1.011 1.008a.286.286 0 0 0 0 .4 4.918 4.918 0 0 0 6.96 0l1.592-1.59v1.333a.283.283 0 0 0 .282.282h1.429a.283.283 0 0 0 .282-.282v-4.292a.283.283 0 0 0-.28-.281z" class="cls-1" data-name="패스 1032" transform="translate(1046.772 3736.205)"/>
    </g>
</svg>
