<svg xmlns="http://www.w3.org/2000/svg" viewBox="0 0 54 54">
    <defs>
        <style>
            .cls-1{fill:#ffb822}.cls-2{clip-path:url(#clip-path)}.cls-3{fill:#fff}
        </style>
        <clipPath id="clip-path">
            <circle id="타원_499" cx="27" cy="27" r="27" data-name="타원 499"/>
        </clipPath>
    </defs>
    <g id="icon_node_vd_05" transform="translate(-6.9 -8.4)">
        <circle id="타원_466" cx="27" cy="27" r="27" class="cls-1" data-name="타원 466" transform="translate(6.9 8.4)"/>
        <g id="그룹_1107" class="cls-2" data-name="그룹 1107" transform="translate(6.9 8.4)">
            <circle id="타원_467" cx="3.242" cy="3.242" r="3.242" class="cls-3" data-name="타원 467" transform="translate(6.367 30.242)"/>
            <circle id="타원_468" cx="3.242" cy="3.242" r="3.242" class="cls-3" data-name="타원 468" transform="translate(21.989 30.242)"/>
            <circle id="타원_469" cx="3.242" cy="3.242" r="3.242" class="cls-3" data-name="타원 469" transform="translate(38.201 30.242)"/>
            <circle id="타원_470" cx="3.242" cy="3.242" r="3.242" class="cls-3" data-name="타원 470" transform="translate(54.413 30.242)"/>
            <circle id="타원_471" cx="3.242" cy="3.242" r="3.242" class="cls-3" data-name="타원 471" transform="translate(-2.034 37.906)"/>
            <circle id="타원_472" cx="3.242" cy="3.242" r="3.242" class="cls-3" data-name="타원 472" transform="translate(13.588 37.906)"/>
            <circle id="타원_473" cx="3.242" cy="3.242" r="3.242" class="cls-3" data-name="타원 473" transform="translate(29.8 37.906)"/>
            <circle id="타원_474" cx="3.242" cy="3.242" r="3.242" class="cls-3" data-name="타원 474" transform="translate(46.012 37.906)"/>
            <circle id="타원_475" cx="3.242" cy="3.242" r="3.242" class="cls-3" data-name="타원 475" transform="translate(6.367 46.602)"/>
            <circle id="타원_476" cx="3.242" cy="3.242" r="3.242" class="cls-3" data-name="타원 476" transform="translate(21.989 46.602)"/>
            <circle id="타원_477" cx="3.242" cy="3.242" r="3.242" class="cls-3" data-name="타원 477" transform="translate(38.201 46.602)"/>
            <circle id="타원_478" cx="3.242" cy="3.242" r="3.242" class="cls-3" data-name="타원 478" transform="translate(54.413 46.602)"/>
            <circle id="타원_479" cx="3.242" cy="3.242" r="3.242" class="cls-3" data-name="타원 479" transform="translate(-2.034 54.265)"/>
            <circle id="타원_480" cx="3.242" cy="3.242" r="3.242" class="cls-3" data-name="타원 480" transform="translate(13.588 54.265)"/>
            <circle id="타원_481" cx="3.242" cy="3.242" r="3.242" class="cls-3" data-name="타원 481" transform="translate(29.8 54.265)"/>
            <circle id="타원_482" cx="3.242" cy="3.242" r="3.242" class="cls-3" data-name="타원 482" transform="translate(46.012 54.265)"/>
            <circle id="타원_483" cx="3.242" cy="3.242" r="3.242" class="cls-3" data-name="타원 483" transform="translate(6.367 -2.476)"/>
            <circle id="타원_484" cx="3.242" cy="3.242" r="3.242" class="cls-3" data-name="타원 484" transform="translate(21.989 -2.476)"/>
            <circle id="타원_485" cx="3.242" cy="3.242" r="3.242" class="cls-3" data-name="타원 485" transform="translate(38.201 -2.476)"/>
            <circle id="타원_486" cx="3.242" cy="3.242" r="3.242" class="cls-3" data-name="타원 486" transform="translate(54.413 -2.476)"/>
            <circle id="타원_487" cx="3.242" cy="3.242" r="3.242" class="cls-3" data-name="타원 487" transform="translate(-2.034 5.188)"/>
            <circle id="타원_488" cx="3.242" cy="3.242" r="3.242" class="cls-3" data-name="타원 488" transform="translate(13.588 5.188)"/>
            <circle id="타원_489" cx="3.242" cy="3.242" r="3.242" class="cls-3" data-name="타원 489" transform="translate(29.8 5.188)"/>
            <circle id="타원_490" cx="3.242" cy="3.242" r="3.242" class="cls-3" data-name="타원 490" transform="translate(46.012 5.188)"/>
            <circle id="타원_491" cx="3.242" cy="3.242" r="3.242" class="cls-3" data-name="타원 491" transform="translate(6.367 13.883)"/>
            <circle id="타원_492" cx="3.242" cy="3.242" r="3.242" class="cls-3" data-name="타원 492" transform="translate(21.989 13.883)"/>
            <circle id="타원_493" cx="3.242" cy="3.242" r="3.242" class="cls-3" data-name="타원 493" transform="translate(38.201 13.883)"/>
            <circle id="타원_494" cx="3.242" cy="3.242" r="3.242" class="cls-3" data-name="타원 494" transform="translate(54.413 13.883)"/>
            <circle id="타원_495" cx="3.242" cy="3.242" r="3.242" class="cls-3" data-name="타원 495" transform="translate(-2.034 21.547)"/>
            <circle id="타원_496" cx="3.242" cy="3.242" r="3.242" class="cls-3" data-name="타원 496" transform="translate(13.588 21.547)"/>
            <circle id="타원_497" cx="3.242" cy="3.242" r="3.242" class="cls-3" data-name="타원 497" transform="translate(29.8 21.547)"/>
            <circle id="타원_498" cx="3.242" cy="3.242" r="3.242" class="cls-3" data-name="타원 498" transform="translate(46.012 21.547)"/>
        </g>
    </g>
</svg>
