<svg xmlns="http://www.w3.org/2000/svg" viewBox="0 0 54 54">
    <defs>
        <style>
            .cls-1{fill:#edf0f1}.cls-2{clip-path:url(#clip-path)}.cls-3{fill:#acb1b3}
        </style>
        <clipPath id="clip-path">
            <circle id="타원_628" cx="27" cy="27" r="27" data-name="타원 628"/>
        </clipPath>
    </defs>
    <g id="icon_node_c_01" transform="translate(-68.6 -50.1)">
        <circle id="타원_627" cx="27" cy="27" r="27" class="cls-1" data-name="타원 627" transform="translate(68.6 50.1)"/>
        <g id="그룹_1209" class="cls-2" data-name="그룹 1209" transform="translate(68.6 50.1)">
            <path id="패스_893" d="M71.9 103.886L48.286 127.5a2.633 2.633 0 0 1-3.685 0 2.633 2.633 0 0 1 0-3.685l23.61-23.61a2.634 2.634 0 0 1 3.684 0 2.58 2.58 0 0 1 .005 3.681z" class="cls-3" data-name="패스 893" transform="translate(-51.145 -84.904)"/>
            <path id="패스_894" d="M171.4 4.486L147.786 28.1a2.633 2.633 0 0 1-3.684 0 2.633 2.633 0 0 1 0-3.684L167.712.8a2.633 2.633 0 0 1 3.688 0 2.633 2.633 0 0 1 0 3.686z" class="cls-3" data-name="패스 894" transform="translate(-121.317 -14.803)"/>
            <path id="패스_895" d="M28.1 105.286L4.486 128.9a2.633 2.633 0 0 1-3.684 0 2.633 2.633 0 0 1 0-3.684l23.61-23.61a2.633 2.633 0 0 1 3.684 0 2.633 2.633 0 0 1 .004 3.68z" class="cls-3" data-name="패스 895" transform="translate(-20.256 -85.891)"/>
            <path id="패스_896" d="M127.6 5.886L103.986 29.5a2.633 2.633 0 0 1-3.685 0 2.634 2.634 0 0 1 0-3.684L123.912 2.2a2.633 2.633 0 0 1 3.684 0 2.633 2.633 0 0 1 .004 3.686z" class="cls-3" data-name="패스 896" transform="translate(-90.427 -15.79)"/>
            <path id="패스_897" d="M114.4 146.386L90.786 170a2.634 2.634 0 0 1-3.684 0 2.633 2.633 0 0 1 0-3.685l23.61-23.61a2.633 2.633 0 0 1 3.685 0 2.633 2.633 0 0 1 .003 3.681z" class="cls-3" data-name="패스 897" transform="translate(-81.118 -114.876)"/>
            <path id="패스_898" d="M213.8 46.886L190.186 70.5a2.633 2.633 0 0 1-3.684 0 2.634 2.634 0 0 1 0-3.684l23.61-23.61a2.633 2.633 0 0 1 3.685 0 2.58 2.58 0 0 1 .003 3.68z" class="cls-3" data-name="패스 898" transform="translate(-151.219 -44.705)"/>
            <path id="패스_899" d="M70.5 147.786L46.886 171.4a2.633 2.633 0 0 1-3.684 0 2.633 2.633 0 0 1 0-3.684l23.61-23.61a2.633 2.633 0 0 1 3.685 0 2.58 2.58 0 0 1 .003 3.68z" class="cls-3" data-name="패스 899" transform="translate(-50.158 -115.864)"/>
            <path id="패스_900" d="M170 48.286L146.386 71.9a2.633 2.633 0 0 1-3.684 0 2.633 2.633 0 0 1 0-3.684l23.61-23.61a2.633 2.633 0 0 1 3.685 0 2.633 2.633 0 0 1 .003 3.68z" class="cls-3" data-name="패스 900" transform="translate(-120.329 -45.692)"/>
            <path id="패스_901" d="M156.8 188.786l-23.61 23.61a2.633 2.633 0 0 1-3.684 0 2.633 2.633 0 0 1 0-3.685l23.61-23.61a2.633 2.633 0 0 1 3.684 0 2.633 2.633 0 0 1 0 3.685z" class="cls-3" data-name="패스 901" transform="translate(-111.02 -144.779)"/>
            <path id="패스_902" d="M256.3 89.286l-23.61 23.61a2.633 2.633 0 0 1-3.685 0 2.634 2.634 0 0 1 0-3.685l23.61-23.61a2.634 2.634 0 0 1 3.685 0 2.633 2.633 0 0 1 0 3.685z" class="cls-3" data-name="패스 902" transform="translate(-181.192 -74.607)"/>
            <path id="패스_903" d="M113 190.186L89.386 213.8a2.634 2.634 0 0 1-3.685 0 2.634 2.634 0 0 1 0-3.685l23.61-23.61a2.634 2.634 0 0 1 3.684 0 2.633 2.633 0 0 1 .005 3.681z" class="cls-3" data-name="패스 903" transform="translate(-80.131 -145.766)"/>
            <path id="패스_904" d="M212.4 90.686l-23.61 23.61a2.633 2.633 0 0 1-3.685 0 2.633 2.633 0 0 1 0-3.684L208.712 87a2.633 2.633 0 0 1 3.685 0 2.58 2.58 0 0 1 .003 3.686z" class="cls-3" data-name="패스 904" transform="translate(-150.232 -75.594)"/>
        </g>
    </g>
</svg>
