<svg xmlns="http://www.w3.org/2000/svg" viewBox="0 0 12 12">
    <defs>
        <style>
            .cls-1{fill:#acb2ce}
        </style>
    </defs>
    <g id="icon_Setting" transform="translate(-781 -613)">
        <g id="settings_1_" transform="translate(781 613)">
            <path id="패스_42" d="M10.5 6.6c0-.2.1-.4.1-.6a1.268 1.268 0 0 0-.1-.6l1.3-1c.1-.1.1-.2.1-.4l-1.2-2.1c-.1-.1-.2-.1-.4-.1l-1.6.7a5.3 5.3 0 0 0-1-.6L7.4.3c.1-.2-.1-.3-.2-.3H4.7c-.1 0-.3.1-.3.2l-.2 1.7a3 3 0 0 0-1.1.6l-1.4-.6c-.2-.1-.3 0-.5.1L0 4.1a.756.756 0 0 0 .1.4l1.3 1c0 .2-.1.4-.1.6a1.268 1.268 0 0 0 .1.6l-1.3 1a.188.188 0 0 0 0 .3l1.2 2.1c.1.1.2.1.4.1l1.5-.6c.3.2.7.4 1 .6l.2 1.6c0 .1.1.2.3.2h2.4c.1 0 .3-.1.3-.2l.2-1.6a8.794 8.794 0 0 0 1-.6l1.5.6c.1.1.3 0 .4-.1L12 8c0-.2 0-.3-.1-.4zM6 8.1A2.112 2.112 0 0 1 3.9 6 2.182 2.182 0 0 1 6 3.9 2.182 2.182 0 0 1 8.1 6 2.182 2.182 0 0 1 6 8.1z" class="cls-1" data-name="패스 42"/>
        </g>
    </g>
</svg>
