<svg xmlns="http://www.w3.org/2000/svg" viewBox="0 0 54 54">
    <defs>
        <style>
            .cls-1{fill:#edf0f1}.cls-2{clip-path:url(#clip-path)}.cls-3{fill:#acb1b3}
        </style>
        <clipPath id="clip-path">
            <circle id="타원_630" cx="27" cy="27" r="27" data-name="타원 630"/>
        </clipPath>
    </defs>
    <g id="icon_node_c_02" transform="translate(-128.9 -110.2)">
        <circle id="타원_629" cx="27" cy="27" r="27" class="cls-1" data-name="타원 629" transform="translate(128.9 110.2)"/>
        <g id="그룹_1211" class="cls-2" data-name="그룹 1211" transform="translate(128.9 110.2)">
            <path id="패스_905" d="M120.94 4.539c-1.886 2-3.537 3.743-7.487 3.743-3.3 0-4.864-1.592-6.838-3.626C104.492 2.476 102.075 0 97.507 0c-4.775 0-7.045 2.417-9.049 4.539-1.886 2-3.537 3.743-7.487 3.743-3.3 0-4.864-1.592-6.838-3.626C71.98 2.476 69.593 0 64.995 0c-4.775 0-7.045 2.417-9.049 4.539-1.886 2-3.537 3.743-7.487 3.743-3.3 0-4.864-1.592-6.838-3.626C39.5 2.476 37.081 0 32.483 0c-4.746 0-7.045 2.417-9.049 4.539-1.886 2-3.537 3.743-7.487 3.743-3.3 0-4.864-1.592-6.838-3.626C6.986 2.476 4.6 0 0 0v3.832c2.977 0 4.48 1.533 6.367 3.478 2.093 2.152 4.687 4.8 9.58 4.8 5.63 0 8.224-2.741 10.287-4.952 1.828-1.916 3.154-3.331 6.249-3.331 2.977 0 4.48 1.533 6.367 3.478 2.093 2.152 4.687 4.8 9.58 4.8 5.63 0 8.224-2.741 10.287-4.952 1.828-1.945 3.154-3.331 6.249-3.331 2.977 0 4.48 1.533 6.367 3.478 2.093 2.152 4.687 4.8 9.58 4.8 5.63 0 8.224-2.741 10.287-4.952 1.828-1.945 3.154-3.331 6.249-3.331 2.977 0 4.48 1.533 6.367 3.478 2.093 2.152 4.687 4.8 9.58 4.8 5.63 0 8.224-2.741 10.287-4.952 1.886-1.916 3.183-3.331 6.308-3.331V0c-4.777 0-7.047 2.417-9.051 4.539z" class="cls-3" data-name="패스 905" transform="translate(-37.995 -32.483)"/>
            <path id="패스_906" d="M120.94 47.939c-1.886 2-3.537 3.743-7.487 3.743-3.3 0-4.864-1.592-6.838-3.626-2.122-2.181-4.51-4.628-9.108-4.628-4.775 0-7.045 2.417-9.049 4.539-1.886 2-3.537 3.743-7.487 3.743-3.3 0-4.864-1.592-6.838-3.626-2.122-2.181-4.51-4.628-9.108-4.628-4.775 0-7.045 2.417-9.049 4.539-1.886 2-3.537 3.743-7.487 3.743-3.3 0-4.864-1.592-6.838-3.626-2.122-2.181-4.51-4.628-9.108-4.628-4.775 0-7.045 2.417-9.049 4.539-1.886 2-3.537 3.743-7.487 3.743-3.3 0-4.864-1.592-6.838-3.626C6.986 45.847 4.6 43.4 0 43.4v3.832c2.977 0 4.48 1.533 6.367 3.478 2.093 2.152 4.687 4.8 9.58 4.8 5.63 0 8.224-2.741 10.287-4.952 1.828-1.945 3.154-3.331 6.249-3.331 2.977 0 4.48 1.533 6.367 3.478 2.093 2.152 4.687 4.8 9.58 4.8 5.63 0 8.224-2.741 10.287-4.952 1.828-1.945 3.154-3.331 6.249-3.331 2.977 0 4.48 1.533 6.367 3.478 2.093 2.152 4.687 4.8 9.58 4.8 5.63 0 8.224-2.741 10.287-4.952 1.828-1.945 3.154-3.331 6.249-3.331 2.977 0 4.48 1.533 6.367 3.478 2.093 2.152 4.687 4.8 9.58 4.8 5.63 0 8.224-2.741 10.287-4.952 1.828-1.945 3.154-3.331 6.249-3.331V43.4c-4.718 0-6.988 2.417-8.992 4.539z" class="cls-3" data-name="패스 906" transform="translate(-37.995 -63.09)"/>
            <path id="패스_907" d="M120.94 91.339c-1.886 2-3.537 3.743-7.487 3.743-3.3 0-4.864-1.592-6.838-3.626-2.122-2.181-4.51-4.628-9.108-4.628-4.775 0-7.045 2.417-9.049 4.539-1.886 2-3.537 3.743-7.487 3.743-3.3 0-4.864-1.592-6.838-3.626-2.122-2.181-4.51-4.628-9.108-4.628-4.775 0-7.045 2.417-9.049 4.539-1.886 2-3.537 3.743-7.487 3.743-3.3 0-4.864-1.592-6.838-3.626-2.122-2.181-4.51-4.628-9.108-4.628-4.775 0-7.045 2.417-9.049 4.539-1.886 2-3.537 3.743-7.487 3.743-3.3 0-4.864-1.592-6.838-3.626C6.986 89.247 4.6 86.8 0 86.8v3.832c2.977 0 4.48 1.533 6.367 3.478 2.093 2.152 4.687 4.8 9.58 4.8 5.63 0 8.224-2.741 10.287-4.952 1.828-1.945 3.154-3.331 6.249-3.331 2.977 0 4.48 1.533 6.367 3.478 2.093 2.152 4.687 4.8 9.58 4.8 5.63 0 8.224-2.741 10.287-4.952 1.828-1.945 3.154-3.331 6.249-3.331 2.977 0 4.48 1.533 6.367 3.478 2.093 2.152 4.687 4.8 9.58 4.8 5.63 0 8.224-2.741 10.287-4.952 1.828-1.945 3.154-3.331 6.249-3.331 2.977 0 4.48 1.533 6.367 3.478 2.093 2.152 4.687 4.8 9.58 4.8 5.63 0 8.224-2.741 10.287-4.952 1.828-1.945 3.154-3.331 6.249-3.331V86.8c-4.718 0-6.988 2.417-8.992 4.539z" class="cls-3" data-name="패스 907" transform="translate(-37.995 -93.697)"/>
            <path id="패스_908" d="M121.081 134.81c-1.886 2-3.537 3.743-7.487 3.743-3.3 0-4.864-1.592-6.838-3.626-2.122-2.181-4.51-4.628-9.108-4.628-4.775 0-7.045 2.417-9.049 4.539-1.886 2-3.537 3.743-7.487 3.743-3.3 0-4.864-1.592-6.838-3.626-2.122-2.181-4.51-4.628-9.108-4.628-4.775 0-7.045 2.417-9.049 4.539-1.886 2-3.537 3.743-7.487 3.743-3.3 0-4.864-1.592-6.838-3.626-2.122-2.181-4.51-4.628-9.108-4.628-4.775 0-7.045 2.417-9.049 4.539-1.886 2-3.537 3.743-7.487 3.743-3.3 0-4.864-1.592-6.838-3.626-2.124-2.176-4.51-4.623-9.11-4.623v3.832c2.977 0 4.48 1.533 6.367 3.478 2.093 2.152 4.687 4.8 9.58 4.8 5.63 0 8.224-2.741 10.287-4.952 1.828-1.945 3.154-3.331 6.249-3.331 2.977 0 4.48 1.533 6.367 3.478 2.093 2.152 4.687 4.8 9.58 4.8 5.63 0 8.224-2.741 10.287-4.952 1.828-1.945 3.154-3.331 6.249-3.331 2.977 0 4.48 1.533 6.367 3.478 2.093 2.152 4.687 4.8 9.58 4.8 5.63 0 8.224-2.741 10.287-4.952 1.828-1.945 3.154-3.331 6.249-3.331 2.977 0 4.48 1.533 6.367 3.478 2.093 2.152 4.687 4.8 9.58 4.8 5.63 0 8.224-2.741 10.287-4.952 1.828-1.945 3.154-3.331 6.249-3.331v-3.832c-4.777-.097-7.047 2.32-9.051 4.442z" class="cls-3" data-name="패스 908" transform="translate(-38.136 -124.375)"/>
            <path id="패스_909" d="M121.081 178.21c-1.886 2-3.537 3.743-7.487 3.743-3.3 0-4.864-1.592-6.838-3.626-2.122-2.181-4.51-4.628-9.108-4.628-4.775 0-7.045 2.417-9.049 4.539-1.886 2-3.537 3.743-7.487 3.743-3.3 0-4.864-1.592-6.838-3.626-2.122-2.181-4.51-4.628-9.108-4.628-4.775 0-7.045 2.417-9.049 4.539-1.886 2-3.537 3.743-7.487 3.743-3.3 0-4.864-1.592-6.838-3.626-2.122-2.181-4.51-4.628-9.108-4.628-4.775 0-7.045 2.417-9.049 4.539-1.886 2-3.537 3.743-7.487 3.743-3.3 0-4.864-1.592-6.838-3.626-2.124-2.176-4.51-4.623-9.11-4.623v3.832c2.977 0 4.48 1.533 6.367 3.478 2.093 2.152 4.687 4.8 9.58 4.8 5.63 0 8.224-2.741 10.287-4.952 1.828-1.945 3.154-3.331 6.249-3.331 2.977 0 4.48 1.533 6.367 3.478 2.093 2.152 4.687 4.8 9.58 4.8 5.63 0 8.224-2.741 10.287-4.952 1.828-1.945 3.154-3.331 6.249-3.331 2.977 0 4.48 1.533 6.367 3.478 2.093 2.152 4.687 4.8 9.58 4.8 5.63 0 8.224-2.741 10.287-4.952 1.828-1.945 3.154-3.331 6.249-3.331 2.977 0 4.48 1.533 6.367 3.478 2.093 2.152 4.687 4.8 9.58 4.8 5.63 0 8.224-2.741 10.287-4.952 1.828-1.945 3.154-3.331 6.249-3.331v-3.832c-4.777-.097-7.047 2.32-9.051 4.442z" class="cls-3" data-name="패스 909" transform="translate(-38.136 -154.983)"/>
            <path id="패스_910" d="M120.94 221.539c-1.886 2-3.537 3.743-7.487 3.743-3.3 0-4.864-1.592-6.838-3.626-2.122-2.181-4.51-4.628-9.108-4.628-4.775 0-7.045 2.417-9.049 4.539-1.886 2-3.537 3.743-7.487 3.743-3.3 0-4.864-1.592-6.838-3.626-2.122-2.181-4.51-4.628-9.108-4.628-4.775 0-7.045 2.417-9.049 4.539-1.886 2-3.537 3.743-7.487 3.743-3.3 0-4.864-1.592-6.838-3.626-2.122-2.181-4.51-4.628-9.108-4.628-4.775 0-7.045 2.417-9.049 4.539-1.886 2-3.537 3.743-7.487 3.743-3.3 0-4.864-1.592-6.838-3.626C6.986 219.447 4.6 217 0 217v3.832c2.977 0 4.48 1.533 6.367 3.478 2.093 2.152 4.687 4.8 9.58 4.8 5.63 0 8.224-2.741 10.287-4.952 1.828-1.945 3.154-3.331 6.249-3.331 2.977 0 4.48 1.533 6.367 3.478 2.093 2.152 4.687 4.8 9.58 4.8 5.63 0 8.224-2.741 10.287-4.952 1.828-1.945 3.154-3.331 6.249-3.331 2.977 0 4.48 1.533 6.367 3.478 2.093 2.152 4.687 4.8 9.58 4.8 5.63 0 8.224-2.741 10.287-4.952 1.828-1.945 3.154-3.331 6.249-3.331 2.977 0 4.48 1.533 6.367 3.478 2.093 2.152 4.687 4.8 9.58 4.8 5.63 0 8.224-2.741 10.287-4.952 1.828-1.945 3.154-3.331 6.249-3.331V217c-4.718 0-6.988 2.417-8.992 4.539z" class="cls-3" data-name="패스 910" transform="translate(-37.995 -185.52)"/>
            <path id="패스_911" d="M121.081 265.01c-1.886 2-3.537 3.743-7.487 3.743-3.3 0-4.864-1.592-6.838-3.626-2.122-2.181-4.51-4.628-9.108-4.628-4.775 0-7.045 2.417-9.049 4.539-1.886 2-3.537 3.743-7.487 3.743-3.3 0-4.864-1.592-6.838-3.626-2.122-2.181-4.51-4.628-9.108-4.628-4.775 0-7.045 2.417-9.049 4.539-1.886 2-3.537 3.743-7.487 3.743-3.3 0-4.864-1.592-6.838-3.626-2.122-2.181-4.51-4.628-9.108-4.628-4.775 0-7.045 2.417-9.049 4.539-1.886 2-3.537 3.743-7.487 3.743-3.3 0-4.864-1.592-6.838-3.626-2.124-2.176-4.51-4.623-9.11-4.623v3.832c2.977 0 4.48 1.533 6.367 3.478 2.093 2.152 4.687 4.8 9.58 4.8 5.63 0 8.224-2.741 10.287-4.952 1.828-1.945 3.154-3.331 6.249-3.331 2.977 0 4.48 1.533 6.367 3.478 2.093 2.152 4.687 4.8 9.58 4.8 5.63 0 8.224-2.741 10.287-4.952 1.828-1.945 3.154-3.331 6.249-3.331 2.977 0 4.48 1.533 6.367 3.478 2.093 2.152 4.687 4.8 9.58 4.8 5.63 0 8.224-2.741 10.287-4.952 1.828-1.945 3.154-3.331 6.249-3.331 2.977 0 4.48 1.533 6.367 3.478 2.093 2.152 4.687 4.8 9.58 4.8 5.63 0 8.224-2.741 10.287-4.952 1.828-1.945 3.154-3.331 6.249-3.331v-3.832c-4.777-.097-7.047 2.29-9.051 4.442z" class="cls-3" data-name="패스 911" transform="translate(-38.136 -216.198)"/>
            <path id="패스_912" d="M121.081 308.41c-1.886 2-3.537 3.743-7.487 3.743-3.3 0-4.864-1.592-6.838-3.626-2.122-2.181-4.51-4.628-9.108-4.628-4.775 0-7.045 2.417-9.049 4.539-1.886 2-3.537 3.743-7.487 3.743-3.3 0-4.864-1.592-6.838-3.626-2.122-2.181-4.51-4.628-9.108-4.628-4.775 0-7.045 2.417-9.049 4.539-1.886 2-3.537 3.743-7.487 3.743-3.3 0-4.864-1.592-6.838-3.626-2.122-2.181-4.51-4.628-9.108-4.628-4.775 0-7.045 2.417-9.049 4.539-1.886 2-3.537 3.743-7.487 3.743-3.3 0-4.864-1.592-6.838-3.626-2.124-2.176-4.51-4.623-9.11-4.623v3.832c2.977 0 4.48 1.533 6.367 3.478 2.093 2.152 4.687 4.8 9.58 4.8 5.63 0 8.224-2.741 10.287-4.952 1.828-1.945 3.154-3.331 6.249-3.331 2.977 0 4.48 1.533 6.367 3.478 2.093 2.152 4.687 4.8 9.58 4.8 5.63 0 8.224-2.741 10.287-4.952 1.828-1.945 3.154-3.331 6.249-3.331 2.977 0 4.48 1.533 6.367 3.478 2.093 2.152 4.687 4.8 9.58 4.8 5.63 0 8.224-2.741 10.287-4.952 1.828-1.945 3.154-3.331 6.249-3.331 2.977 0 4.48 1.533 6.367 3.478 2.093 2.152 4.687 4.8 9.58 4.8 5.63 0 8.224-2.741 10.287-4.952 1.828-1.945 3.154-3.331 6.249-3.331v-3.832c-4.777-.097-7.047 2.29-9.051 4.442z" class="cls-3" data-name="패스 912" transform="translate(-38.136 -246.805)"/>
            <path id="패스_913" d="M121.081 351.71c-1.886 2-3.537 3.743-7.487 3.743-3.3 0-4.864-1.592-6.838-3.626-2.122-2.181-4.51-4.628-9.108-4.628-4.775 0-7.045 2.417-9.049 4.539-1.886 2-3.537 3.743-7.487 3.743-3.3 0-4.864-1.592-6.838-3.626-2.122-2.181-4.51-4.628-9.108-4.628-4.775 0-7.045 2.417-9.049 4.539-1.886 2-3.537 3.743-7.487 3.743-3.3 0-4.864-1.592-6.838-3.626-2.122-2.181-4.51-4.628-9.108-4.628-4.775 0-7.045 2.417-9.049 4.539-1.886 2-3.537 3.743-7.487 3.743-3.3 0-4.864-1.592-6.838-3.626-2.124-2.176-4.51-4.623-9.11-4.623v3.832c2.977 0 4.48 1.533 6.367 3.478 2.093 2.152 4.687 4.8 9.58 4.8 5.63 0 8.224-2.741 10.287-4.952 1.828-1.945 3.154-3.331 6.249-3.331 2.977 0 4.48 1.533 6.367 3.478 2.093 2.152 4.687 4.8 9.58 4.8 5.63 0 8.224-2.741 10.287-4.952 1.828-1.945 3.154-3.331 6.249-3.331 2.977 0 4.48 1.533 6.367 3.478 2.093 2.152 4.687 4.8 9.58 4.8 5.63 0 8.224-2.741 10.287-4.952 1.828-1.945 3.154-3.331 6.249-3.331 2.977 0 4.48 1.533 6.367 3.478 2.093 2.152 4.687 4.8 9.58 4.8 5.63 0 8.224-2.741 10.287-4.952 1.828-1.945 3.154-3.331 6.249-3.331v-3.832c-4.777-.068-7.047 2.32-9.051 4.442z" class="cls-3" data-name="패스 913" transform="translate(-38.136 -277.342)"/>
            <path id="패스_914" d="M121.081 395.11c-1.886 2-3.537 3.743-7.487 3.743-3.3 0-4.864-1.592-6.838-3.626-2.122-2.181-4.51-4.628-9.108-4.628-4.775 0-7.045 2.417-9.049 4.539-1.886 2-3.537 3.743-7.487 3.743-3.3 0-4.864-1.592-6.838-3.626-2.122-2.181-4.51-4.628-9.108-4.628-4.775 0-7.045 2.417-9.049 4.539-1.886 2-3.537 3.743-7.487 3.743-3.3 0-4.864-1.592-6.838-3.626-2.122-2.181-4.51-4.628-9.108-4.628-4.775 0-7.045 2.417-9.049 4.539-1.886 2-3.537 3.743-7.487 3.743-3.3 0-4.864-1.592-6.838-3.626-2.124-2.176-4.51-4.623-9.11-4.623v3.832c2.977 0 4.48 1.533 6.367 3.478 2.093 2.152 4.687 4.8 9.58 4.8 5.63 0 8.224-2.741 10.287-4.952 1.828-1.945 3.154-3.331 6.249-3.331 2.977 0 4.48 1.533 6.367 3.478 2.093 2.152 4.687 4.8 9.58 4.8 5.63 0 8.224-2.741 10.287-4.952 1.828-1.945 3.154-3.331 6.249-3.331 2.977 0 4.48 1.533 6.367 3.478 2.093 2.152 4.687 4.8 9.58 4.8 5.63 0 8.224-2.741 10.287-4.952 1.828-1.945 3.154-3.331 6.249-3.331 2.977 0 4.48 1.533 6.367 3.478 2.093 2.152 4.687 4.8 9.58 4.8 5.63 0 8.224-2.741 10.287-4.952 1.828-1.945 3.154-3.331 6.249-3.331v-3.832c-4.777-.068-7.047 2.32-9.051 4.442z" class="cls-3" data-name="패스 914" transform="translate(-38.136 -307.949)"/>
        </g>
    </g>
</svg>
