<svg xmlns="http://www.w3.org/2000/svg" viewBox="0 0 54 54">
    <defs>
        <style>
            .cls-1{fill:#ffc017}.cls-2{clip-path:url(#clip-path)}.cls-3{fill:#fff}
        </style>
        <clipPath id="clip-path">
            <circle id="타원_465" cx="27" cy="27" r="27" data-name="타원 465"/>
        </clipPath>
    </defs>
    <g id="icon_node_vd_06" transform="translate(-34.2 -22.4)">
        <circle id="타원_464" cx="27" cy="27" r="27" class="cls-1" data-name="타원 464" transform="translate(34.2 22.4)"/>
        <g id="그룹_1105" class="cls-2" data-name="그룹 1105" transform="translate(34.2 22.4)">
            <g id="그룹_1032" data-name="그룹 1032" transform="translate(21.871 21.746)">
                <g id="그룹_1030" data-name="그룹 1030">
                    <path id="패스_660" d="M118.69 106.2l-.295.295a.73.73 0 0 1-1 0l-7.369-7.369a.73.73 0 0 1 0-1l.295-.295a.73.73 0 0 1 1 0l7.369 7.369a.73.73 0 0 1 0 1z" class="cls-3" data-name="패스 660" transform="translate(-109.405 -97.198)"/>
                    <path id="패스_661" d="M116.889 106.086a1.139 1.139 0 0 1-.8-.324l-7.369-7.369a1.139 1.139 0 0 1 0-1.592l.295-.295a1.156 1.156 0 0 1 1.621 0l7.369 7.369a1.156 1.156 0 0 1 0 1.621l-.295.295a1.341 1.341 0 0 1-.821.295zm-7.074-9.049a.21.21 0 0 0-.177.088l-.295.295a.255.255 0 0 0-.088.177.21.21 0 0 0 .088.177l7.369 7.369a.269.269 0 0 0 .354 0l.295-.295a.269.269 0 0 0 0-.354l-7.369-7.369a.255.255 0 0 0-.177-.088z" class="cls-3" data-name="패스 661" transform="translate(-108.4 -96.175)"/>
                </g>
                <g id="그룹_1031" data-name="그룹 1031">
                    <path id="패스_662" d="M110.024 106.2l.295.295a.73.73 0 0 0 1 0l7.369-7.369a.73.73 0 0 0 0-1l-.295-.295a.73.73 0 0 0-1 0l-7.369 7.369a.73.73 0 0 0 0 1z" class="cls-3" data-name="패스 662" transform="translate(-109.405 -97.198)"/>
                    <path id="패스_663" d="M109.815 106.086a1.139 1.139 0 0 1-.8-.324l-.295-.295a1.139 1.139 0 0 1 0-1.592l7.369-7.369a1.156 1.156 0 0 1 1.621 0l.295.295a1.156 1.156 0 0 1 0 1.621l-7.369 7.369a1.409 1.409 0 0 1-.821.295zm7.074-9.049a.21.21 0 0 0-.177.088l-7.369 7.369a.255.255 0 0 0-.088.177.21.21 0 0 0 .088.177l.295.295a.269.269 0 0 0 .354 0l7.369-7.369a.269.269 0 0 0 0-.354l-.295-.295a.178.178 0 0 0-.177-.088z" class="cls-3" data-name="패스 663" transform="translate(-108.4 -96.175)"/>
                </g>
            </g>
            <g id="그룹_1035" data-name="그룹 1035" transform="translate(5.888 21.716)">
                <g id="그룹_1033" data-name="그룹 1033" transform="translate(.029)">
                    <path id="패스_664" d="M64.49 106.2l-.295.295a.73.73 0 0 1-1 0l-7.369-7.369a.73.73 0 0 1 0-1l.295-.295a.73.73 0 0 1 1 0l7.369 7.369a.73.73 0 0 1 0 1z" class="cls-3" data-name="패스 664" transform="translate(-55.227 -97.168)"/>
                    <path id="패스_665" d="M62.771 106.016a1.139 1.139 0 0 1-.8-.324l-7.369-7.369a1.157 1.157 0 0 1 0-1.621l.295-.295a1.157 1.157 0 0 1 1.621 0l7.369 7.369a1.139 1.139 0 0 1 0 1.592l-.295.295a1.164 1.164 0 0 1-.821.353zm-7.1-9.049a.21.21 0 0 0-.177.088l-.295.295a.269.269 0 0 0 0 .354l7.369 7.369a.269.269 0 0 0 .354 0l.295-.295a.255.255 0 0 0 .088-.177.21.21 0 0 0-.088-.177l-7.369-7.369a.21.21 0 0 0-.18-.088z" class="cls-3" data-name="패스 665" transform="translate(-54.275 -96.075)"/>
                </g>
                <g id="그룹_1034" data-name="그룹 1034">
                    <path id="패스_666" d="M55.871 106.2l.295.295a.73.73 0 0 0 1 0l7.369-7.369a.73.73 0 0 0 0-1l-.295-.295a.73.73 0 0 0-1 0l-7.369 7.369a.678.678 0 0 0 0 1z" class="cls-3" data-name="패스 666" transform="translate(-55.215 -97.168)"/>
                    <path id="패스_667" d="M55.6 106.016a1.139 1.139 0 0 1-.8-.324l-.295-.295a1.156 1.156 0 0 1 0-1.621l7.369-7.369a1.157 1.157 0 0 1 1.621 0l.295.295a1.139 1.139 0 0 1 0 1.592l-7.369 7.369a1.164 1.164 0 0 1-.821.353zm-.472-1.238l.295.295a.269.269 0 0 0 .354 0l7.366-7.373a.255.255 0 0 0 .088-.177.21.21 0 0 0-.088-.177l-.295-.295a.269.269 0 0 0-.354 0l-7.369 7.369a.269.269 0 0 0 .001.358z" class="cls-3" data-name="패스 667" transform="translate(-54.175 -96.075)"/>
                </g>
            </g>
            <g id="그룹_1038" data-name="그룹 1038" transform="translate(-10.081 21.716)">
                <g id="그룹_1036" data-name="그룹 1036">
                    <path id="패스_668" d="M10.29 106.2l-.29.29a.73.73 0 0 1-1 0l-7.376-7.369a.73.73 0 0 1 0-1l.295-.295a.73.73 0 0 1 1 0l7.369 7.369a.678.678 0 0 1 .002 1.005z" class="cls-3" data-name="패스 668" transform="translate(-1.005 -97.168)"/>
                    <path id="패스_669" d="M8.519 106.016a1.139 1.139 0 0 1-.8-.324L.354 98.323A1.115 1.115 0 0 1 0 97.5a1.088 1.088 0 0 1 .324-.8l.295-.295a1.157 1.157 0 0 1 1.621 0l7.369 7.369a1.139 1.139 0 0 1 0 1.592l-.295.295a1.053 1.053 0 0 1-.795.355zm-7.1-9.049a.21.21 0 0 0-.177.088l-.295.295a.255.255 0 0 0-.088.177.21.21 0 0 0 .088.177l7.369 7.369a.269.269 0 0 0 .354 0l.295-.295a.255.255 0 0 0 .088-.177.21.21 0 0 0-.088-.177l-7.373-7.369a.178.178 0 0 0-.177-.088z" class="cls-3" data-name="패스 669" transform="translate(0 -96.075)"/>
                </g>
                <g id="그룹_1037" data-name="그룹 1037" transform="translate(0 .029)">
                    <path id="패스_670" d="M1.724 106.2l.295.295a.73.73 0 0 0 1 0l7.369-7.369a.73.73 0 0 0 0-1l-.295-.295a.73.73 0 0 0-1 0L1.724 105.2a.73.73 0 0 0 0 1z" class="cls-3" data-name="패스 670" transform="translate(-1.075 -97.198)"/>
                    <path id="패스_671" d="M1.415 106.086a1.139 1.139 0 0 1-.8-.324l-.295-.295a1.139 1.139 0 0 1 0-1.592l7.369-7.369a1.157 1.157 0 0 1 1.621 0l.295.295a1.139 1.139 0 0 1 0 1.592l-7.365 7.369a1.21 1.21 0 0 1-.825.324zm7.1-9.049a.21.21 0 0 0-.177.088l-7.365 7.37a.221.221 0 0 0 0 .354l.295.295a.269.269 0 0 0 .354 0l7.368-7.37a.255.255 0 0 0 .088-.177.21.21 0 0 0-.088-.177l-.29-.294a.255.255 0 0 0-.181-.089z" class="cls-3" data-name="패스 671" transform="translate(0 -96.175)"/>
                </g>
            </g>
            <g id="그룹_1041" data-name="그룹 1041" transform="translate(53.794 21.746)">
                <g id="그룹_1039" data-name="그룹 1039" transform="translate(.029)">
                    <path id="패스_672" d="M226.99 106.2l-.295.295a.73.73 0 0 1-1 0l-7.369-7.369a.73.73 0 0 1 0-1l.295-.295a.73.73 0 0 1 1 0l7.369 7.369a.73.73 0 0 1 0 1z" class="cls-3" data-name="패스 672" transform="translate(-217.734 -97.198)"/>
                    <path id="패스_673" d="M225.289 106.086a1.139 1.139 0 0 1-.8-.324l-7.369-7.369a1.139 1.139 0 0 1 0-1.592l.295-.295a1.156 1.156 0 0 1 1.621 0l7.369 7.369a1.139 1.139 0 0 1 0 1.592l-.295.295a1.267 1.267 0 0 1-.821.324zm-7.1-9.049a.21.21 0 0 0-.177.088l-.295.295a.255.255 0 0 0-.088.177.21.21 0 0 0 .088.177l7.369 7.369a.269.269 0 0 0 .354 0l.295-.295a.255.255 0 0 0 .088-.177.21.21 0 0 0-.088-.177l-7.369-7.369a.178.178 0 0 0-.181-.088z" class="cls-3" data-name="패스 673" transform="translate(-216.8 -96.175)"/>
                </g>
                <g id="그룹_1040" data-name="그룹 1040">
                    <path id="패스_674" d="M218.371 106.2l.295.295a.73.73 0 0 0 1 0l7.369-7.369a.73.73 0 0 0 0-1l-.295-.295a.73.73 0 0 0-1 0l-7.369 7.369a.678.678 0 0 0 0 1z" class="cls-3" data-name="패스 674" transform="translate(-217.723 -97.198)"/>
                    <path id="패스_675" d="M218.115 106.086a1.139 1.139 0 0 1-.8-.324l-.295-.295a1.139 1.139 0 0 1 0-1.592l7.369-7.369a1.156 1.156 0 0 1 1.621 0l.295.295a1.139 1.139 0 0 1 0 1.592l-7.369 7.369a1.21 1.21 0 0 1-.821.324zm7.1-9.049a.21.21 0 0 0-.177.088l-7.369 7.369a.255.255 0 0 0-.088.177.21.21 0 0 0 .088.177l.295.295a.269.269 0 0 0 .354 0l7.369-7.369a.255.255 0 0 0 .088-.177.21.21 0 0 0-.088-.177l-.295-.295a.255.255 0 0 0-.173-.088z" class="cls-3" data-name="패스 675" transform="translate(-216.7 -96.175)"/>
                </g>
            </g>
            <g id="그룹_1044" data-name="그룹 1044" transform="translate(37.818 21.746)">
                <g id="그룹_1042" data-name="그룹 1042" transform="translate(.029)">
                    <path id="패스_676" d="M172.79 106.2l-.295.295a.73.73 0 0 1-1 0l-7.369-7.369a.73.73 0 0 1 0-1l.295-.295a.73.73 0 0 1 1 0l7.369 7.369a.678.678 0 0 1 0 1z" class="cls-3" data-name="패스 676" transform="translate(-163.534 -97.198)"/>
                    <path id="패스_677" d="M171.089 106.086a1.139 1.139 0 0 1-.8-.324l-7.369-7.369a1.139 1.139 0 0 1 0-1.592l.295-.295a1.157 1.157 0 0 1 1.621 0l7.369 7.369a1.139 1.139 0 0 1 0 1.592l-.295.295a1.267 1.267 0 0 1-.821.324zm-7.1-9.049a.21.21 0 0 0-.177.088l-.295.295a.255.255 0 0 0-.088.177.21.21 0 0 0 .088.177l7.369 7.369a.269.269 0 0 0 .354 0l.295-.295a.255.255 0 0 0 .088-.177.21.21 0 0 0-.088-.177l-7.369-7.369a.178.178 0 0 0-.181-.088z" class="cls-3" data-name="패스 677" transform="translate(-162.6 -96.175)"/>
                </g>
                <g id="그룹_1043" data-name="그룹 1043">
                    <path id="패스_678" d="M164.224 106.2l.295.295a.73.73 0 0 0 1 0l7.369-7.369a.73.73 0 0 0 0-1l-.295-.295a.73.73 0 0 0-1 0l-7.369 7.369a.73.73 0 0 0 0 1z" class="cls-3" data-name="패스 678" transform="translate(-163.575 -97.198)"/>
                    <path id="패스_679" d="M163.915 106.086a1.139 1.139 0 0 1-.8-.324l-.295-.295a1.139 1.139 0 0 1 0-1.592l7.369-7.369a1.157 1.157 0 0 1 1.621 0l.295.295a1.139 1.139 0 0 1 0 1.592l-7.369 7.369a1.158 1.158 0 0 1-.821.324zm7.1-9.049a.21.21 0 0 0-.177.088l-7.369 7.369a.255.255 0 0 0-.088.177.21.21 0 0 0 .088.177l.295.295a.269.269 0 0 0 .354 0l7.369-7.369a.255.255 0 0 0 .088-.177.21.21 0 0 0-.088-.177l-.295-.295a.21.21 0 0 0-.173-.088z" class="cls-3" data-name="패스 679" transform="translate(-162.5 -96.175)"/>
                </g>
            </g>
            <g id="그룹_1047" data-name="그룹 1047" transform="translate(30.095 7.597)">
                <g id="그룹_1045" data-name="그룹 1045">
                    <path id="패스_680" d="M146.59 58.1l-.295.295a.73.73 0 0 1-1 0l-7.369-7.369a.73.73 0 0 1 0-1l.295-.295a.73.73 0 0 1 1 0l7.369 7.369a.73.73 0 0 1 0 1z" class="cls-3" data-name="패스 680" transform="translate(-137.305 -49.127)"/>
                    <path id="패스_681" d="M144.789 58.086a1.139 1.139 0 0 1-.8-.324l-7.369-7.369a1.139 1.139 0 0 1 0-1.592l.295-.295a1.157 1.157 0 0 1 1.621 0l7.369 7.369a1.139 1.139 0 0 1 0 1.592l-.295.295a1.21 1.21 0 0 1-.821.324zm-7.074-9.079a.21.21 0 0 0-.177.088l-.295.295a.255.255 0 0 0-.088.177.21.21 0 0 0 .088.177l7.369 7.369a.269.269 0 0 0 .354 0l.295-.295a.255.255 0 0 0 .088-.177.21.21 0 0 0-.088-.177l-7.369-7.364a.255.255 0 0 0-.177-.092z" class="cls-3" data-name="패스 681" transform="translate(-136.3 -48.175)"/>
                </g>
                <g id="그룹_1046" data-name="그룹 1046">
                    <path id="패스_682" d="M137.924 58.1l.295.295a.73.73 0 0 0 1 0l7.369-7.369a.73.73 0 0 0 0-1l-.295-.295a.73.73 0 0 0-1 0l-7.369 7.369a.73.73 0 0 0 0 1z" class="cls-3" data-name="패스 682" transform="translate(-137.305 -49.127)"/>
                    <path id="패스_683" d="M137.715 58.086a1.139 1.139 0 0 1-.8-.324l-.295-.295a1.139 1.139 0 0 1 0-1.592l7.369-7.369a1.157 1.157 0 0 1 1.621 0l.295.295a1.139 1.139 0 0 1 0 1.592l-7.369 7.369a1.267 1.267 0 0 1-.821.324zm7.074-9.079a.21.21 0 0 0-.177.088l-7.369 7.369a.255.255 0 0 0-.088.177.21.21 0 0 0 .088.177l.295.295a.269.269 0 0 0 .354 0l7.369-7.369a.255.255 0 0 0 .088-.177.21.21 0 0 0-.088-.177l-.295-.295a.178.178 0 0 0-.177-.087z" class="cls-3" data-name="패스 683" transform="translate(-136.3 -48.175)"/>
                </g>
            </g>
            <g id="그룹_1050" data-name="그룹 1050" transform="translate(14.119 7.597)">
                <g id="그룹_1048" data-name="그룹 1048" transform="translate(.029)">
                    <path id="패스_684" d="M92.39 58.1l-.295.295a.73.73 0 0 1-1 0l-7.369-7.369a.73.73 0 0 1 0-1l.295-.295a.73.73 0 0 1 1 0L92.39 57.1a.73.73 0 0 1 0 1z" class="cls-3" data-name="패스 684" transform="translate(-83.134 -49.127)"/>
                    <path id="패스_685" d="M90.689 58.086a1.139 1.139 0 0 1-.8-.324l-7.369-7.369a1.139 1.139 0 0 1 0-1.592l.295-.295a1.157 1.157 0 0 1 1.621 0l7.369 7.369a1.157 1.157 0 0 1 0 1.621l-.295.295a1.409 1.409 0 0 1-.821.295zm-7.1-9.079a.21.21 0 0 0-.177.088l-.295.295a.255.255 0 0 0-.088.177.21.21 0 0 0 .088.177l7.369 7.369a.269.269 0 0 0 .354 0l.295-.295a.269.269 0 0 0 0-.354L83.762 49.1a.21.21 0 0 0-.177-.092z" class="cls-3" data-name="패스 685" transform="translate(-82.2 -48.175)"/>
                </g>
                <g id="그룹_1049" data-name="그룹 1049">
                    <path id="패스_686" d="M83.771 58.1l.295.295a.73.73 0 0 0 1 0l7.369-7.369a.73.73 0 0 0 0-1l-.295-.295a.73.73 0 0 0-1 0L83.771 57.1a.678.678 0 0 0 0 1z" class="cls-3" data-name="패스 686" transform="translate(-83.123 -49.127)"/>
                    <path id="패스_687" d="M83.515 58.086a1.139 1.139 0 0 1-.8-.324l-.295-.295a1.139 1.139 0 0 1 0-1.592l7.369-7.369a1.157 1.157 0 0 1 1.621 0l.295.295a1.157 1.157 0 0 1 0 1.621l-7.365 7.37a1.409 1.409 0 0 1-.825.294zm7.1-9.079a.21.21 0 0 0-.177.088l-7.369 7.369a.255.255 0 0 0-.088.177.21.21 0 0 0 .088.177l.295.295a.269.269 0 0 0 .354 0l7.369-7.369a.269.269 0 0 0 0-.354l-.287-.29a.255.255 0 0 0-.181-.092z" class="cls-3" data-name="패스 687" transform="translate(-82.1 -48.175)"/>
                </g>
            </g>
            <g id="그룹_1053" data-name="그룹 1053" transform="translate(-1.864 7.568)">
                <g id="그룹_1051" data-name="그룹 1051" transform="translate(.029)">
                    <path id="패스_688" d="M38.19 58.1l-.295.295a.73.73 0 0 1-1 0l-7.369-7.369a.73.73 0 0 1 0-1l.295-.295a.73.73 0 0 1 1 0L38.19 57.1a.678.678 0 0 1 0 1z" class="cls-3" data-name="패스 688" transform="translate(-28.927 -49.098)"/>
                    <path id="패스_689" d="M36.471 58.016a1.139 1.139 0 0 1-.8-.324l-7.369-7.369a1.157 1.157 0 0 1 0-1.621l.295-.295a1.157 1.157 0 0 1 1.621 0l7.369 7.369a1.139 1.139 0 0 1 0 1.592l-.295.295a1.164 1.164 0 0 1-.821.353zm-7.1-9.079a.21.21 0 0 0-.177.088l-.295.295a.269.269 0 0 0 0 .354l7.369 7.369a.269.269 0 0 0 .354 0l.295-.295a.255.255 0 0 0 .083-.177.21.21 0 0 0-.088-.177l-7.369-7.369a.178.178 0 0 0-.175-.088z" class="cls-3" data-name="패스 689" transform="translate(-27.975 -48.075)"/>
                </g>
                <g id="그룹_1052" data-name="그룹 1052">
                    <path id="패스_690" d="M29.624 58.1l.295.295a.73.73 0 0 0 1 0l7.369-7.369a.73.73 0 0 0 0-1L38 49.724a.73.73 0 0 0-1 0l-7.369 7.369a.73.73 0 0 0-.007 1.007z" class="cls-3" data-name="패스 690" transform="translate(-28.968 -49.098)"/>
                    <path id="패스_691" d="M29.3 58.016a1.139 1.139 0 0 1-.8-.324l-.295-.295a1.157 1.157 0 0 1 0-1.621l7.369-7.369a1.157 1.157 0 0 1 1.621 0l.295.295a1.139 1.139 0 0 1 0 1.592l-7.369 7.369a1.115 1.115 0 0 1-.821.353zm-.442-1.238l.295.295a.269.269 0 0 0 .354 0l7.366-7.373a.255.255 0 0 0 .088-.177.21.21 0 0 0-.088-.177l-.295-.295a.269.269 0 0 0-.354 0l-7.369 7.369a.221.221 0 0 0 0 .358z" class="cls-3" data-name="패스 691" transform="translate(-27.875 -48.075)"/>
                </g>
            </g>
            <g id="그룹_1056" data-name="그룹 1056" transform="translate(62.01 7.568)">
                <g id="그룹_1054" data-name="그룹 1054" transform="translate(.029)">
                    <path id="패스_692" d="M254.89 58.1l-.295.295a.73.73 0 0 1-1 0l-7.369-7.369a.73.73 0 0 1 0-1l.295-.295a.73.73 0 0 1 1 0l7.369 7.369a.73.73 0 0 1 0 1z" class="cls-3" data-name="패스 692" transform="translate(-245.627 -49.098)"/>
                    <path id="패스_693" d="M253.171 58.016a1.139 1.139 0 0 1-.8-.324l-7.369-7.369a1.156 1.156 0 0 1 0-1.621l.295-.295a1.157 1.157 0 0 1 1.621 0l7.369 7.369a1.139 1.139 0 0 1 0 1.592l-.295.295a1.164 1.164 0 0 1-.821.353zm-7.1-9.079a.21.21 0 0 0-.177.088l-.295.295a.269.269 0 0 0 0 .354l7.369 7.369a.269.269 0 0 0 .354 0l.295-.295a.255.255 0 0 0 .088-.177.21.21 0 0 0-.088-.177l-7.369-7.369a.21.21 0 0 0-.18-.088z" class="cls-3" data-name="패스 693" transform="translate(-244.675 -48.075)"/>
                </g>
                <g id="그룹_1055" data-name="그룹 1055">
                    <path id="패스_694" d="M246.271 58.1l.295.295a.73.73 0 0 0 1 0l7.369-7.369a.73.73 0 0 0 0-1l-.295-.295a.73.73 0 0 0-1 0l-7.369 7.369a.678.678 0 0 0 0 1z" class="cls-3" data-name="패스 694" transform="translate(-245.615 -49.098)"/>
                    <path id="패스_695" d="M246 58.016a1.139 1.139 0 0 1-.8-.324l-.295-.295a1.157 1.157 0 0 1 0-1.621l7.369-7.369a1.157 1.157 0 0 1 1.621 0l.295.295a1.139 1.139 0 0 1 0 1.592l-7.369 7.369a1.164 1.164 0 0 1-.821.353zm-.472-1.238l.295.295a.269.269 0 0 0 .354 0l7.369-7.369a.255.255 0 0 0 .088-.177.21.21 0 0 0-.088-.177l-.295-.295a.269.269 0 0 0-.354 0l-7.369 7.369a.268.268 0 0 0-.002.354z" class="cls-3" data-name="패스 695" transform="translate(-244.575 -48.075)"/>
                </g>
            </g>
            <g id="그룹_1059" data-name="그룹 1059" transform="translate(46.041 7.597)">
                <g id="그룹_1057" data-name="그룹 1057" transform="translate(.029)">
                    <path id="패스_696" d="M200.69 58.1l-.295.295a.73.73 0 0 1-1 0l-7.369-7.369a.73.73 0 0 1 0-1l.295-.295a.73.73 0 0 1 1 0l7.369 7.369a.678.678 0 0 1 0 1z" class="cls-3" data-name="패스 696" transform="translate(-191.434 -49.127)"/>
                    <path id="패스_697" d="M198.989 58.086a1.139 1.139 0 0 1-.8-.324l-7.369-7.369a1.139 1.139 0 0 1 0-1.592l.295-.295a1.157 1.157 0 0 1 1.621 0l7.369 7.369a1.139 1.139 0 0 1 0 1.592l-.295.295a1.267 1.267 0 0 1-.821.324zm-7.1-9.079a.21.21 0 0 0-.177.088l-.295.295a.255.255 0 0 0-.088.177.21.21 0 0 0 .088.177l7.369 7.369a.269.269 0 0 0 .354 0l.295-.295a.255.255 0 0 0 .088-.177.21.21 0 0 0-.088-.177l-7.373-7.364a.178.178 0 0 0-.177-.092z" class="cls-3" data-name="패스 697" transform="translate(-190.5 -48.175)"/>
                </g>
                <g id="그룹_1058" data-name="그룹 1058">
                    <path id="패스_698" d="M192.124 58.1l.295.295a.73.73 0 0 0 1 0l7.369-7.369a.73.73 0 0 0 0-1l-.295-.295a.73.73 0 0 0-1 0l-7.369 7.369a.73.73 0 0 0 0 1z" class="cls-3" data-name="패스 698" transform="translate(-191.475 -49.127)"/>
                    <path id="패스_699" d="M191.815 58.086a1.139 1.139 0 0 1-.8-.324l-.295-.295a1.139 1.139 0 0 1 0-1.592l7.369-7.369a1.157 1.157 0 0 1 1.621 0l.295.295a1.139 1.139 0 0 1 0 1.592l-7.369 7.369a1.158 1.158 0 0 1-.821.324zm7.1-9.079a.21.21 0 0 0-.177.088l-7.369 7.369a.255.255 0 0 0-.088.177.21.21 0 0 0 .088.177l.295.295a.269.269 0 0 0 .354 0l7.369-7.369a.255.255 0 0 0 .088-.177.21.21 0 0 0-.088-.177l-.287-.29a.21.21 0 0 0-.181-.092z" class="cls-3" data-name="패스 699" transform="translate(-190.4 -48.175)"/>
                </g>
            </g>
            <g id="그룹_1062" data-name="그룹 1062" transform="translate(21.871 50.072)">
                <g id="그룹_1060" data-name="그룹 1060">
                    <path id="패스_700" d="M118.69 202.3l-.295.295a.73.73 0 0 1-1 0l-7.369-7.369a.73.73 0 0 1 0-1l.295-.295a.73.73 0 0 1 1 0l7.369 7.369a.73.73 0 0 1 0 1z" class="cls-3" data-name="패스 700" transform="translate(-109.405 -193.298)"/>
                    <path id="패스_701" d="M116.889 202.186a1.139 1.139 0 0 1-.8-.324l-7.369-7.369a1.139 1.139 0 0 1 0-1.592l.295-.295a1.157 1.157 0 0 1 1.621 0l7.369 7.369a1.157 1.157 0 0 1 0 1.621l-.295.295a1.34 1.34 0 0 1-.821.295zm-7.074-9.049a.21.21 0 0 0-.177.088l-.295.295a.255.255 0 0 0-.088.177.21.21 0 0 0 .088.177l7.369 7.369a.269.269 0 0 0 .354 0l.295-.295a.269.269 0 0 0 0-.354l-7.369-7.369a.255.255 0 0 0-.177-.088z" class="cls-3" data-name="패스 701" transform="translate(-108.4 -192.275)"/>
                </g>
                <g id="그룹_1061" data-name="그룹 1061">
                    <path id="패스_702" d="M110.024 202.3l.295.295a.73.73 0 0 0 1 0l7.369-7.369a.73.73 0 0 0 0-1l-.295-.295a.73.73 0 0 0-1 0l-7.369 7.369a.73.73 0 0 0 0 1z" class="cls-3" data-name="패스 702" transform="translate(-109.405 -193.298)"/>
                    <path id="패스_703" d="M109.815 202.186a1.139 1.139 0 0 1-.8-.324l-.295-.295a1.139 1.139 0 0 1 0-1.592l7.369-7.369a1.157 1.157 0 0 1 1.621 0l.295.295a1.157 1.157 0 0 1 0 1.621l-7.369 7.369a1.408 1.408 0 0 1-.821.295zm7.074-9.049a.21.21 0 0 0-.177.088l-7.369 7.369a.255.255 0 0 0-.088.177.21.21 0 0 0 .088.177l.295.295a.269.269 0 0 0 .354 0l7.369-7.369a.269.269 0 0 0 0-.354l-.295-.295a.178.178 0 0 0-.177-.088z" class="cls-3" data-name="패스 703" transform="translate(-108.4 -192.275)"/>
                </g>
            </g>
            <g id="그룹_1065" data-name="그룹 1065" transform="translate(5.888 50.043)">
                <g id="그룹_1063" data-name="그룹 1063" transform="translate(.029)">
                    <path id="패스_704" d="M64.49 202.3l-.295.295a.73.73 0 0 1-1 0l-7.369-7.369a.73.73 0 0 1 0-1l.295-.295a.73.73 0 0 1 1 0l7.369 7.369a.73.73 0 0 1 0 1z" class="cls-3" data-name="패스 704" transform="translate(-55.227 -193.268)"/>
                    <path id="패스_705" d="M62.771 202.116a1.139 1.139 0 0 1-.8-.324l-7.369-7.369a1.157 1.157 0 0 1 0-1.621l.295-.295a1.157 1.157 0 0 1 1.621 0l7.369 7.369a1.139 1.139 0 0 1 0 1.592l-.295.295a1.216 1.216 0 0 1-.821.353zm-7.1-9.049a.21.21 0 0 0-.177.088l-.295.295a.269.269 0 0 0 0 .354l7.369 7.369a.269.269 0 0 0 .354 0l.295-.295a.255.255 0 0 0 .088-.177.21.21 0 0 0-.088-.177l-7.369-7.369a.21.21 0 0 0-.18-.088z" class="cls-3" data-name="패스 705" transform="translate(-54.275 -192.175)"/>
                </g>
                <g id="그룹_1064" data-name="그룹 1064">
                    <path id="패스_706" d="M55.871 202.3l.295.295a.73.73 0 0 0 1 0l7.369-7.369a.73.73 0 0 0 0-1l-.295-.295a.73.73 0 0 0-1 0l-7.369 7.369a.678.678 0 0 0 0 1z" class="cls-3" data-name="패스 706" transform="translate(-55.215 -193.268)"/>
                    <path id="패스_707" d="M55.6 202.116a1.139 1.139 0 0 1-.8-.324l-.295-.295a1.156 1.156 0 0 1 0-1.621l7.369-7.369a1.157 1.157 0 0 1 1.621 0l.295.295a1.139 1.139 0 0 1 0 1.592l-7.369 7.369a1.164 1.164 0 0 1-.821.353zm-.472-1.238l.295.295a.269.269 0 0 0 .354 0l7.369-7.369a.255.255 0 0 0 .088-.177.21.21 0 0 0-.088-.177l-.295-.295a.269.269 0 0 0-.354 0l-7.369 7.369a.269.269 0 0 0-.002.354z" class="cls-3" data-name="패스 707" transform="translate(-54.175 -192.175)"/>
                </g>
            </g>
            <g id="그룹_1068" data-name="그룹 1068" transform="translate(-10.081 50.043)">
                <g id="그룹_1066" data-name="그룹 1066">
                    <path id="패스_708" d="M10.29 202.3l-.29.29a.73.73 0 0 1-1 0l-7.369-7.369a.73.73 0 0 1 0-1l.295-.295a.73.73 0 0 1 1 0l7.369 7.369a.678.678 0 0 1-.005 1.005z" class="cls-3" data-name="패스 708" transform="translate(-1.005 -193.268)"/>
                    <path id="패스_709" d="M8.519 202.116a1.139 1.139 0 0 1-.8-.324l-7.365-7.369A1.115 1.115 0 0 1 0 193.6a1.139 1.139 0 0 1 .324-.8l.295-.295a1.157 1.157 0 0 1 1.621 0l7.369 7.369a1.139 1.139 0 0 1 0 1.592l-.295.295a1.053 1.053 0 0 1-.795.355zm-7.1-9.049a.21.21 0 0 0-.177.088l-.295.295a.225.225 0 0 0-.059.147.21.21 0 0 0 .088.177l7.369 7.369a.269.269 0 0 0 .354 0l.295-.295a.255.255 0 0 0 .088-.177.21.21 0 0 0-.088-.177l-7.369-7.369a.426.426 0 0 0-.21-.058z" class="cls-3" data-name="패스 709" transform="translate(0 -192.175)"/>
                </g>
                <g id="그룹_1067" data-name="그룹 1067" transform="translate(0 .029)">
                    <path id="패스_710" d="M1.724 202.3l.295.295a.73.73 0 0 0 1 0l7.369-7.369a.73.73 0 0 0 0-1l-.295-.295a.73.73 0 0 0-1 0L1.724 201.3a.73.73 0 0 0 0 1z" class="cls-3" data-name="패스 710" transform="translate(-1.075 -193.298)"/>
                    <path id="패스_711" d="M1.415 202.186a1.139 1.139 0 0 1-.8-.324l-.295-.295a1.139 1.139 0 0 1 0-1.592l7.369-7.369a1.157 1.157 0 0 1 1.621 0l.295.295a1.139 1.139 0 0 1 0 1.592l-7.365 7.369a1.21 1.21 0 0 1-.825.324zm7.1-9.049a.21.21 0 0 0-.177.088l-7.365 7.37a.255.255 0 0 0-.088.177.21.21 0 0 0 .088.177l.295.295a.269.269 0 0 0 .354 0l7.369-7.369a.255.255 0 0 0 .088-.177.21.21 0 0 0-.088-.177l-.295-.295a.255.255 0 0 0-.177-.089z" class="cls-3" data-name="패스 711" transform="translate(0 -192.275)"/>
                </g>
            </g>
            <g id="그룹_1071" data-name="그룹 1071" transform="translate(53.794 50.072)">
                <g id="그룹_1069" data-name="그룹 1069" transform="translate(.029)">
                    <path id="패스_712" d="M226.99 202.3l-.295.295a.73.73 0 0 1-1 0l-7.369-7.369a.73.73 0 0 1 0-1l.295-.295a.73.73 0 0 1 1 0l7.369 7.369a.73.73 0 0 1 0 1z" class="cls-3" data-name="패스 712" transform="translate(-217.734 -193.298)"/>
                    <path id="패스_713" d="M225.289 202.186a1.139 1.139 0 0 1-.8-.324l-7.369-7.369a1.139 1.139 0 0 1 0-1.592l.295-.295a1.157 1.157 0 0 1 1.621 0l7.369 7.369a1.139 1.139 0 0 1 0 1.592l-.295.295a1.267 1.267 0 0 1-.821.324zm-7.1-9.049a.21.21 0 0 0-.177.088l-.295.295a.255.255 0 0 0-.088.177.21.21 0 0 0 .088.177l7.369 7.369a.269.269 0 0 0 .354 0l.295-.295a.255.255 0 0 0 .088-.177.21.21 0 0 0-.088-.177l-7.369-7.369a.178.178 0 0 0-.181-.088z" class="cls-3" data-name="패스 713" transform="translate(-216.8 -192.275)"/>
                </g>
                <g id="그룹_1070" data-name="그룹 1070">
                    <path id="패스_714" d="M218.371 202.3l.295.295a.73.73 0 0 0 1 0l7.369-7.369a.73.73 0 0 0 0-1l-.295-.295a.73.73 0 0 0-1 0l-7.369 7.369a.678.678 0 0 0 0 1z" class="cls-3" data-name="패스 714" transform="translate(-217.723 -193.298)"/>
                    <path id="패스_715" d="M218.115 202.186a1.139 1.139 0 0 1-.8-.324l-.295-.295a1.139 1.139 0 0 1 0-1.592l7.369-7.369a1.157 1.157 0 0 1 1.621 0l.295.295a1.139 1.139 0 0 1 0 1.592l-7.369 7.369a1.21 1.21 0 0 1-.821.324zm7.1-9.049a.21.21 0 0 0-.177.088l-7.369 7.369a.255.255 0 0 0-.088.177.21.21 0 0 0 .088.177l.295.295a.269.269 0 0 0 .354 0l7.369-7.369a.255.255 0 0 0 .088-.177.21.21 0 0 0-.088-.177l-.295-.295a.255.255 0 0 0-.173-.088z" class="cls-3" data-name="패스 715" transform="translate(-216.7 -192.275)"/>
                </g>
            </g>
            <g id="그룹_1074" data-name="그룹 1074" transform="translate(37.818 50.072)">
                <g id="그룹_1072" data-name="그룹 1072" transform="translate(.029)">
                    <path id="패스_716" d="M172.79 202.3l-.295.295a.73.73 0 0 1-1 0l-7.369-7.369a.73.73 0 0 1 0-1l.295-.295a.73.73 0 0 1 1 0l7.369 7.369a.678.678 0 0 1 0 1z" class="cls-3" data-name="패스 716" transform="translate(-163.534 -193.298)"/>
                    <path id="패스_717" d="M171.089 202.186a1.139 1.139 0 0 1-.8-.324l-7.369-7.369a1.139 1.139 0 0 1 0-1.592l.295-.295a1.157 1.157 0 0 1 1.621 0l7.369 7.369a1.139 1.139 0 0 1 0 1.592l-.295.295a1.267 1.267 0 0 1-.821.324zm-7.1-9.049a.21.21 0 0 0-.177.088l-.295.295a.255.255 0 0 0-.088.177.21.21 0 0 0 .088.177l7.369 7.369a.269.269 0 0 0 .354 0l.295-.295a.255.255 0 0 0 .088-.177.21.21 0 0 0-.088-.177l-7.369-7.369a.178.178 0 0 0-.181-.088z" class="cls-3" data-name="패스 717" transform="translate(-162.6 -192.275)"/>
                </g>
                <g id="그룹_1073" data-name="그룹 1073">
                    <path id="패스_718" d="M164.224 202.3l.295.295a.73.73 0 0 0 1 0l7.369-7.369a.73.73 0 0 0 0-1l-.295-.295a.73.73 0 0 0-1 0l-7.369 7.369a.73.73 0 0 0 0 1z" class="cls-3" data-name="패스 718" transform="translate(-163.575 -193.298)"/>
                    <path id="패스_719" d="M163.915 202.186a1.139 1.139 0 0 1-.8-.324l-.295-.295a1.139 1.139 0 0 1 0-1.592l7.369-7.369a1.157 1.157 0 0 1 1.621 0l.295.295a1.139 1.139 0 0 1 0 1.592l-7.369 7.369a1.267 1.267 0 0 1-.821.324zm7.1-9.049a.21.21 0 0 0-.177.088l-7.369 7.369a.255.255 0 0 0-.088.177.21.21 0 0 0 .088.177l.295.295a.269.269 0 0 0 .354 0l7.369-7.369a.255.255 0 0 0 .088-.177.21.21 0 0 0-.088-.177l-.295-.295a.21.21 0 0 0-.173-.088z" class="cls-3" data-name="패스 719" transform="translate(-162.5 -192.275)"/>
                </g>
            </g>
            <g id="그룹_1077" data-name="그룹 1077" transform="translate(30.095 35.924)">
                <g id="그룹_1075" data-name="그룹 1075">
                    <path id="패스_720" d="M146.59 154.2l-.295.295a.73.73 0 0 1-1 0l-7.369-7.369a.73.73 0 0 1 0-1l.295-.295a.73.73 0 0 1 1 0l7.369 7.369a.73.73 0 0 1 0 1z" class="cls-3" data-name="패스 720" transform="translate(-137.305 -145.227)"/>
                    <path id="패스_721" d="M144.789 154.186a1.139 1.139 0 0 1-.8-.324l-7.369-7.369a1.139 1.139 0 0 1 0-1.592l.295-.295a1.157 1.157 0 0 1 1.621 0l7.369 7.369a1.139 1.139 0 0 1 0 1.592l-.295.295a1.21 1.21 0 0 1-.821.324zm-7.074-9.079a.21.21 0 0 0-.177.088l-.295.295a.269.269 0 0 0 0 .354l7.369 7.369a.269.269 0 0 0 .354 0l.295-.295a.269.269 0 0 0 0-.354l-7.369-7.369a.255.255 0 0 0-.177-.087z" class="cls-3" data-name="패스 721" transform="translate(-136.3 -144.275)"/>
                </g>
                <g id="그룹_1076" data-name="그룹 1076">
                    <path id="패스_722" d="M137.924 154.2l.295.295a.73.73 0 0 0 1 0l7.369-7.369a.73.73 0 0 0 0-1l-.295-.295a.73.73 0 0 0-1 0l-7.369 7.369a.73.73 0 0 0 0 1z" class="cls-3" data-name="패스 722" transform="translate(-137.305 -145.227)"/>
                    <path id="패스_723" d="M137.715 154.186a1.139 1.139 0 0 1-.8-.324l-.295-.295a1.139 1.139 0 0 1 0-1.592l7.369-7.369a1.157 1.157 0 0 1 1.621 0l.295.295a1.139 1.139 0 0 1 0 1.592l-7.369 7.369a1.267 1.267 0 0 1-.821.324zm7.074-9.079a.21.21 0 0 0-.177.088l-7.369 7.369a.269.269 0 0 0 0 .354l.295.295a.269.269 0 0 0 .354 0l7.369-7.369a.269.269 0 0 0 0-.354l-.295-.295a.178.178 0 0 0-.177-.087z" class="cls-3" data-name="패스 723" transform="translate(-136.3 -144.275)"/>
                </g>
            </g>
            <g id="그룹_1080" data-name="그룹 1080" transform="translate(14.119 35.924)">
                <g id="그룹_1078" data-name="그룹 1078" transform="translate(.029)">
                    <path id="패스_724" d="M92.39 154.2l-.295.295a.73.73 0 0 1-1 0l-7.369-7.369a.73.73 0 0 1 0-1l.295-.295a.73.73 0 0 1 1 0l7.369 7.369a.73.73 0 0 1 0 1z" class="cls-3" data-name="패스 724" transform="translate(-83.134 -145.227)"/>
                    <path id="패스_725" d="M90.689 154.186a1.139 1.139 0 0 1-.8-.324l-7.369-7.369a1.139 1.139 0 0 1 0-1.592l.295-.295a1.157 1.157 0 0 1 1.621 0l7.369 7.369a1.157 1.157 0 0 1 0 1.621l-.295.295a1.408 1.408 0 0 1-.821.295zm-7.1-9.079a.21.21 0 0 0-.177.088l-.295.295a.269.269 0 0 0 0 .354l7.369 7.369a.269.269 0 0 0 .354 0l.295-.295a.269.269 0 0 0 0-.354l-7.373-7.364a.21.21 0 0 0-.177-.092z" class="cls-3" data-name="패스 725" transform="translate(-82.2 -144.275)"/>
                </g>
                <g id="그룹_1079" data-name="그룹 1079">
                    <path id="패스_726" d="M83.771 154.2l.295.295a.73.73 0 0 0 1 0l7.369-7.369a.73.73 0 0 0 0-1l-.295-.295a.73.73 0 0 0-1 0l-7.369 7.369a.678.678 0 0 0 0 1z" class="cls-3" data-name="패스 726" transform="translate(-83.123 -145.227)"/>
                    <path id="패스_727" d="M83.515 154.186a1.139 1.139 0 0 1-.8-.324l-.295-.295a1.139 1.139 0 0 1 0-1.592l7.369-7.369a1.157 1.157 0 0 1 1.621 0l.295.295a1.156 1.156 0 0 1 0 1.621l-7.369 7.369a1.408 1.408 0 0 1-.821.295zm7.1-9.079a.21.21 0 0 0-.177.088l-7.369 7.369a.269.269 0 0 0 0 .354l.295.295a.269.269 0 0 0 .354 0l7.369-7.369a.269.269 0 0 0 0-.354l-.287-.29a.255.255 0 0 0-.181-.092z" class="cls-3" data-name="패스 727" transform="translate(-82.1 -144.275)"/>
                </g>
            </g>
            <g id="그룹_1083" data-name="그룹 1083" transform="translate(-1.864 35.894)">
                <g id="그룹_1081" data-name="그룹 1081" transform="translate(.029)">
                    <path id="패스_728" d="M38.19 154.2l-.295.295a.73.73 0 0 1-1 0l-7.369-7.369a.73.73 0 0 1 0-1l.295-.295a.73.73 0 0 1 1 0l7.369 7.369a.678.678 0 0 1 0 1z" class="cls-3" data-name="패스 728" transform="translate(-28.927 -145.198)"/>
                    <path id="패스_729" d="M36.471 154.116a1.139 1.139 0 0 1-.8-.324l-7.369-7.369a1.157 1.157 0 0 1 0-1.621l.295-.295a1.157 1.157 0 0 1 1.621 0l7.369 7.369a1.139 1.139 0 0 1 0 1.592l-.295.295a1.164 1.164 0 0 1-.821.353zm-7.1-9.079a.21.21 0 0 0-.177.088l-.295.295a.269.269 0 0 0 0 .354l7.369 7.369a.269.269 0 0 0 .354 0l.295-.295a.269.269 0 0 0 0-.354l-7.369-7.369a.178.178 0 0 0-.18-.088z" class="cls-3" data-name="패스 729" transform="translate(-27.975 -144.175)"/>
                </g>
                <g id="그룹_1082" data-name="그룹 1082">
                    <path id="패스_730" d="M29.624 154.2l.295.295a.73.73 0 0 0 1 0l7.369-7.369a.73.73 0 0 0 0-1l-.288-.302a.73.73 0 0 0-1 0l-7.369 7.369a.73.73 0 0 0-.007 1.007z" class="cls-3" data-name="패스 730" transform="translate(-28.968 -145.198)"/>
                    <path id="패스_731" d="M29.3 154.116a1.139 1.139 0 0 1-.8-.324l-.295-.295a1.157 1.157 0 0 1 0-1.621l7.369-7.369a1.157 1.157 0 0 1 1.621 0l.295.295a1.139 1.139 0 0 1 0 1.592l-7.369 7.369a1.115 1.115 0 0 1-.821.353zm-.442-1.238l.295.295a.269.269 0 0 0 .354 0l7.369-7.369a.269.269 0 0 0 0-.354l-.295-.295a.269.269 0 0 0-.354 0l-7.369 7.369c-.121.059-.121.236-.003.354z" class="cls-3" data-name="패스 731" transform="translate(-27.875 -144.175)"/>
                </g>
            </g>
            <g id="그룹_1086" data-name="그룹 1086" transform="translate(62.01 35.894)">
                <g id="그룹_1084" data-name="그룹 1084" transform="translate(.029)">
                    <path id="패스_732" d="M254.89 154.2l-.295.295a.73.73 0 0 1-1 0l-7.369-7.369a.73.73 0 0 1 0-1l.295-.295a.73.73 0 0 1 1 0l7.369 7.369a.73.73 0 0 1 0 1z" class="cls-3" data-name="패스 732" transform="translate(-245.627 -145.198)"/>
                    <path id="패스_733" d="M253.171 154.116a1.139 1.139 0 0 1-.8-.324l-7.369-7.369a1.156 1.156 0 0 1 0-1.621l.295-.295a1.157 1.157 0 0 1 1.621 0l7.369 7.369a1.139 1.139 0 0 1 0 1.592l-.295.295a1.164 1.164 0 0 1-.821.353zm-7.1-9.079a.21.21 0 0 0-.177.088l-.295.295a.269.269 0 0 0 0 .354l7.369 7.369a.269.269 0 0 0 .354 0l.295-.295a.269.269 0 0 0 0-.354l-7.369-7.369a.21.21 0 0 0-.18-.088z" class="cls-3" data-name="패스 733" transform="translate(-244.675 -144.175)"/>
                </g>
                <g id="그룹_1085" data-name="그룹 1085">
                    <path id="패스_734" d="M246.271 154.2l.295.295a.73.73 0 0 0 1 0l7.369-7.369a.73.73 0 0 0 0-1l-.295-.295a.73.73 0 0 0-1 0l-7.369 7.369a.678.678 0 0 0 0 1z" class="cls-3" data-name="패스 734" transform="translate(-245.615 -145.198)"/>
                    <path id="패스_735" d="M246 154.116a1.139 1.139 0 0 1-.8-.324l-.295-.295a1.157 1.157 0 0 1 0-1.621l7.369-7.369a1.157 1.157 0 0 1 1.621 0l.295.295a1.139 1.139 0 0 1 0 1.592l-7.369 7.369a1.164 1.164 0 0 1-.821.353zm-.472-1.238l.295.295a.269.269 0 0 0 .354 0l7.369-7.369a.269.269 0 0 0 0-.354l-.295-.295a.269.269 0 0 0-.354 0l-7.369 7.369c-.091.059-.091.236-.002.354z" class="cls-3" data-name="패스 735" transform="translate(-244.575 -144.175)"/>
                </g>
            </g>
            <g id="그룹_1089" data-name="그룹 1089" transform="translate(46.041 35.924)">
                <g id="그룹_1087" data-name="그룹 1087" transform="translate(.029)">
                    <path id="패스_736" d="M200.69 154.2l-.295.295a.73.73 0 0 1-1 0l-7.369-7.369a.73.73 0 0 1 0-1l.295-.295a.73.73 0 0 1 1 0l7.369 7.369a.678.678 0 0 1 0 1z" class="cls-3" data-name="패스 736" transform="translate(-191.434 -145.227)"/>
                    <path id="패스_737" d="M198.989 154.186a1.139 1.139 0 0 1-.8-.324l-7.369-7.369a1.139 1.139 0 0 1 0-1.592l.295-.295a1.157 1.157 0 0 1 1.621 0l7.369 7.369a1.139 1.139 0 0 1 0 1.592l-.295.295a1.267 1.267 0 0 1-.821.324zm-7.1-9.079a.21.21 0 0 0-.177.088l-.295.295a.269.269 0 0 0 0 .354l7.369 7.369a.269.269 0 0 0 .354 0l.295-.295a.269.269 0 0 0 0-.354l-7.369-7.369a.178.178 0 0 0-.181-.087z" class="cls-3" data-name="패스 737" transform="translate(-190.5 -144.275)"/>
                </g>
                <g id="그룹_1088" data-name="그룹 1088">
                    <path id="패스_738" d="M192.124 154.2l.295.295a.73.73 0 0 0 1 0l7.369-7.369a.73.73 0 0 0 0-1l-.295-.295a.73.73 0 0 0-1 0l-7.369 7.369a.73.73 0 0 0 0 1z" class="cls-3" data-name="패스 738" transform="translate(-191.475 -145.227)"/>
                    <path id="패스_739" d="M191.815 154.186a1.139 1.139 0 0 1-.8-.324l-.295-.295a1.139 1.139 0 0 1 0-1.592l7.369-7.369a1.157 1.157 0 0 1 1.621 0l.295.295a1.139 1.139 0 0 1 0 1.592l-7.369 7.369a1.158 1.158 0 0 1-.821.324zm7.1-9.079a.21.21 0 0 0-.177.088l-7.369 7.369a.269.269 0 0 0 0 .354l.295.295a.269.269 0 0 0 .354 0l7.369-7.369a.269.269 0 0 0 0-.354l-.295-.295a.21.21 0 0 0-.173-.087z" class="cls-3" data-name="패스 739" transform="translate(-190.4 -144.275)"/>
                </g>
            </g>
            <g id="그룹_1092" data-name="그룹 1092" transform="translate(21.871 -6.581)">
                <g id="그룹_1090" data-name="그룹 1090">
                    <path id="패스_740" d="M118.69 10.1l-.295.295a.73.73 0 0 1-1 0l-7.369-7.369a.73.73 0 0 1 0-1l.295-.295a.73.73 0 0 1 1 0L118.69 9.1a.73.73 0 0 1 0 1z" class="cls-3" data-name="패스 740" transform="translate(-109.405 -1.098)"/>
                    <path id="패스_741" d="M116.889 9.986a1.139 1.139 0 0 1-.8-.324l-7.369-7.369a1.139 1.139 0 0 1 0-1.592l.295-.295a1.157 1.157 0 0 1 1.621 0l7.369 7.369a1.156 1.156 0 0 1 0 1.621l-.295.295a1.341 1.341 0 0 1-.821.295zM109.815.937a.21.21 0 0 0-.177.088l-.295.295a.255.255 0 0 0-.088.177.21.21 0 0 0 .088.177l7.369 7.369a.269.269 0 0 0 .354 0l.295-.295a.269.269 0 0 0 0-.354l-7.369-7.369a.255.255 0 0 0-.177-.088z" class="cls-3" data-name="패스 741" transform="translate(-108.4 -.075)"/>
                </g>
                <g id="그룹_1091" data-name="그룹 1091">
                    <path id="패스_742" d="M110.024 10.1l.295.295a.73.73 0 0 0 1 0l7.369-7.369a.73.73 0 0 0 0-1l-.295-.295a.73.73 0 0 0-1 0L110.024 9.1a.73.73 0 0 0 0 1z" class="cls-3" data-name="패스 742" transform="translate(-109.405 -1.098)"/>
                    <path id="패스_743" d="M109.815 9.986a1.139 1.139 0 0 1-.8-.324l-.295-.295a1.139 1.139 0 0 1 0-1.592l7.373-7.368a1.157 1.157 0 0 1 1.621 0l.295.295a1.156 1.156 0 0 1 0 1.621l-7.369 7.369a1.409 1.409 0 0 1-.825.294zm7.074-9.049a.21.21 0 0 0-.177.088l-7.369 7.369a.255.255 0 0 0-.088.177.21.21 0 0 0 .088.177l.295.295a.269.269 0 0 0 .354 0l7.369-7.369a.269.269 0 0 0 0-.354l-.295-.295a.178.178 0 0 0-.177-.088z" class="cls-3" data-name="패스 743" transform="translate(-108.4 -.075)"/>
                </g>
            </g>
            <g id="그룹_1095" data-name="그룹 1095" transform="translate(5.888 -6.61)">
                <g id="그룹_1093" data-name="그룹 1093" transform="translate(.029)">
                    <path id="패스_744" d="M64.49 10.1l-.295.295a.73.73 0 0 1-1 0l-7.371-7.374a.73.73 0 0 1 0-1l.295-.295a.73.73 0 0 1 1 0l7.371 7.367a.73.73 0 0 1 0 1.007z" class="cls-3" data-name="패스 744" transform="translate(-55.227 -1.068)"/>
                    <path id="패스_745" d="M62.771 9.916a1.139 1.139 0 0 1-.8-.324l-7.364-7.369a1.157 1.157 0 0 1 0-1.621L54.9.307a1.157 1.157 0 0 1 1.621 0l7.369 7.369a1.139 1.139 0 0 1 0 1.592l-.295.295a1.164 1.164 0 0 1-.824.353zM55.668.867a.21.21 0 0 0-.177.088l-.291.295a.269.269 0 0 0 0 .354l7.369 7.369a.269.269 0 0 0 .354 0l.295-.295A.255.255 0 0 0 63.3 8.5a.21.21 0 0 0-.088-.177L55.845.955a.21.21 0 0 0-.177-.088z" class="cls-3" data-name="패스 745" transform="translate(-54.275 .025)"/>
                </g>
                <g id="그룹_1094" data-name="그룹 1094">
                    <path id="패스_746" d="M55.871 10.1l.295.295a.73.73 0 0 0 1 0l7.369-7.369a.73.73 0 0 0 0-1l-.295-.295a.73.73 0 0 0-1 0l-7.369 7.362a.678.678 0 0 0 0 1.007z" class="cls-3" data-name="패스 746" transform="translate(-55.215 -1.068)"/>
                    <path id="패스_747" d="M55.6 9.916a1.139 1.139 0 0 1-.8-.324l-.293-.292a1.157 1.157 0 0 1 0-1.621L61.876.307a1.157 1.157 0 0 1 1.621 0l.295.293a1.139 1.139 0 0 1 0 1.592l-7.369 7.37a1.164 1.164 0 0 1-.823.354zm-.472-1.238l.295.295a.269.269 0 0 0 .354 0L63.143 1.6a.255.255 0 0 0 .088-.177.21.21 0 0 0-.088-.177l-.295-.291a.269.269 0 0 0-.354 0l-7.368 7.369a.269.269 0 0 0 0 .354z" class="cls-3" data-name="패스 747" transform="translate(-54.175 .025)"/>
                </g>
            </g>
            <g id="그룹_1098" data-name="그룹 1098" transform="translate(-10.081 -6.61)">
                <g id="그룹_1096" data-name="그룹 1096">
                    <path id="패스_748" d="M10.29 10.1l-.29.29a.73.73 0 0 1-1 0L1.624 3.021a.73.73 0 0 1 0-1l.295-.295a.73.73 0 0 1 1 0l7.371 7.367a.678.678 0 0 1 0 1.007z" class="cls-3" data-name="패스 748" transform="translate(-1.005 -1.068)"/>
                    <path id="패스_749" d="M8.519 9.916a1.139 1.139 0 0 1-.8-.324L.354 2.223A1.115 1.115 0 0 1 0 1.4 1.139 1.139 0 0 1 .324.6L.619.307a1.157 1.157 0 0 1 1.621 0l7.369 7.369a1.139 1.139 0 0 1 0 1.592l-.295.295a1.053 1.053 0 0 1-.795.353zM1.415.867a.255.255 0 0 0-.177.088l-.295.295a.225.225 0 0 0-.059.15.21.21 0 0 0 .088.177l7.37 7.366a.269.269 0 0 0 .354 0l.295-.295a.255.255 0 0 0 .088-.177.21.21 0 0 0-.088-.177L1.621.926a.426.426 0 0 0-.206-.059z" class="cls-3" data-name="패스 749" transform="translate(0 .025)"/>
                </g>
                <g id="그룹_1097" data-name="그룹 1097" transform="translate(0 .029)">
                    <path id="패스_750" d="M1.724 10.1l.295.295a.73.73 0 0 0 1 0l7.371-7.374a.73.73 0 0 0 0-1l-.29-.297a.73.73 0 0 0-1 0L1.724 9.093a.73.73 0 0 0 0 1.007z" class="cls-3" data-name="패스 750" transform="translate(-1.075 -1.098)"/>
                    <path id="패스_751" d="M1.415 9.986a1.139 1.139 0 0 1-.8-.324l-.291-.295a1.139 1.139 0 0 1 0-1.592L7.693.407a1.157 1.157 0 0 1 1.621 0L9.609.7a1.139 1.139 0 0 1 0 1.592L2.24 9.662a1.21 1.21 0 0 1-.825.324zM8.519.937a.21.21 0 0 0-.177.088L.973 8.395a.221.221 0 0 0 0 .354l.295.295a.269.269 0 0 0 .354 0l7.368-7.37a.255.255 0 0 0 .089-.174.21.21 0 0 0-.089-.18l-.29-.294a.255.255 0 0 0-.181-.089z" class="cls-3" data-name="패스 751" transform="translate(0 -.075)"/>
                </g>
            </g>
            <g id="그룹_1101" data-name="그룹 1101" transform="translate(53.794 -6.581)">
                <g id="그룹_1099" data-name="그룹 1099" transform="translate(.029)">
                    <path id="패스_752" d="M226.99 10.1l-.295.295a.73.73 0 0 1-1 0l-7.369-7.369a.73.73 0 0 1 0-1l.295-.295a.73.73 0 0 1 1 0L226.99 9.1a.73.73 0 0 1 0 1z" class="cls-3" data-name="패스 752" transform="translate(-217.734 -1.098)"/>
                    <path id="패스_753" d="M225.289 9.986a1.139 1.139 0 0 1-.8-.324l-7.369-7.369a1.139 1.139 0 0 1 0-1.592l.295-.295a1.156 1.156 0 0 1 1.621 0l7.369 7.369a1.139 1.139 0 0 1 0 1.592l-.295.295a1.267 1.267 0 0 1-.821.324zm-7.1-9.049a.21.21 0 0 0-.177.088l-.295.295a.255.255 0 0 0-.088.177.21.21 0 0 0 .088.177l7.369 7.369a.269.269 0 0 0 .354 0l.295-.295a.255.255 0 0 0 .088-.177.21.21 0 0 0-.088-.177l-7.369-7.369a.178.178 0 0 0-.181-.088z" class="cls-3" data-name="패스 753" transform="translate(-216.8 -.075)"/>
                </g>
                <g id="그룹_1100" data-name="그룹 1100">
                    <path id="패스_754" d="M218.371 10.1l.295.295a.73.73 0 0 0 1 0l7.369-7.369a.73.73 0 0 0 0-1l-.295-.295a.73.73 0 0 0-1 0L218.371 9.1a.678.678 0 0 0 0 1z" class="cls-3" data-name="패스 754" transform="translate(-217.723 -1.098)"/>
                    <path id="패스_755" d="M218.115 9.986a1.139 1.139 0 0 1-.8-.324l-.295-.295a1.139 1.139 0 0 1 0-1.592l7.373-7.368a1.156 1.156 0 0 1 1.621 0l.295.295a1.139 1.139 0 0 1 0 1.592l-7.369 7.368a1.21 1.21 0 0 1-.825.324zm7.1-9.049a.21.21 0 0 0-.177.088l-7.369 7.369a.255.255 0 0 0-.088.177.21.21 0 0 0 .088.177l.295.295a.269.269 0 0 0 .354 0l7.369-7.369a.255.255 0 0 0 .088-.177.21.21 0 0 0-.088-.177l-.295-.295a.255.255 0 0 0-.173-.088z" class="cls-3" data-name="패스 755" transform="translate(-216.7 -.075)"/>
                </g>
            </g>
            <g id="그룹_1104" data-name="그룹 1104" transform="translate(37.818 -6.581)">
                <g id="그룹_1102" data-name="그룹 1102" transform="translate(.029)">
                    <path id="패스_756" d="M172.79 10.1l-.295.295a.73.73 0 0 1-1 0l-7.369-7.369a.73.73 0 0 1 0-1l.295-.295a.73.73 0 0 1 1 0L172.79 9.1a.678.678 0 0 1 0 1z" class="cls-3" data-name="패스 756" transform="translate(-163.534 -1.098)"/>
                    <path id="패스_757" d="M171.089 9.986a1.139 1.139 0 0 1-.8-.324l-7.369-7.369a1.139 1.139 0 0 1 0-1.592l.295-.295a1.157 1.157 0 0 1 1.621 0l7.369 7.369a1.139 1.139 0 0 1 0 1.592l-.295.295a1.267 1.267 0 0 1-.821.324zm-7.1-9.049a.21.21 0 0 0-.177.088l-.295.295a.255.255 0 0 0-.088.177.21.21 0 0 0 .088.177l7.369 7.369a.269.269 0 0 0 .354 0l.295-.295a.255.255 0 0 0 .088-.177.21.21 0 0 0-.088-.177l-7.369-7.369a.178.178 0 0 0-.181-.088z" class="cls-3" data-name="패스 757" transform="translate(-162.6 -.075)"/>
                </g>
                <g id="그룹_1103" data-name="그룹 1103">
                    <path id="패스_758" d="M164.224 10.1l.295.295a.73.73 0 0 0 1 0l7.369-7.369a.73.73 0 0 0 0-1l-.295-.295a.73.73 0 0 0-1 0L164.224 9.1a.73.73 0 0 0 0 1z" class="cls-3" data-name="패스 758" transform="translate(-163.575 -1.098)"/>
                    <path id="패스_759" d="M163.915 9.986a1.139 1.139 0 0 1-.8-.324l-.295-.295a1.139 1.139 0 0 1 0-1.592l7.373-7.368a1.157 1.157 0 0 1 1.621 0l.295.295a1.139 1.139 0 0 1 0 1.592l-7.369 7.368a1.158 1.158 0 0 1-.825.324zm7.1-9.049a.21.21 0 0 0-.177.088l-7.369 7.369a.255.255 0 0 0-.088.177.21.21 0 0 0 .088.177l.295.295a.269.269 0 0 0 .354 0l7.369-7.369a.255.255 0 0 0 .088-.177.21.21 0 0 0-.088-.177l-.295-.295a.21.21 0 0 0-.173-.088z" class="cls-3" data-name="패스 759" transform="translate(-162.5 -.075)"/>
                </g>
            </g>
        </g>
    </g>
</svg>
