<svg xmlns="http://www.w3.org/2000/svg" viewBox="0 0 54 54">
    <defs>
        <style>
            .cls-1{fill:#2cc}.cls-2{clip-path:url(#clip-path)}.cls-3{fill:#fff}
        </style>
        <clipPath id="clip-path">
            <circle id="타원_717" cx="27" cy="27" r="27" data-name="타원 717"/>
        </clipPath>
    </defs>
    <g id="icon_node_bp_06" transform="translate(-34.2 -22.4)">
        <circle id="타원_716" cx="27" cy="27" r="27" class="cls-1" data-name="타원 716" transform="translate(34.2 22.4)"/>
        <g id="그룹_1315" class="cls-2" data-name="그룹 1315" transform="translate(34.2 22.4)">
            <g id="그룹_1242" data-name="그룹 1242" transform="translate(21.871 21.746)">
                <g id="그룹_1240" data-name="그룹 1240">
                    <path id="패스_918" d="M118.69 106.2l-.295.295a.73.73 0 0 1-1 0l-7.369-7.369a.73.73 0 0 1 0-1l.295-.295a.73.73 0 0 1 1 0l7.369 7.369a.73.73 0 0 1 0 1z" class="cls-3" data-name="패스 918" transform="translate(-109.405 -97.198)"/>
                    <path id="패스_919" d="M116.889 106.086a1.139 1.139 0 0 1-.8-.324l-7.369-7.369a1.139 1.139 0 0 1 0-1.592l.295-.295a1.157 1.157 0 0 1 1.621 0l7.369 7.369a1.157 1.157 0 0 1 0 1.621l-.295.295a1.341 1.341 0 0 1-.821.295zm-7.074-9.049a.21.21 0 0 0-.177.088l-.295.295a.255.255 0 0 0-.088.177.21.21 0 0 0 .088.177l7.369 7.369a.269.269 0 0 0 .354 0l.295-.295a.269.269 0 0 0 0-.354l-7.369-7.369a.255.255 0 0 0-.177-.088z" class="cls-3" data-name="패스 919" transform="translate(-108.4 -96.175)"/>
                </g>
                <g id="그룹_1241" data-name="그룹 1241">
                    <path id="패스_920" d="M110.024 106.2l.295.295a.73.73 0 0 0 1 0l7.369-7.369a.73.73 0 0 0 0-1l-.295-.295a.73.73 0 0 0-1 0l-7.369 7.369a.73.73 0 0 0 0 1z" class="cls-3" data-name="패스 920" transform="translate(-109.405 -97.198)"/>
                    <path id="패스_921" d="M109.815 106.086a1.139 1.139 0 0 1-.8-.324l-.295-.295a1.139 1.139 0 0 1 0-1.592l7.369-7.369a1.157 1.157 0 0 1 1.621 0l.295.295a1.157 1.157 0 0 1 0 1.621l-7.369 7.369a1.409 1.409 0 0 1-.821.295zm7.074-9.049a.21.21 0 0 0-.177.088l-7.369 7.369a.255.255 0 0 0-.088.177.21.21 0 0 0 .088.177l.295.295a.269.269 0 0 0 .354 0l7.369-7.369a.269.269 0 0 0 0-.354l-.295-.295a.178.178 0 0 0-.177-.088z" class="cls-3" data-name="패스 921" transform="translate(-108.4 -96.175)"/>
                </g>
            </g>
            <g id="그룹_1245" data-name="그룹 1245" transform="translate(5.888 21.716)">
                <g id="그룹_1243" data-name="그룹 1243" transform="translate(.029)">
                    <path id="패스_922" d="M64.49 106.2l-.295.295a.73.73 0 0 1-1 0l-7.369-7.369a.73.73 0 0 1 0-1l.295-.295a.73.73 0 0 1 1 0l7.369 7.369a.73.73 0 0 1 0 1z" class="cls-3" data-name="패스 922" transform="translate(-55.227 -97.168)"/>
                    <path id="패스_923" d="M62.771 106.016a1.139 1.139 0 0 1-.8-.324l-7.369-7.369a1.157 1.157 0 0 1 0-1.621l.295-.295a1.157 1.157 0 0 1 1.621 0l7.369 7.369a1.139 1.139 0 0 1 0 1.592l-.295.295a1.164 1.164 0 0 1-.821.353zm-7.1-9.049a.21.21 0 0 0-.177.088l-.295.295a.269.269 0 0 0 0 .354l7.369 7.369a.269.269 0 0 0 .354 0l.295-.295a.255.255 0 0 0 .088-.177.21.21 0 0 0-.088-.177l-7.369-7.369a.21.21 0 0 0-.18-.088z" class="cls-3" data-name="패스 923" transform="translate(-54.275 -96.075)"/>
                </g>
                <g id="그룹_1244" data-name="그룹 1244">
                    <path id="패스_924" d="M55.871 106.2l.295.295a.73.73 0 0 0 1 0l7.369-7.369a.73.73 0 0 0 0-1l-.295-.295a.73.73 0 0 0-1 0l-7.369 7.369a.678.678 0 0 0 0 1z" class="cls-3" data-name="패스 924" transform="translate(-55.215 -97.168)"/>
                    <path id="패스_925" d="M55.6 106.016a1.139 1.139 0 0 1-.8-.324l-.295-.295a1.157 1.157 0 0 1 0-1.621l7.369-7.369a1.157 1.157 0 0 1 1.621 0l.295.295a1.139 1.139 0 0 1 0 1.592l-7.369 7.369a1.164 1.164 0 0 1-.821.353zm-.472-1.238l.295.295a.269.269 0 0 0 .354 0l7.366-7.373a.255.255 0 0 0 .088-.177.21.21 0 0 0-.088-.177l-.295-.295a.269.269 0 0 0-.354 0l-7.369 7.369a.269.269 0 0 0 .001.358z" class="cls-3" data-name="패스 925" transform="translate(-54.175 -96.075)"/>
                </g>
            </g>
            <g id="그룹_1248" data-name="그룹 1248" transform="translate(-10.081 21.716)">
                <g id="그룹_1246" data-name="그룹 1246">
                    <path id="패스_926" d="M10.29 106.2l-.29.29a.73.73 0 0 1-1 0l-7.376-7.369a.73.73 0 0 1 0-1l.295-.295a.73.73 0 0 1 1 0l7.369 7.369a.678.678 0 0 1 .002 1.005z" class="cls-3" data-name="패스 926" transform="translate(-1.005 -97.168)"/>
                    <path id="패스_927" d="M8.519 106.016a1.139 1.139 0 0 1-.8-.324L.354 98.323A1.115 1.115 0 0 1 0 97.5a1.088 1.088 0 0 1 .324-.8l.295-.295a1.157 1.157 0 0 1 1.621 0l7.369 7.369a1.139 1.139 0 0 1 0 1.592l-.295.295a1.053 1.053 0 0 1-.795.355zm-7.1-9.049a.21.21 0 0 0-.177.088l-.295.295a.255.255 0 0 0-.088.177.21.21 0 0 0 .088.177l7.369 7.369a.269.269 0 0 0 .354 0l.295-.295a.255.255 0 0 0 .088-.177.21.21 0 0 0-.088-.177l-7.373-7.369a.178.178 0 0 0-.177-.088z" class="cls-3" data-name="패스 927" transform="translate(0 -96.075)"/>
                </g>
                <g id="그룹_1247" data-name="그룹 1247" transform="translate(0 .029)">
                    <path id="패스_928" d="M1.724 106.2l.295.295a.73.73 0 0 0 1 0l7.369-7.369a.73.73 0 0 0 0-1l-.295-.295a.73.73 0 0 0-1 0L1.724 105.2a.73.73 0 0 0 0 1z" class="cls-3" data-name="패스 928" transform="translate(-1.075 -97.198)"/>
                    <path id="패스_929" d="M1.415 106.086a1.139 1.139 0 0 1-.8-.324l-.295-.295a1.139 1.139 0 0 1 0-1.592l7.369-7.369a1.157 1.157 0 0 1 1.621 0l.295.295a1.139 1.139 0 0 1 0 1.592l-7.365 7.369a1.21 1.21 0 0 1-.825.324zm7.1-9.049a.21.21 0 0 0-.177.088l-7.365 7.37a.221.221 0 0 0 0 .354l.295.295a.269.269 0 0 0 .354 0l7.368-7.37a.255.255 0 0 0 .088-.177.21.21 0 0 0-.088-.177l-.29-.294a.255.255 0 0 0-.181-.089z" class="cls-3" data-name="패스 929" transform="translate(0 -96.175)"/>
                </g>
            </g>
            <g id="그룹_1251" data-name="그룹 1251" transform="translate(53.794 21.746)">
                <g id="그룹_1249" data-name="그룹 1249" transform="translate(.029)">
                    <path id="패스_930" d="M226.99 106.2l-.295.295a.73.73 0 0 1-1 0l-7.369-7.369a.73.73 0 0 1 0-1l.295-.295a.73.73 0 0 1 1 0l7.369 7.369a.73.73 0 0 1 0 1z" class="cls-3" data-name="패스 930" transform="translate(-217.734 -97.198)"/>
                    <path id="패스_931" d="M225.289 106.086a1.139 1.139 0 0 1-.8-.324l-7.369-7.369a1.139 1.139 0 0 1 0-1.592l.295-.295a1.157 1.157 0 0 1 1.621 0l7.369 7.369a1.139 1.139 0 0 1 0 1.592l-.295.295a1.267 1.267 0 0 1-.821.324zm-7.1-9.049a.21.21 0 0 0-.177.088l-.295.295a.255.255 0 0 0-.088.177.21.21 0 0 0 .088.177l7.369 7.369a.269.269 0 0 0 .354 0l.295-.295a.255.255 0 0 0 .088-.177.21.21 0 0 0-.088-.177l-7.369-7.369a.178.178 0 0 0-.181-.088z" class="cls-3" data-name="패스 931" transform="translate(-216.8 -96.175)"/>
                </g>
                <g id="그룹_1250" data-name="그룹 1250">
                    <path id="패스_932" d="M218.371 106.2l.295.295a.73.73 0 0 0 1 0l7.369-7.369a.73.73 0 0 0 0-1l-.295-.295a.73.73 0 0 0-1 0l-7.369 7.369a.678.678 0 0 0 0 1z" class="cls-3" data-name="패스 932" transform="translate(-217.723 -97.198)"/>
                    <path id="패스_933" d="M218.115 106.086a1.139 1.139 0 0 1-.8-.324l-.295-.295a1.139 1.139 0 0 1 0-1.592l7.369-7.369a1.157 1.157 0 0 1 1.621 0l.295.295a1.139 1.139 0 0 1 0 1.592l-7.369 7.369a1.21 1.21 0 0 1-.821.324zm7.1-9.049a.21.21 0 0 0-.177.088l-7.369 7.369a.255.255 0 0 0-.088.177.21.21 0 0 0 .088.177l.295.295a.269.269 0 0 0 .354 0l7.369-7.369a.255.255 0 0 0 .088-.177.21.21 0 0 0-.088-.177l-.295-.295a.255.255 0 0 0-.173-.088z" class="cls-3" data-name="패스 933" transform="translate(-216.7 -96.175)"/>
                </g>
            </g>
            <g id="그룹_1254" data-name="그룹 1254" transform="translate(37.818 21.746)">
                <g id="그룹_1252" data-name="그룹 1252" transform="translate(.029)">
                    <path id="패스_934" d="M172.79 106.2l-.295.295a.73.73 0 0 1-1 0l-7.369-7.369a.73.73 0 0 1 0-1l.295-.295a.73.73 0 0 1 1 0l7.369 7.369a.678.678 0 0 1 0 1z" class="cls-3" data-name="패스 934" transform="translate(-163.534 -97.198)"/>
                    <path id="패스_935" d="M171.089 106.086a1.139 1.139 0 0 1-.8-.324l-7.369-7.369a1.139 1.139 0 0 1 0-1.592l.295-.295a1.157 1.157 0 0 1 1.621 0l7.369 7.369a1.139 1.139 0 0 1 0 1.592l-.295.295a1.267 1.267 0 0 1-.821.324zm-7.1-9.049a.21.21 0 0 0-.177.088l-.295.295a.255.255 0 0 0-.088.177.21.21 0 0 0 .088.177l7.369 7.369a.269.269 0 0 0 .354 0l.295-.295a.255.255 0 0 0 .088-.177.21.21 0 0 0-.088-.177l-7.369-7.369a.178.178 0 0 0-.181-.088z" class="cls-3" data-name="패스 935" transform="translate(-162.6 -96.175)"/>
                </g>
                <g id="그룹_1253" data-name="그룹 1253">
                    <path id="패스_936" d="M164.224 106.2l.295.295a.73.73 0 0 0 1 0l7.369-7.369a.73.73 0 0 0 0-1l-.295-.295a.73.73 0 0 0-1 0l-7.369 7.369a.73.73 0 0 0 0 1z" class="cls-3" data-name="패스 936" transform="translate(-163.575 -97.198)"/>
                    <path id="패스_937" d="M163.915 106.086a1.139 1.139 0 0 1-.8-.324l-.295-.295a1.139 1.139 0 0 1 0-1.592l7.369-7.369a1.157 1.157 0 0 1 1.621 0l.295.295a1.139 1.139 0 0 1 0 1.592l-7.369 7.369a1.158 1.158 0 0 1-.821.324zm7.1-9.049a.21.21 0 0 0-.177.088l-7.369 7.369a.255.255 0 0 0-.088.177.21.21 0 0 0 .088.177l.295.295a.269.269 0 0 0 .354 0l7.369-7.369a.255.255 0 0 0 .088-.177.21.21 0 0 0-.088-.177l-.295-.295a.21.21 0 0 0-.173-.088z" class="cls-3" data-name="패스 937" transform="translate(-162.5 -96.175)"/>
                </g>
            </g>
            <g id="그룹_1257" data-name="그룹 1257" transform="translate(30.095 7.597)">
                <g id="그룹_1255" data-name="그룹 1255">
                    <path id="패스_938" d="M146.59 58.1l-.295.295a.73.73 0 0 1-1 0l-7.369-7.369a.73.73 0 0 1 0-1l.295-.295a.73.73 0 0 1 1 0l7.369 7.369a.73.73 0 0 1 0 1z" class="cls-3" data-name="패스 938" transform="translate(-137.305 -49.127)"/>
                    <path id="패스_939" d="M144.789 58.086a1.139 1.139 0 0 1-.8-.324l-7.369-7.369a1.139 1.139 0 0 1 0-1.592l.295-.295a1.157 1.157 0 0 1 1.621 0l7.369 7.369a1.139 1.139 0 0 1 0 1.592l-.295.295a1.21 1.21 0 0 1-.821.324zm-7.074-9.079a.21.21 0 0 0-.177.088l-.295.295a.255.255 0 0 0-.088.177.21.21 0 0 0 .088.177l7.369 7.369a.269.269 0 0 0 .354 0l.295-.295a.255.255 0 0 0 .088-.177.21.21 0 0 0-.088-.177l-7.369-7.364a.255.255 0 0 0-.177-.092z" class="cls-3" data-name="패스 939" transform="translate(-136.3 -48.175)"/>
                </g>
                <g id="그룹_1256" data-name="그룹 1256">
                    <path id="패스_940" d="M137.924 58.1l.295.295a.73.73 0 0 0 1 0l7.369-7.369a.73.73 0 0 0 0-1l-.295-.295a.73.73 0 0 0-1 0l-7.369 7.369a.73.73 0 0 0 0 1z" class="cls-3" data-name="패스 940" transform="translate(-137.305 -49.127)"/>
                    <path id="패스_941" d="M137.715 58.086a1.139 1.139 0 0 1-.8-.324l-.295-.295a1.139 1.139 0 0 1 0-1.592l7.369-7.369a1.157 1.157 0 0 1 1.621 0l.295.295a1.139 1.139 0 0 1 0 1.592l-7.369 7.369a1.267 1.267 0 0 1-.821.324zm7.074-9.079a.21.21 0 0 0-.177.088l-7.369 7.369a.255.255 0 0 0-.088.177.21.21 0 0 0 .088.177l.295.295a.269.269 0 0 0 .354 0l7.369-7.369a.255.255 0 0 0 .088-.177.21.21 0 0 0-.088-.177l-.295-.295a.178.178 0 0 0-.177-.087z" class="cls-3" data-name="패스 941" transform="translate(-136.3 -48.175)"/>
                </g>
            </g>
            <g id="그룹_1260" data-name="그룹 1260" transform="translate(14.119 7.597)">
                <g id="그룹_1258" data-name="그룹 1258" transform="translate(.029)">
                    <path id="패스_942" d="M92.39 58.1l-.295.295a.73.73 0 0 1-1 0l-7.369-7.369a.73.73 0 0 1 0-1l.295-.295a.73.73 0 0 1 1 0L92.39 57.1a.73.73 0 0 1 0 1z" class="cls-3" data-name="패스 942" transform="translate(-83.134 -49.127)"/>
                    <path id="패스_943" d="M90.689 58.086a1.139 1.139 0 0 1-.8-.324l-7.369-7.369a1.139 1.139 0 0 1 0-1.592l.295-.295a1.157 1.157 0 0 1 1.621 0l7.369 7.369a1.157 1.157 0 0 1 0 1.621l-.295.295a1.409 1.409 0 0 1-.821.295zm-7.1-9.079a.21.21 0 0 0-.177.088l-.295.295a.255.255 0 0 0-.088.177.21.21 0 0 0 .088.177l7.369 7.369a.269.269 0 0 0 .354 0l.295-.295a.269.269 0 0 0 0-.354L83.762 49.1a.21.21 0 0 0-.177-.092z" class="cls-3" data-name="패스 943" transform="translate(-82.2 -48.175)"/>
                </g>
                <g id="그룹_1259" data-name="그룹 1259">
                    <path id="패스_944" d="M83.771 58.1l.295.295a.73.73 0 0 0 1 0l7.369-7.369a.73.73 0 0 0 0-1l-.295-.295a.73.73 0 0 0-1 0L83.771 57.1a.678.678 0 0 0 0 1z" class="cls-3" data-name="패스 944" transform="translate(-83.123 -49.127)"/>
                    <path id="패스_945" d="M83.515 58.086a1.139 1.139 0 0 1-.8-.324l-.295-.295a1.139 1.139 0 0 1 0-1.592l7.369-7.369a1.157 1.157 0 0 1 1.621 0l.295.295a1.157 1.157 0 0 1 0 1.621l-7.365 7.37a1.409 1.409 0 0 1-.825.294zm7.1-9.079a.21.21 0 0 0-.177.088l-7.369 7.369a.255.255 0 0 0-.088.177.21.21 0 0 0 .088.177l.295.295a.269.269 0 0 0 .354 0l7.369-7.369a.269.269 0 0 0 0-.354l-.287-.29a.255.255 0 0 0-.181-.092z" class="cls-3" data-name="패스 945" transform="translate(-82.1 -48.175)"/>
                </g>
            </g>
            <g id="그룹_1263" data-name="그룹 1263" transform="translate(-1.864 7.568)">
                <g id="그룹_1261" data-name="그룹 1261" transform="translate(.029)">
                    <path id="패스_946" d="M38.19 58.1l-.295.295a.73.73 0 0 1-1 0l-7.369-7.369a.73.73 0 0 1 0-1l.295-.295a.73.73 0 0 1 1 0L38.19 57.1a.678.678 0 0 1 0 1z" class="cls-3" data-name="패스 946" transform="translate(-28.927 -49.098)"/>
                    <path id="패스_947" d="M36.471 58.016a1.139 1.139 0 0 1-.8-.324l-7.369-7.369a1.157 1.157 0 0 1 0-1.621l.295-.295a1.157 1.157 0 0 1 1.621 0l7.369 7.369a1.139 1.139 0 0 1 0 1.592l-.295.295a1.164 1.164 0 0 1-.821.353zm-7.1-9.079a.21.21 0 0 0-.177.088l-.295.295a.269.269 0 0 0 0 .354l7.369 7.369a.269.269 0 0 0 .354 0l.295-.295a.255.255 0 0 0 .083-.177.21.21 0 0 0-.088-.177l-7.369-7.369a.178.178 0 0 0-.175-.088z" class="cls-3" data-name="패스 947" transform="translate(-27.975 -48.075)"/>
                </g>
                <g id="그룹_1262" data-name="그룹 1262">
                    <path id="패스_948" d="M29.624 58.1l.295.295a.73.73 0 0 0 1 0l7.369-7.369a.73.73 0 0 0 0-1L38 49.724a.73.73 0 0 0-1 0l-7.369 7.369a.73.73 0 0 0-.007 1.007z" class="cls-3" data-name="패스 948" transform="translate(-28.968 -49.098)"/>
                    <path id="패스_949" d="M29.3 58.016a1.139 1.139 0 0 1-.8-.324l-.295-.295a1.157 1.157 0 0 1 0-1.621l7.369-7.369a1.157 1.157 0 0 1 1.621 0l.295.295a1.139 1.139 0 0 1 0 1.592l-7.369 7.369a1.115 1.115 0 0 1-.821.353zm-.442-1.238l.295.295a.269.269 0 0 0 .354 0l7.366-7.373a.255.255 0 0 0 .088-.177.21.21 0 0 0-.088-.177l-.295-.295a.269.269 0 0 0-.354 0l-7.369 7.369a.221.221 0 0 0 0 .358z" class="cls-3" data-name="패스 949" transform="translate(-27.875 -48.075)"/>
                </g>
            </g>
            <g id="그룹_1266" data-name="그룹 1266" transform="translate(62.01 7.568)">
                <g id="그룹_1264" data-name="그룹 1264" transform="translate(.029)">
                    <path id="패스_950" d="M254.89 58.1l-.295.295a.73.73 0 0 1-1 0l-7.369-7.369a.73.73 0 0 1 0-1l.295-.295a.73.73 0 0 1 1 0l7.369 7.369a.73.73 0 0 1 0 1z" class="cls-3" data-name="패스 950" transform="translate(-245.627 -49.098)"/>
                    <path id="패스_951" d="M253.171 58.016a1.139 1.139 0 0 1-.8-.324l-7.369-7.369a1.157 1.157 0 0 1 0-1.621l.295-.295a1.157 1.157 0 0 1 1.621 0l7.369 7.369a1.139 1.139 0 0 1 0 1.592l-.295.295a1.164 1.164 0 0 1-.821.353zm-7.1-9.079a.21.21 0 0 0-.177.088l-.295.295a.269.269 0 0 0 0 .354l7.369 7.369a.269.269 0 0 0 .354 0l.295-.295a.255.255 0 0 0 .088-.177.21.21 0 0 0-.088-.177l-7.369-7.369a.21.21 0 0 0-.18-.088z" class="cls-3" data-name="패스 951" transform="translate(-244.675 -48.075)"/>
                </g>
                <g id="그룹_1265" data-name="그룹 1265">
                    <path id="패스_952" d="M246.271 58.1l.295.295a.73.73 0 0 0 1 0l7.369-7.369a.73.73 0 0 0 0-1l-.295-.295a.73.73 0 0 0-1 0l-7.369 7.369a.678.678 0 0 0 0 1z" class="cls-3" data-name="패스 952" transform="translate(-245.615 -49.098)"/>
                    <path id="패스_953" d="M246 58.016a1.139 1.139 0 0 1-.8-.324l-.295-.295a1.157 1.157 0 0 1 0-1.621l7.369-7.369a1.157 1.157 0 0 1 1.621 0l.295.295a1.139 1.139 0 0 1 0 1.592l-7.369 7.369a1.164 1.164 0 0 1-.821.353zm-.472-1.238l.295.295a.269.269 0 0 0 .354 0l7.369-7.369a.255.255 0 0 0 .088-.177.21.21 0 0 0-.088-.177l-.295-.295a.269.269 0 0 0-.354 0l-7.369 7.369a.268.268 0 0 0-.002.354z" class="cls-3" data-name="패스 953" transform="translate(-244.575 -48.075)"/>
                </g>
            </g>
            <g id="그룹_1269" data-name="그룹 1269" transform="translate(46.041 7.597)">
                <g id="그룹_1267" data-name="그룹 1267" transform="translate(.029)">
                    <path id="패스_954" d="M200.69 58.1l-.295.295a.73.73 0 0 1-1 0l-7.369-7.369a.73.73 0 0 1 0-1l.295-.295a.73.73 0 0 1 1 0l7.369 7.369a.678.678 0 0 1 0 1z" class="cls-3" data-name="패스 954" transform="translate(-191.434 -49.127)"/>
                    <path id="패스_955" d="M198.989 58.086a1.139 1.139 0 0 1-.8-.324l-7.369-7.369a1.139 1.139 0 0 1 0-1.592l.295-.295a1.157 1.157 0 0 1 1.621 0l7.369 7.369a1.139 1.139 0 0 1 0 1.592l-.295.295a1.267 1.267 0 0 1-.821.324zm-7.1-9.079a.21.21 0 0 0-.177.088l-.295.295a.255.255 0 0 0-.088.177.21.21 0 0 0 .088.177l7.369 7.369a.269.269 0 0 0 .354 0l.295-.295a.255.255 0 0 0 .088-.177.21.21 0 0 0-.088-.177l-7.373-7.364a.178.178 0 0 0-.177-.092z" class="cls-3" data-name="패스 955" transform="translate(-190.5 -48.175)"/>
                </g>
                <g id="그룹_1268" data-name="그룹 1268">
                    <path id="패스_956" d="M192.124 58.1l.295.295a.73.73 0 0 0 1 0l7.369-7.369a.73.73 0 0 0 0-1l-.295-.295a.73.73 0 0 0-1 0l-7.369 7.369a.73.73 0 0 0 0 1z" class="cls-3" data-name="패스 956" transform="translate(-191.476 -49.127)"/>
                    <path id="패스_957" d="M191.815 58.086a1.139 1.139 0 0 1-.8-.324l-.295-.295a1.139 1.139 0 0 1 0-1.592l7.369-7.369a1.157 1.157 0 0 1 1.621 0l.295.295a1.139 1.139 0 0 1 0 1.592l-7.369 7.369a1.158 1.158 0 0 1-.821.324zm7.1-9.079a.21.21 0 0 0-.177.088l-7.369 7.369a.255.255 0 0 0-.088.177.21.21 0 0 0 .088.177l.295.295a.269.269 0 0 0 .354 0l7.369-7.369a.255.255 0 0 0 .088-.177.21.21 0 0 0-.088-.177l-.287-.29a.21.21 0 0 0-.181-.092z" class="cls-3" data-name="패스 957" transform="translate(-190.4 -48.175)"/>
                </g>
            </g>
            <g id="그룹_1272" data-name="그룹 1272" transform="translate(21.871 50.072)">
                <g id="그룹_1270" data-name="그룹 1270">
                    <path id="패스_958" d="M118.69 202.3l-.295.295a.73.73 0 0 1-1 0l-7.369-7.369a.73.73 0 0 1 0-1l.295-.295a.73.73 0 0 1 1 0l7.369 7.369a.73.73 0 0 1 0 1z" class="cls-3" data-name="패스 958" transform="translate(-109.405 -193.298)"/>
                    <path id="패스_959" d="M116.889 202.186a1.139 1.139 0 0 1-.8-.324l-7.369-7.369a1.139 1.139 0 0 1 0-1.592l.295-.295a1.157 1.157 0 0 1 1.621 0l7.369 7.369a1.157 1.157 0 0 1 0 1.621l-.295.295a1.341 1.341 0 0 1-.821.295zm-7.074-9.049a.21.21 0 0 0-.177.088l-.295.295a.255.255 0 0 0-.088.177.21.21 0 0 0 .088.177l7.369 7.369a.269.269 0 0 0 .354 0l.295-.295a.269.269 0 0 0 0-.354l-7.369-7.369a.255.255 0 0 0-.177-.088z" class="cls-3" data-name="패스 959" transform="translate(-108.4 -192.275)"/>
                </g>
                <g id="그룹_1271" data-name="그룹 1271">
                    <path id="패스_960" d="M110.024 202.3l.295.295a.73.73 0 0 0 1 0l7.369-7.369a.73.73 0 0 0 0-1l-.295-.295a.73.73 0 0 0-1 0l-7.369 7.369a.73.73 0 0 0 0 1z" class="cls-3" data-name="패스 960" transform="translate(-109.405 -193.298)"/>
                    <path id="패스_961" d="M109.815 202.186a1.139 1.139 0 0 1-.8-.324l-.295-.295a1.139 1.139 0 0 1 0-1.592l7.369-7.369a1.157 1.157 0 0 1 1.621 0l.295.295a1.157 1.157 0 0 1 0 1.621l-7.369 7.369a1.409 1.409 0 0 1-.821.295zm7.074-9.049a.21.21 0 0 0-.177.088l-7.369 7.369a.255.255 0 0 0-.088.177.21.21 0 0 0 .088.177l.295.295a.269.269 0 0 0 .354 0l7.369-7.369a.269.269 0 0 0 0-.354l-.295-.295a.178.178 0 0 0-.177-.088z" class="cls-3" data-name="패스 961" transform="translate(-108.4 -192.275)"/>
                </g>
            </g>
            <g id="그룹_1275" data-name="그룹 1275" transform="translate(5.888 50.043)">
                <g id="그룹_1273" data-name="그룹 1273" transform="translate(.029)">
                    <path id="패스_962" d="M64.49 202.3l-.295.295a.73.73 0 0 1-1 0l-7.369-7.369a.73.73 0 0 1 0-1l.295-.295a.73.73 0 0 1 1 0l7.369 7.369a.73.73 0 0 1 0 1z" class="cls-3" data-name="패스 962" transform="translate(-55.227 -193.268)"/>
                    <path id="패스_963" d="M62.771 202.116a1.139 1.139 0 0 1-.8-.324l-7.369-7.369a1.157 1.157 0 0 1 0-1.621l.295-.295a1.157 1.157 0 0 1 1.621 0l7.369 7.369a1.139 1.139 0 0 1 0 1.592l-.295.295a1.216 1.216 0 0 1-.821.353zm-7.1-9.049a.21.21 0 0 0-.177.088l-.295.295a.269.269 0 0 0 0 .354l7.369 7.369a.269.269 0 0 0 .354 0l.295-.295a.255.255 0 0 0 .088-.177.21.21 0 0 0-.088-.177l-7.369-7.369a.21.21 0 0 0-.18-.088z" class="cls-3" data-name="패스 963" transform="translate(-54.275 -192.175)"/>
                </g>
                <g id="그룹_1274" data-name="그룹 1274">
                    <path id="패스_964" d="M55.871 202.3l.295.295a.73.73 0 0 0 1 0l7.369-7.369a.73.73 0 0 0 0-1l-.295-.295a.73.73 0 0 0-1 0l-7.369 7.369a.678.678 0 0 0 0 1z" class="cls-3" data-name="패스 964" transform="translate(-55.215 -193.268)"/>
                    <path id="패스_965" d="M55.6 202.116a1.139 1.139 0 0 1-.8-.324l-.295-.295a1.157 1.157 0 0 1 0-1.621l7.369-7.369a1.157 1.157 0 0 1 1.621 0l.295.295a1.139 1.139 0 0 1 0 1.592l-7.369 7.369a1.164 1.164 0 0 1-.821.353zm-.472-1.238l.295.295a.269.269 0 0 0 .354 0l7.369-7.369a.255.255 0 0 0 .088-.177.21.21 0 0 0-.088-.177l-.295-.295a.269.269 0 0 0-.354 0l-7.369 7.369a.269.269 0 0 0-.002.354z" class="cls-3" data-name="패스 965" transform="translate(-54.175 -192.175)"/>
                </g>
            </g>
            <g id="그룹_1278" data-name="그룹 1278" transform="translate(-10.081 50.043)">
                <g id="그룹_1276" data-name="그룹 1276">
                    <path id="패스_966" d="M10.29 202.3l-.29.29a.73.73 0 0 1-1 0l-7.369-7.369a.73.73 0 0 1 0-1l.295-.295a.73.73 0 0 1 1 0l7.369 7.369a.678.678 0 0 1-.005 1.005z" class="cls-3" data-name="패스 966" transform="translate(-1.005 -193.268)"/>
                    <path id="패스_967" d="M8.519 202.116a1.139 1.139 0 0 1-.8-.324l-7.365-7.369A1.115 1.115 0 0 1 0 193.6a1.139 1.139 0 0 1 .324-.8l.295-.295a1.157 1.157 0 0 1 1.621 0l7.369 7.369a1.139 1.139 0 0 1 0 1.592l-.295.295a1.053 1.053 0 0 1-.795.355zm-7.1-9.049a.21.21 0 0 0-.177.088l-.295.295a.225.225 0 0 0-.059.147.21.21 0 0 0 .088.177l7.369 7.369a.269.269 0 0 0 .354 0l.295-.295a.255.255 0 0 0 .088-.177.21.21 0 0 0-.088-.177l-7.369-7.369a.426.426 0 0 0-.21-.058z" class="cls-3" data-name="패스 967" transform="translate(0 -192.175)"/>
                </g>
                <g id="그룹_1277" data-name="그룹 1277" transform="translate(0 .029)">
                    <path id="패스_968" d="M1.724 202.3l.295.295a.73.73 0 0 0 1 0l7.369-7.369a.73.73 0 0 0 0-1l-.295-.295a.73.73 0 0 0-1 0L1.724 201.3a.73.73 0 0 0 0 1z" class="cls-3" data-name="패스 968" transform="translate(-1.075 -193.298)"/>
                    <path id="패스_969" d="M1.415 202.186a1.139 1.139 0 0 1-.8-.324l-.295-.295a1.139 1.139 0 0 1 0-1.592l7.369-7.369a1.157 1.157 0 0 1 1.621 0l.295.295a1.139 1.139 0 0 1 0 1.592l-7.365 7.369a1.21 1.21 0 0 1-.825.324zm7.1-9.049a.21.21 0 0 0-.177.088l-7.365 7.37a.255.255 0 0 0-.088.177.21.21 0 0 0 .088.177l.295.295a.269.269 0 0 0 .354 0l7.369-7.369a.255.255 0 0 0 .088-.177.21.21 0 0 0-.088-.177l-.295-.295a.255.255 0 0 0-.177-.089z" class="cls-3" data-name="패스 969" transform="translate(0 -192.275)"/>
                </g>
            </g>
            <g id="그룹_1281" data-name="그룹 1281" transform="translate(53.794 50.072)">
                <g id="그룹_1279" data-name="그룹 1279" transform="translate(.029)">
                    <path id="패스_970" d="M226.99 202.3l-.295.295a.73.73 0 0 1-1 0l-7.369-7.369a.73.73 0 0 1 0-1l.295-.295a.73.73 0 0 1 1 0l7.369 7.369a.73.73 0 0 1 0 1z" class="cls-3" data-name="패스 970" transform="translate(-217.734 -193.298)"/>
                    <path id="패스_971" d="M225.289 202.186a1.139 1.139 0 0 1-.8-.324l-7.369-7.369a1.139 1.139 0 0 1 0-1.592l.295-.295a1.157 1.157 0 0 1 1.621 0l7.369 7.369a1.139 1.139 0 0 1 0 1.592l-.295.295a1.267 1.267 0 0 1-.821.324zm-7.1-9.049a.21.21 0 0 0-.177.088l-.295.295a.255.255 0 0 0-.088.177.21.21 0 0 0 .088.177l7.369 7.369a.269.269 0 0 0 .354 0l.295-.295a.255.255 0 0 0 .088-.177.21.21 0 0 0-.088-.177l-7.369-7.369a.178.178 0 0 0-.181-.088z" class="cls-3" data-name="패스 971" transform="translate(-216.8 -192.275)"/>
                </g>
                <g id="그룹_1280" data-name="그룹 1280">
                    <path id="패스_972" d="M218.371 202.3l.295.295a.73.73 0 0 0 1 0l7.369-7.369a.73.73 0 0 0 0-1l-.295-.295a.73.73 0 0 0-1 0l-7.369 7.369a.678.678 0 0 0 0 1z" class="cls-3" data-name="패스 972" transform="translate(-217.723 -193.298)"/>
                    <path id="패스_973" d="M218.115 202.186a1.139 1.139 0 0 1-.8-.324l-.295-.295a1.139 1.139 0 0 1 0-1.592l7.369-7.369a1.157 1.157 0 0 1 1.621 0l.295.295a1.139 1.139 0 0 1 0 1.592l-7.369 7.369a1.21 1.21 0 0 1-.821.324zm7.1-9.049a.21.21 0 0 0-.177.088l-7.369 7.369a.255.255 0 0 0-.088.177.21.21 0 0 0 .088.177l.295.295a.269.269 0 0 0 .354 0l7.369-7.369a.255.255 0 0 0 .088-.177.21.21 0 0 0-.088-.177l-.295-.295a.255.255 0 0 0-.173-.088z" class="cls-3" data-name="패스 973" transform="translate(-216.7 -192.275)"/>
                </g>
            </g>
            <g id="그룹_1284" data-name="그룹 1284" transform="translate(37.818 50.072)">
                <g id="그룹_1282" data-name="그룹 1282" transform="translate(.029)">
                    <path id="패스_974" d="M172.79 202.3l-.295.295a.73.73 0 0 1-1 0l-7.369-7.369a.73.73 0 0 1 0-1l.295-.295a.73.73 0 0 1 1 0l7.369 7.369a.678.678 0 0 1 0 1z" class="cls-3" data-name="패스 974" transform="translate(-163.534 -193.298)"/>
                    <path id="패스_975" d="M171.089 202.186a1.139 1.139 0 0 1-.8-.324l-7.369-7.369a1.139 1.139 0 0 1 0-1.592l.295-.295a1.157 1.157 0 0 1 1.621 0l7.369 7.369a1.139 1.139 0 0 1 0 1.592l-.295.295a1.267 1.267 0 0 1-.821.324zm-7.1-9.049a.21.21 0 0 0-.177.088l-.295.295a.255.255 0 0 0-.088.177.21.21 0 0 0 .088.177l7.369 7.369a.269.269 0 0 0 .354 0l.295-.295a.255.255 0 0 0 .088-.177.21.21 0 0 0-.088-.177l-7.369-7.369a.178.178 0 0 0-.181-.088z" class="cls-3" data-name="패스 975" transform="translate(-162.6 -192.275)"/>
                </g>
                <g id="그룹_1283" data-name="그룹 1283">
                    <path id="패스_976" d="M164.224 202.3l.295.295a.73.73 0 0 0 1 0l7.369-7.369a.73.73 0 0 0 0-1l-.295-.295a.73.73 0 0 0-1 0l-7.369 7.369a.73.73 0 0 0 0 1z" class="cls-3" data-name="패스 976" transform="translate(-163.575 -193.298)"/>
                    <path id="패스_977" d="M163.915 202.186a1.139 1.139 0 0 1-.8-.324l-.295-.295a1.139 1.139 0 0 1 0-1.592l7.369-7.369a1.157 1.157 0 0 1 1.621 0l.295.295a1.139 1.139 0 0 1 0 1.592l-7.369 7.369a1.267 1.267 0 0 1-.821.324zm7.1-9.049a.21.21 0 0 0-.177.088l-7.369 7.369a.255.255 0 0 0-.088.177.21.21 0 0 0 .088.177l.295.295a.269.269 0 0 0 .354 0l7.369-7.369a.255.255 0 0 0 .088-.177.21.21 0 0 0-.088-.177l-.295-.295a.21.21 0 0 0-.173-.088z" class="cls-3" data-name="패스 977" transform="translate(-162.5 -192.275)"/>
                </g>
            </g>
            <g id="그룹_1287" data-name="그룹 1287" transform="translate(30.095 35.924)">
                <g id="그룹_1285" data-name="그룹 1285">
                    <path id="패스_978" d="M146.59 154.2l-.295.295a.73.73 0 0 1-1 0l-7.369-7.369a.73.73 0 0 1 0-1l.295-.295a.73.73 0 0 1 1 0l7.369 7.369a.73.73 0 0 1 0 1z" class="cls-3" data-name="패스 978" transform="translate(-137.305 -145.227)"/>
                    <path id="패스_979" d="M144.789 154.186a1.139 1.139 0 0 1-.8-.324l-7.369-7.369a1.139 1.139 0 0 1 0-1.592l.295-.295a1.157 1.157 0 0 1 1.621 0l7.369 7.369a1.139 1.139 0 0 1 0 1.592l-.295.295a1.21 1.21 0 0 1-.821.324zm-7.074-9.079a.21.21 0 0 0-.177.088l-.295.295a.269.269 0 0 0 0 .354l7.369 7.369a.269.269 0 0 0 .354 0l.295-.295a.269.269 0 0 0 0-.354l-7.369-7.369a.255.255 0 0 0-.177-.087z" class="cls-3" data-name="패스 979" transform="translate(-136.3 -144.275)"/>
                </g>
                <g id="그룹_1286" data-name="그룹 1286">
                    <path id="패스_980" d="M137.924 154.2l.295.295a.73.73 0 0 0 1 0l7.369-7.369a.73.73 0 0 0 0-1l-.295-.295a.73.73 0 0 0-1 0l-7.369 7.369a.73.73 0 0 0 0 1z" class="cls-3" data-name="패스 980" transform="translate(-137.305 -145.227)"/>
                    <path id="패스_981" d="M137.715 154.186a1.139 1.139 0 0 1-.8-.324l-.295-.295a1.139 1.139 0 0 1 0-1.592l7.369-7.369a1.157 1.157 0 0 1 1.621 0l.295.295a1.139 1.139 0 0 1 0 1.592l-7.369 7.369a1.267 1.267 0 0 1-.821.324zm7.074-9.079a.21.21 0 0 0-.177.088l-7.369 7.369a.269.269 0 0 0 0 .354l.295.295a.269.269 0 0 0 .354 0l7.369-7.369a.269.269 0 0 0 0-.354l-.295-.295a.178.178 0 0 0-.177-.087z" class="cls-3" data-name="패스 981" transform="translate(-136.3 -144.275)"/>
                </g>
            </g>
            <g id="그룹_1290" data-name="그룹 1290" transform="translate(14.119 35.924)">
                <g id="그룹_1288" data-name="그룹 1288" transform="translate(.029)">
                    <path id="패스_982" d="M92.39 154.2l-.295.295a.73.73 0 0 1-1 0l-7.369-7.369a.73.73 0 0 1 0-1l.295-.295a.73.73 0 0 1 1 0l7.369 7.369a.73.73 0 0 1 0 1z" class="cls-3" data-name="패스 982" transform="translate(-83.134 -145.227)"/>
                    <path id="패스_983" d="M90.689 154.186a1.139 1.139 0 0 1-.8-.324l-7.369-7.369a1.139 1.139 0 0 1 0-1.592l.295-.295a1.157 1.157 0 0 1 1.621 0l7.369 7.369a1.157 1.157 0 0 1 0 1.621l-.295.295a1.409 1.409 0 0 1-.821.295zm-7.1-9.079a.21.21 0 0 0-.177.088l-.295.295a.269.269 0 0 0 0 .354l7.369 7.369a.269.269 0 0 0 .354 0l.295-.295a.269.269 0 0 0 0-.354l-7.373-7.364a.21.21 0 0 0-.177-.092z" class="cls-3" data-name="패스 983" transform="translate(-82.2 -144.275)"/>
                </g>
                <g id="그룹_1289" data-name="그룹 1289">
                    <path id="패스_984" d="M83.771 154.2l.295.295a.73.73 0 0 0 1 0l7.369-7.369a.73.73 0 0 0 0-1l-.295-.295a.73.73 0 0 0-1 0l-7.369 7.369a.678.678 0 0 0 0 1z" class="cls-3" data-name="패스 984" transform="translate(-83.123 -145.227)"/>
                    <path id="패스_985" d="M83.515 154.186a1.139 1.139 0 0 1-.8-.324l-.295-.295a1.139 1.139 0 0 1 0-1.592l7.369-7.369a1.157 1.157 0 0 1 1.621 0l.295.295a1.157 1.157 0 0 1 0 1.621l-7.369 7.369a1.409 1.409 0 0 1-.821.295zm7.1-9.079a.21.21 0 0 0-.177.088l-7.369 7.369a.269.269 0 0 0 0 .354l.295.295a.269.269 0 0 0 .354 0l7.369-7.369a.269.269 0 0 0 0-.354l-.287-.29a.255.255 0 0 0-.181-.092z" class="cls-3" data-name="패스 985" transform="translate(-82.1 -144.275)"/>
                </g>
            </g>
            <g id="그룹_1293" data-name="그룹 1293" transform="translate(-1.864 35.894)">
                <g id="그룹_1291" data-name="그룹 1291" transform="translate(.029)">
                    <path id="패스_986" d="M38.19 154.2l-.295.295a.73.73 0 0 1-1 0l-7.369-7.369a.73.73 0 0 1 0-1l.295-.295a.73.73 0 0 1 1 0l7.369 7.369a.678.678 0 0 1 0 1z" class="cls-3" data-name="패스 986" transform="translate(-28.927 -145.198)"/>
                    <path id="패스_987" d="M36.471 154.116a1.139 1.139 0 0 1-.8-.324l-7.369-7.369a1.157 1.157 0 0 1 0-1.621l.295-.295a1.157 1.157 0 0 1 1.621 0l7.369 7.369a1.139 1.139 0 0 1 0 1.592l-.295.295a1.164 1.164 0 0 1-.821.353zm-7.1-9.079a.21.21 0 0 0-.177.088l-.295.295a.269.269 0 0 0 0 .354l7.369 7.369a.269.269 0 0 0 .354 0l.295-.295a.269.269 0 0 0 0-.354l-7.369-7.369a.178.178 0 0 0-.18-.088z" class="cls-3" data-name="패스 987" transform="translate(-27.975 -144.175)"/>
                </g>
                <g id="그룹_1292" data-name="그룹 1292">
                    <path id="패스_988" d="M29.624 154.2l.295.295a.73.73 0 0 0 1 0l7.369-7.369a.73.73 0 0 0 0-1l-.288-.302a.73.73 0 0 0-1 0l-7.369 7.369a.73.73 0 0 0-.007 1.007z" class="cls-3" data-name="패스 988" transform="translate(-28.968 -145.198)"/>
                    <path id="패스_989" d="M29.3 154.116a1.139 1.139 0 0 1-.8-.324l-.295-.295a1.157 1.157 0 0 1 0-1.621l7.369-7.369a1.157 1.157 0 0 1 1.621 0l.295.295a1.139 1.139 0 0 1 0 1.592l-7.369 7.369a1.115 1.115 0 0 1-.821.353zm-.442-1.238l.295.295a.269.269 0 0 0 .354 0l7.369-7.369a.269.269 0 0 0 0-.354l-.295-.295a.269.269 0 0 0-.354 0l-7.369 7.369c-.121.059-.121.236-.003.354z" class="cls-3" data-name="패스 989" transform="translate(-27.875 -144.175)"/>
                </g>
            </g>
            <g id="그룹_1296" data-name="그룹 1296" transform="translate(62.01 35.894)">
                <g id="그룹_1294" data-name="그룹 1294" transform="translate(.029)">
                    <path id="패스_990" d="M254.89 154.2l-.295.295a.73.73 0 0 1-1 0l-7.369-7.369a.73.73 0 0 1 0-1l.295-.295a.73.73 0 0 1 1 0l7.369 7.369a.73.73 0 0 1 0 1z" class="cls-3" data-name="패스 990" transform="translate(-245.627 -145.198)"/>
                    <path id="패스_991" d="M253.171 154.116a1.139 1.139 0 0 1-.8-.324l-7.369-7.369a1.157 1.157 0 0 1 0-1.621l.295-.295a1.157 1.157 0 0 1 1.621 0l7.369 7.369a1.139 1.139 0 0 1 0 1.592l-.295.295a1.164 1.164 0 0 1-.821.353zm-7.1-9.079a.21.21 0 0 0-.177.088l-.295.295a.269.269 0 0 0 0 .354l7.369 7.369a.269.269 0 0 0 .354 0l.295-.295a.269.269 0 0 0 0-.354l-7.369-7.369a.21.21 0 0 0-.18-.088z" class="cls-3" data-name="패스 991" transform="translate(-244.675 -144.175)"/>
                </g>
                <g id="그룹_1295" data-name="그룹 1295">
                    <path id="패스_992" d="M246.271 154.2l.295.295a.73.73 0 0 0 1 0l7.369-7.369a.73.73 0 0 0 0-1l-.295-.295a.73.73 0 0 0-1 0l-7.369 7.369a.678.678 0 0 0 0 1z" class="cls-3" data-name="패스 992" transform="translate(-245.615 -145.198)"/>
                    <path id="패스_993" d="M246 154.116a1.139 1.139 0 0 1-.8-.324l-.295-.295a1.157 1.157 0 0 1 0-1.621l7.369-7.369a1.157 1.157 0 0 1 1.621 0l.295.295a1.139 1.139 0 0 1 0 1.592l-7.369 7.369a1.164 1.164 0 0 1-.821.353zm-.472-1.238l.295.295a.269.269 0 0 0 .354 0l7.369-7.369a.269.269 0 0 0 0-.354l-.295-.295a.269.269 0 0 0-.354 0l-7.369 7.369c-.091.059-.091.236-.002.354z" class="cls-3" data-name="패스 993" transform="translate(-244.575 -144.175)"/>
                </g>
            </g>
            <g id="그룹_1299" data-name="그룹 1299" transform="translate(46.041 35.924)">
                <g id="그룹_1297" data-name="그룹 1297" transform="translate(.029)">
                    <path id="패스_994" d="M200.69 154.2l-.295.295a.73.73 0 0 1-1 0l-7.369-7.369a.73.73 0 0 1 0-1l.295-.295a.73.73 0 0 1 1 0l7.369 7.369a.678.678 0 0 1 0 1z" class="cls-3" data-name="패스 994" transform="translate(-191.434 -145.227)"/>
                    <path id="패스_995" d="M198.989 154.186a1.139 1.139 0 0 1-.8-.324l-7.369-7.369a1.139 1.139 0 0 1 0-1.592l.295-.295a1.157 1.157 0 0 1 1.621 0l7.369 7.369a1.139 1.139 0 0 1 0 1.592l-.295.295a1.267 1.267 0 0 1-.821.324zm-7.1-9.079a.21.21 0 0 0-.177.088l-.295.295a.269.269 0 0 0 0 .354l7.369 7.369a.269.269 0 0 0 .354 0l.295-.295a.269.269 0 0 0 0-.354l-7.369-7.369a.178.178 0 0 0-.181-.087z" class="cls-3" data-name="패스 995" transform="translate(-190.5 -144.275)"/>
                </g>
                <g id="그룹_1298" data-name="그룹 1298">
                    <path id="패스_996" d="M192.124 154.2l.295.295a.73.73 0 0 0 1 0l7.369-7.369a.73.73 0 0 0 0-1l-.295-.295a.73.73 0 0 0-1 0l-7.369 7.369a.73.73 0 0 0 0 1z" class="cls-3" data-name="패스 996" transform="translate(-191.476 -145.227)"/>
                    <path id="패스_997" d="M191.815 154.186a1.139 1.139 0 0 1-.8-.324l-.295-.295a1.139 1.139 0 0 1 0-1.592l7.369-7.369a1.157 1.157 0 0 1 1.621 0l.295.295a1.139 1.139 0 0 1 0 1.592l-7.369 7.369a1.158 1.158 0 0 1-.821.324zm7.1-9.079a.21.21 0 0 0-.177.088l-7.369 7.369a.269.269 0 0 0 0 .354l.295.295a.269.269 0 0 0 .354 0l7.369-7.369a.269.269 0 0 0 0-.354l-.295-.295a.21.21 0 0 0-.173-.087z" class="cls-3" data-name="패스 997" transform="translate(-190.4 -144.275)"/>
                </g>
            </g>
            <g id="그룹_1302" data-name="그룹 1302" transform="translate(21.871 -6.581)">
                <g id="그룹_1300" data-name="그룹 1300">
                    <path id="패스_998" d="M118.69 10.1l-.295.295a.73.73 0 0 1-1 0l-7.369-7.369a.73.73 0 0 1 0-1l.295-.295a.73.73 0 0 1 1 0L118.69 9.1a.73.73 0 0 1 0 1z" class="cls-3" data-name="패스 998" transform="translate(-109.405 -1.098)"/>
                    <path id="패스_999" d="M116.889 9.986a1.139 1.139 0 0 1-.8-.324l-7.369-7.369a1.139 1.139 0 0 1 0-1.592l.295-.295a1.157 1.157 0 0 1 1.621 0l7.369 7.369a1.157 1.157 0 0 1 0 1.621l-.295.295a1.341 1.341 0 0 1-.821.295zM109.815.937a.21.21 0 0 0-.177.088l-.295.295a.255.255 0 0 0-.088.177.21.21 0 0 0 .088.177l7.369 7.369a.269.269 0 0 0 .354 0l.295-.295a.269.269 0 0 0 0-.354l-7.369-7.369a.255.255 0 0 0-.177-.088z" class="cls-3" data-name="패스 999" transform="translate(-108.4 -.075)"/>
                </g>
                <g id="그룹_1301" data-name="그룹 1301">
                    <path id="패스_1000" d="M110.024 10.1l.295.295a.73.73 0 0 0 1 0l7.369-7.369a.73.73 0 0 0 0-1l-.295-.295a.73.73 0 0 0-1 0L110.024 9.1a.73.73 0 0 0 0 1z" class="cls-3" data-name="패스 1000" transform="translate(-109.405 -1.098)"/>
                    <path id="패스_1001" d="M109.815 9.986a1.139 1.139 0 0 1-.8-.324l-.295-.295a1.139 1.139 0 0 1 0-1.592l7.373-7.368a1.157 1.157 0 0 1 1.621 0l.295.295a1.157 1.157 0 0 1 0 1.621l-7.369 7.369a1.409 1.409 0 0 1-.825.294zm7.074-9.049a.21.21 0 0 0-.177.088l-7.369 7.369a.255.255 0 0 0-.088.177.21.21 0 0 0 .088.177l.295.295a.269.269 0 0 0 .354 0l7.369-7.369a.269.269 0 0 0 0-.354l-.295-.295a.178.178 0 0 0-.177-.088z" class="cls-3" data-name="패스 1001" transform="translate(-108.4 -.075)"/>
                </g>
            </g>
            <g id="그룹_1305" data-name="그룹 1305" transform="translate(5.888 -6.61)">
                <g id="그룹_1303" data-name="그룹 1303" transform="translate(.029)">
                    <path id="패스_1002" d="M64.49 10.1l-.295.295a.73.73 0 0 1-1 0l-7.371-7.374a.73.73 0 0 1 0-1l.295-.295a.73.73 0 0 1 1 0l7.371 7.367a.73.73 0 0 1 0 1.007z" class="cls-3" data-name="패스 1002" transform="translate(-55.227 -1.068)"/>
                    <path id="패스_1003" d="M62.771 9.916a1.139 1.139 0 0 1-.8-.324l-7.364-7.369a1.157 1.157 0 0 1 0-1.621L54.9.307a1.157 1.157 0 0 1 1.621 0l7.369 7.369a1.139 1.139 0 0 1 0 1.592l-.295.295a1.164 1.164 0 0 1-.824.353zM55.668.867a.21.21 0 0 0-.177.088l-.291.295a.269.269 0 0 0 0 .354l7.369 7.369a.269.269 0 0 0 .354 0l.295-.295A.255.255 0 0 0 63.3 8.5a.21.21 0 0 0-.088-.177L55.845.955a.21.21 0 0 0-.177-.088z" class="cls-3" data-name="패스 1003" transform="translate(-54.275 .025)"/>
                </g>
                <g id="그룹_1304" data-name="그룹 1304">
                    <path id="패스_1004" d="M55.871 10.1l.295.295a.73.73 0 0 0 1 0l7.369-7.369a.73.73 0 0 0 0-1l-.295-.295a.73.73 0 0 0-1 0l-7.369 7.362a.678.678 0 0 0 0 1.007z" class="cls-3" data-name="패스 1004" transform="translate(-55.215 -1.068)"/>
                    <path id="패스_1005" d="M55.6 9.916a1.139 1.139 0 0 1-.8-.324l-.293-.292a1.157 1.157 0 0 1 0-1.621L61.876.307a1.157 1.157 0 0 1 1.621 0l.295.293a1.139 1.139 0 0 1 0 1.592l-7.369 7.37a1.164 1.164 0 0 1-.823.354zm-.472-1.238l.295.295a.269.269 0 0 0 .354 0L63.143 1.6a.255.255 0 0 0 .088-.177.21.21 0 0 0-.088-.177l-.295-.291a.269.269 0 0 0-.354 0l-7.368 7.369a.269.269 0 0 0 0 .354z" class="cls-3" data-name="패스 1005" transform="translate(-54.175 .025)"/>
                </g>
            </g>
            <g id="그룹_1308" data-name="그룹 1308" transform="translate(-10.081 -6.61)">
                <g id="그룹_1306" data-name="그룹 1306">
                    <path id="패스_1006" d="M10.29 10.1l-.29.29a.73.73 0 0 1-1 0L1.624 3.021a.73.73 0 0 1 0-1l.295-.295a.73.73 0 0 1 1 0l7.371 7.367a.678.678 0 0 1 0 1.007z" class="cls-3" data-name="패스 1006" transform="translate(-1.005 -1.068)"/>
                    <path id="패스_1007" d="M8.519 9.916a1.139 1.139 0 0 1-.8-.324L.354 2.223A1.115 1.115 0 0 1 0 1.4 1.139 1.139 0 0 1 .324.6L.619.307a1.157 1.157 0 0 1 1.621 0l7.369 7.369a1.139 1.139 0 0 1 0 1.592l-.295.295a1.053 1.053 0 0 1-.795.353zM1.415.867a.255.255 0 0 0-.177.088l-.295.295a.225.225 0 0 0-.059.15.21.21 0 0 0 .088.177l7.37 7.366a.269.269 0 0 0 .354 0l.295-.295a.255.255 0 0 0 .088-.177.21.21 0 0 0-.088-.177L1.621.926a.426.426 0 0 0-.206-.059z" class="cls-3" data-name="패스 1007" transform="translate(0 .025)"/>
                </g>
                <g id="그룹_1307" data-name="그룹 1307" transform="translate(0 .029)">
                    <path id="패스_1008" d="M1.724 10.1l.295.295a.73.73 0 0 0 1 0l7.371-7.374a.73.73 0 0 0 0-1l-.29-.297a.73.73 0 0 0-1 0L1.724 9.093a.73.73 0 0 0 0 1.007z" class="cls-3" data-name="패스 1008" transform="translate(-1.075 -1.098)"/>
                    <path id="패스_1009" d="M1.415 9.986a1.139 1.139 0 0 1-.8-.324l-.291-.295a1.139 1.139 0 0 1 0-1.592L7.693.407a1.157 1.157 0 0 1 1.621 0L9.609.7a1.139 1.139 0 0 1 0 1.592L2.24 9.662a1.21 1.21 0 0 1-.825.324zM8.519.937a.21.21 0 0 0-.177.088L.973 8.395a.221.221 0 0 0 0 .354l.295.295a.269.269 0 0 0 .354 0l7.368-7.37a.255.255 0 0 0 .089-.174.21.21 0 0 0-.089-.18l-.29-.294a.255.255 0 0 0-.181-.089z" class="cls-3" data-name="패스 1009" transform="translate(0 -.075)"/>
                </g>
            </g>
            <g id="그룹_1311" data-name="그룹 1311" transform="translate(53.794 -6.581)">
                <g id="그룹_1309" data-name="그룹 1309" transform="translate(.029)">
                    <path id="패스_1010" d="M226.99 10.1l-.295.295a.73.73 0 0 1-1 0l-7.369-7.369a.73.73 0 0 1 0-1l.295-.295a.73.73 0 0 1 1 0L226.99 9.1a.73.73 0 0 1 0 1z" class="cls-3" data-name="패스 1010" transform="translate(-217.734 -1.098)"/>
                    <path id="패스_1011" d="M225.289 9.986a1.139 1.139 0 0 1-.8-.324l-7.369-7.369a1.139 1.139 0 0 1 0-1.592l.295-.295a1.157 1.157 0 0 1 1.621 0l7.369 7.369a1.139 1.139 0 0 1 0 1.592l-.295.295a1.267 1.267 0 0 1-.821.324zm-7.1-9.049a.21.21 0 0 0-.177.088l-.295.295a.255.255 0 0 0-.088.177.21.21 0 0 0 .088.177l7.369 7.369a.269.269 0 0 0 .354 0l.295-.295a.255.255 0 0 0 .088-.177.21.21 0 0 0-.088-.177l-7.369-7.369a.178.178 0 0 0-.181-.088z" class="cls-3" data-name="패스 1011" transform="translate(-216.8 -.075)"/>
                </g>
                <g id="그룹_1310" data-name="그룹 1310">
                    <path id="패스_1012" d="M218.371 10.1l.295.295a.73.73 0 0 0 1 0l7.369-7.369a.73.73 0 0 0 0-1l-.295-.295a.73.73 0 0 0-1 0L218.371 9.1a.678.678 0 0 0 0 1z" class="cls-3" data-name="패스 1012" transform="translate(-217.723 -1.098)"/>
                    <path id="패스_1013" d="M218.115 9.986a1.139 1.139 0 0 1-.8-.324l-.295-.295a1.139 1.139 0 0 1 0-1.592l7.373-7.368a1.157 1.157 0 0 1 1.621 0l.295.295a1.139 1.139 0 0 1 0 1.592l-7.369 7.368a1.21 1.21 0 0 1-.825.324zm7.1-9.049a.21.21 0 0 0-.177.088l-7.369 7.369a.255.255 0 0 0-.088.177.21.21 0 0 0 .088.177l.295.295a.269.269 0 0 0 .354 0l7.369-7.369a.255.255 0 0 0 .088-.177.21.21 0 0 0-.088-.177l-.295-.295a.255.255 0 0 0-.173-.088z" class="cls-3" data-name="패스 1013" transform="translate(-216.7 -.075)"/>
                </g>
            </g>
            <g id="그룹_1314" data-name="그룹 1314" transform="translate(37.818 -6.581)">
                <g id="그룹_1312" data-name="그룹 1312" transform="translate(.029)">
                    <path id="패스_1014" d="M172.79 10.1l-.295.295a.73.73 0 0 1-1 0l-7.369-7.369a.73.73 0 0 1 0-1l.295-.295a.73.73 0 0 1 1 0L172.79 9.1a.678.678 0 0 1 0 1z" class="cls-3" data-name="패스 1014" transform="translate(-163.534 -1.098)"/>
                    <path id="패스_1015" d="M171.089 9.986a1.139 1.139 0 0 1-.8-.324l-7.369-7.369a1.139 1.139 0 0 1 0-1.592l.295-.295a1.157 1.157 0 0 1 1.621 0l7.369 7.369a1.139 1.139 0 0 1 0 1.592l-.295.295a1.267 1.267 0 0 1-.821.324zm-7.1-9.049a.21.21 0 0 0-.177.088l-.295.295a.255.255 0 0 0-.088.177.21.21 0 0 0 .088.177l7.369 7.369a.269.269 0 0 0 .354 0l.295-.295a.255.255 0 0 0 .088-.177.21.21 0 0 0-.088-.177l-7.369-7.369a.178.178 0 0 0-.181-.088z" class="cls-3" data-name="패스 1015" transform="translate(-162.6 -.075)"/>
                </g>
                <g id="그룹_1313" data-name="그룹 1313">
                    <path id="패스_1016" d="M164.224 10.1l.295.295a.73.73 0 0 0 1 0l7.369-7.369a.73.73 0 0 0 0-1l-.295-.295a.73.73 0 0 0-1 0L164.224 9.1a.73.73 0 0 0 0 1z" class="cls-3" data-name="패스 1016" transform="translate(-163.575 -1.098)"/>
                    <path id="패스_1017" d="M163.915 9.986a1.139 1.139 0 0 1-.8-.324l-.295-.295a1.139 1.139 0 0 1 0-1.592l7.373-7.368a1.157 1.157 0 0 1 1.621 0l.295.295a1.139 1.139 0 0 1 0 1.592l-7.369 7.368a1.158 1.158 0 0 1-.825.324zm7.1-9.049a.21.21 0 0 0-.177.088l-7.369 7.369a.255.255 0 0 0-.088.177.21.21 0 0 0 .088.177l.295.295a.269.269 0 0 0 .354 0l7.369-7.369a.255.255 0 0 0 .088-.177.21.21 0 0 0-.088-.177l-.295-.295a.21.21 0 0 0-.173-.088z" class="cls-3" data-name="패스 1017" transform="translate(-162.5 -.075)"/>
                </g>
            </g>
        </g>
    </g>
</svg>
