<svg xmlns="http://www.w3.org/2000/svg" viewBox="0 0 54 54">
    <defs>
        <style>
            .cls-1{fill:#edf0f1}.cls-2{clip-path:url(#clip-path)}.cls-3{fill:#acb1b3}
        </style>
        <clipPath id="clip-path">
            <circle id="타원_592" cx="27" cy="27" r="27" data-name="타원 592"/>
        </clipPath>
    </defs>
    <g id="icon_node_c_06" transform="translate(-34.2 -22.4)">
        <circle id="타원_591" cx="27" cy="27" r="27" class="cls-1" data-name="타원 591" transform="translate(34.2 22.4)"/>
        <g id="그룹_1205" class="cls-2" data-name="그룹 1205" transform="translate(34.2 22.4)">
            <g id="그룹_1132" data-name="그룹 1132" transform="translate(21.871 21.746)">
                <g id="그룹_1130" data-name="그룹 1130">
                    <path id="패스_793" d="M118.69 106.2l-.295.295a.73.73 0 0 1-1 0l-7.369-7.369a.73.73 0 0 1 0-1l.295-.295a.73.73 0 0 1 1 0l7.369 7.369a.73.73 0 0 1 0 1z" class="cls-3" data-name="패스 793" transform="translate(-109.405 -97.198)"/>
                    <path id="패스_794" d="M116.889 106.086a1.139 1.139 0 0 1-.8-.324l-7.369-7.369a1.139 1.139 0 0 1 0-1.592l.295-.295a1.157 1.157 0 0 1 1.621 0l7.369 7.369a1.157 1.157 0 0 1 0 1.621l-.295.295a1.341 1.341 0 0 1-.821.295zm-7.074-9.049a.21.21 0 0 0-.177.088l-.295.295a.255.255 0 0 0-.088.177.21.21 0 0 0 .088.177l7.369 7.369a.269.269 0 0 0 .354 0l.295-.295a.269.269 0 0 0 0-.354l-7.369-7.369a.255.255 0 0 0-.177-.088z" class="cls-3" data-name="패스 794" transform="translate(-108.4 -96.175)"/>
                </g>
                <g id="그룹_1131" data-name="그룹 1131">
                    <path id="패스_795" d="M110.024 106.2l.295.295a.73.73 0 0 0 1 0l7.369-7.369a.73.73 0 0 0 0-1l-.295-.295a.73.73 0 0 0-1 0l-7.369 7.369a.73.73 0 0 0 0 1z" class="cls-3" data-name="패스 795" transform="translate(-109.405 -97.198)"/>
                    <path id="패스_796" d="M109.815 106.086a1.139 1.139 0 0 1-.8-.324l-.295-.295a1.139 1.139 0 0 1 0-1.592l7.369-7.369a1.157 1.157 0 0 1 1.621 0l.295.295a1.157 1.157 0 0 1 0 1.621l-7.369 7.369a1.409 1.409 0 0 1-.821.295zm7.074-9.049a.21.21 0 0 0-.177.088l-7.369 7.369a.255.255 0 0 0-.088.177.21.21 0 0 0 .088.177l.295.295a.269.269 0 0 0 .354 0l7.369-7.369a.269.269 0 0 0 0-.354l-.295-.295a.178.178 0 0 0-.177-.088z" class="cls-3" data-name="패스 796" transform="translate(-108.4 -96.175)"/>
                </g>
            </g>
            <g id="그룹_1135" data-name="그룹 1135" transform="translate(5.888 21.716)">
                <g id="그룹_1133" data-name="그룹 1133" transform="translate(.029)">
                    <path id="패스_797" d="M64.49 106.2l-.295.295a.73.73 0 0 1-1 0l-7.369-7.369a.73.73 0 0 1 0-1l.295-.295a.73.73 0 0 1 1 0l7.369 7.369a.73.73 0 0 1 0 1z" class="cls-3" data-name="패스 797" transform="translate(-55.227 -97.168)"/>
                    <path id="패스_798" d="M62.771 106.016a1.139 1.139 0 0 1-.8-.324l-7.369-7.369a1.157 1.157 0 0 1 0-1.621l.295-.295a1.157 1.157 0 0 1 1.621 0l7.369 7.369a1.139 1.139 0 0 1 0 1.592l-.295.295a1.164 1.164 0 0 1-.821.353zm-7.1-9.049a.21.21 0 0 0-.177.088l-.295.295a.269.269 0 0 0 0 .354l7.369 7.369a.269.269 0 0 0 .354 0l.295-.295a.255.255 0 0 0 .088-.177.21.21 0 0 0-.088-.177l-7.369-7.369a.21.21 0 0 0-.18-.088z" class="cls-3" data-name="패스 798" transform="translate(-54.275 -96.075)"/>
                </g>
                <g id="그룹_1134" data-name="그룹 1134">
                    <path id="패스_799" d="M55.871 106.2l.295.295a.73.73 0 0 0 1 0l7.369-7.369a.73.73 0 0 0 0-1l-.295-.295a.73.73 0 0 0-1 0l-7.369 7.369a.678.678 0 0 0 0 1z" class="cls-3" data-name="패스 799" transform="translate(-55.215 -97.168)"/>
                    <path id="패스_800" d="M55.6 106.016a1.139 1.139 0 0 1-.8-.324l-.295-.295a1.157 1.157 0 0 1 0-1.621l7.369-7.369a1.157 1.157 0 0 1 1.621 0l.295.295a1.139 1.139 0 0 1 0 1.592l-7.369 7.369a1.164 1.164 0 0 1-.821.353zm-.472-1.238l.295.295a.269.269 0 0 0 .354 0l7.366-7.373a.255.255 0 0 0 .088-.177.21.21 0 0 0-.088-.177l-.295-.295a.269.269 0 0 0-.354 0l-7.369 7.369a.269.269 0 0 0 .001.358z" class="cls-3" data-name="패스 800" transform="translate(-54.175 -96.075)"/>
                </g>
            </g>
            <g id="그룹_1138" data-name="그룹 1138" transform="translate(-10.081 21.716)">
                <g id="그룹_1136" data-name="그룹 1136">
                    <path id="패스_801" d="M10.29 106.2l-.29.29a.73.73 0 0 1-1 0l-7.376-7.369a.73.73 0 0 1 0-1l.295-.295a.73.73 0 0 1 1 0l7.369 7.369a.678.678 0 0 1 .002 1.005z" class="cls-3" data-name="패스 801" transform="translate(-1.005 -97.168)"/>
                    <path id="패스_802" d="M8.519 106.016a1.139 1.139 0 0 1-.8-.324L.354 98.323A1.115 1.115 0 0 1 0 97.5a1.088 1.088 0 0 1 .324-.8l.295-.295a1.157 1.157 0 0 1 1.621 0l7.369 7.369a1.139 1.139 0 0 1 0 1.592l-.295.295a1.053 1.053 0 0 1-.795.355zm-7.1-9.049a.21.21 0 0 0-.177.088l-.295.295a.255.255 0 0 0-.088.177.21.21 0 0 0 .088.177l7.369 7.369a.269.269 0 0 0 .354 0l.295-.295a.255.255 0 0 0 .088-.177.21.21 0 0 0-.088-.177l-7.373-7.369a.178.178 0 0 0-.177-.088z" class="cls-3" data-name="패스 802" transform="translate(0 -96.075)"/>
                </g>
                <g id="그룹_1137" data-name="그룹 1137" transform="translate(0 .029)">
                    <path id="패스_803" d="M1.724 106.2l.295.295a.73.73 0 0 0 1 0l7.369-7.369a.73.73 0 0 0 0-1l-.295-.295a.73.73 0 0 0-1 0L1.724 105.2a.73.73 0 0 0 0 1z" class="cls-3" data-name="패스 803" transform="translate(-1.075 -97.198)"/>
                    <path id="패스_804" d="M1.415 106.086a1.139 1.139 0 0 1-.8-.324l-.295-.295a1.139 1.139 0 0 1 0-1.592l7.369-7.369a1.157 1.157 0 0 1 1.621 0l.295.295a1.139 1.139 0 0 1 0 1.592l-7.365 7.369a1.21 1.21 0 0 1-.825.324zm7.1-9.049a.21.21 0 0 0-.177.088l-7.365 7.37a.221.221 0 0 0 0 .354l.295.295a.269.269 0 0 0 .354 0l7.368-7.37a.255.255 0 0 0 .088-.177.21.21 0 0 0-.088-.177l-.29-.294a.255.255 0 0 0-.181-.089z" class="cls-3" data-name="패스 804" transform="translate(0 -96.175)"/>
                </g>
            </g>
            <g id="그룹_1141" data-name="그룹 1141" transform="translate(53.794 21.746)">
                <g id="그룹_1139" data-name="그룹 1139" transform="translate(.029)">
                    <path id="패스_805" d="M226.99 106.2l-.295.295a.73.73 0 0 1-1 0l-7.369-7.369a.73.73 0 0 1 0-1l.295-.295a.73.73 0 0 1 1 0l7.369 7.369a.73.73 0 0 1 0 1z" class="cls-3" data-name="패스 805" transform="translate(-217.734 -97.198)"/>
                    <path id="패스_806" d="M225.289 106.086a1.139 1.139 0 0 1-.8-.324l-7.369-7.369a1.139 1.139 0 0 1 0-1.592l.295-.295a1.157 1.157 0 0 1 1.621 0l7.369 7.369a1.139 1.139 0 0 1 0 1.592l-.295.295a1.267 1.267 0 0 1-.821.324zm-7.1-9.049a.21.21 0 0 0-.177.088l-.295.295a.255.255 0 0 0-.088.177.21.21 0 0 0 .088.177l7.369 7.369a.269.269 0 0 0 .354 0l.295-.295a.255.255 0 0 0 .088-.177.21.21 0 0 0-.088-.177l-7.369-7.369a.178.178 0 0 0-.181-.088z" class="cls-3" data-name="패스 806" transform="translate(-216.8 -96.175)"/>
                </g>
                <g id="그룹_1140" data-name="그룹 1140">
                    <path id="패스_807" d="M218.371 106.2l.295.295a.73.73 0 0 0 1 0l7.369-7.369a.73.73 0 0 0 0-1l-.295-.295a.73.73 0 0 0-1 0l-7.369 7.369a.678.678 0 0 0 0 1z" class="cls-3" data-name="패스 807" transform="translate(-217.723 -97.198)"/>
                    <path id="패스_808" d="M218.115 106.086a1.139 1.139 0 0 1-.8-.324l-.295-.295a1.139 1.139 0 0 1 0-1.592l7.369-7.369a1.157 1.157 0 0 1 1.621 0l.295.295a1.139 1.139 0 0 1 0 1.592l-7.369 7.369a1.21 1.21 0 0 1-.821.324zm7.1-9.049a.21.21 0 0 0-.177.088l-7.369 7.369a.255.255 0 0 0-.088.177.21.21 0 0 0 .088.177l.295.295a.269.269 0 0 0 .354 0l7.369-7.369a.255.255 0 0 0 .088-.177.21.21 0 0 0-.088-.177l-.295-.295a.255.255 0 0 0-.173-.088z" class="cls-3" data-name="패스 808" transform="translate(-216.7 -96.175)"/>
                </g>
            </g>
            <g id="그룹_1144" data-name="그룹 1144" transform="translate(37.818 21.746)">
                <g id="그룹_1142" data-name="그룹 1142" transform="translate(.029)">
                    <path id="패스_809" d="M172.79 106.2l-.295.295a.73.73 0 0 1-1 0l-7.369-7.369a.73.73 0 0 1 0-1l.295-.295a.73.73 0 0 1 1 0l7.369 7.369a.678.678 0 0 1 0 1z" class="cls-3" data-name="패스 809" transform="translate(-163.534 -97.198)"/>
                    <path id="패스_810" d="M171.089 106.086a1.139 1.139 0 0 1-.8-.324l-7.369-7.369a1.139 1.139 0 0 1 0-1.592l.295-.295a1.157 1.157 0 0 1 1.621 0l7.369 7.369a1.139 1.139 0 0 1 0 1.592l-.295.295a1.267 1.267 0 0 1-.821.324zm-7.1-9.049a.21.21 0 0 0-.177.088l-.295.295a.255.255 0 0 0-.088.177.21.21 0 0 0 .088.177l7.369 7.369a.269.269 0 0 0 .354 0l.295-.295a.255.255 0 0 0 .088-.177.21.21 0 0 0-.088-.177l-7.369-7.369a.178.178 0 0 0-.181-.088z" class="cls-3" data-name="패스 810" transform="translate(-162.6 -96.175)"/>
                </g>
                <g id="그룹_1143" data-name="그룹 1143">
                    <path id="패스_811" d="M164.224 106.2l.295.295a.73.73 0 0 0 1 0l7.369-7.369a.73.73 0 0 0 0-1l-.295-.295a.73.73 0 0 0-1 0l-7.369 7.369a.73.73 0 0 0 0 1z" class="cls-3" data-name="패스 811" transform="translate(-163.575 -97.198)"/>
                    <path id="패스_812" d="M163.915 106.086a1.139 1.139 0 0 1-.8-.324l-.295-.295a1.139 1.139 0 0 1 0-1.592l7.369-7.369a1.157 1.157 0 0 1 1.621 0l.295.295a1.139 1.139 0 0 1 0 1.592l-7.369 7.369a1.158 1.158 0 0 1-.821.324zm7.1-9.049a.21.21 0 0 0-.177.088l-7.369 7.369a.255.255 0 0 0-.088.177.21.21 0 0 0 .088.177l.295.295a.269.269 0 0 0 .354 0l7.369-7.369a.255.255 0 0 0 .088-.177.21.21 0 0 0-.088-.177l-.295-.295a.21.21 0 0 0-.173-.088z" class="cls-3" data-name="패스 812" transform="translate(-162.5 -96.175)"/>
                </g>
            </g>
            <g id="그룹_1147" data-name="그룹 1147" transform="translate(30.095 7.597)">
                <g id="그룹_1145" data-name="그룹 1145">
                    <path id="패스_813" d="M146.59 58.1l-.295.295a.73.73 0 0 1-1 0l-7.369-7.369a.73.73 0 0 1 0-1l.295-.295a.73.73 0 0 1 1 0l7.369 7.369a.73.73 0 0 1 0 1z" class="cls-3" data-name="패스 813" transform="translate(-137.305 -49.127)"/>
                    <path id="패스_814" d="M144.789 58.086a1.139 1.139 0 0 1-.8-.324l-7.369-7.369a1.139 1.139 0 0 1 0-1.592l.295-.295a1.157 1.157 0 0 1 1.621 0l7.369 7.369a1.139 1.139 0 0 1 0 1.592l-.295.295a1.21 1.21 0 0 1-.821.324zm-7.074-9.079a.21.21 0 0 0-.177.088l-.295.295a.255.255 0 0 0-.088.177.21.21 0 0 0 .088.177l7.369 7.369a.269.269 0 0 0 .354 0l.295-.295a.255.255 0 0 0 .088-.177.21.21 0 0 0-.088-.177l-7.369-7.364a.255.255 0 0 0-.177-.092z" class="cls-3" data-name="패스 814" transform="translate(-136.3 -48.175)"/>
                </g>
                <g id="그룹_1146" data-name="그룹 1146">
                    <path id="패스_815" d="M137.924 58.1l.295.295a.73.73 0 0 0 1 0l7.369-7.369a.73.73 0 0 0 0-1l-.295-.295a.73.73 0 0 0-1 0l-7.369 7.369a.73.73 0 0 0 0 1z" class="cls-3" data-name="패스 815" transform="translate(-137.305 -49.127)"/>
                    <path id="패스_816" d="M137.715 58.086a1.139 1.139 0 0 1-.8-.324l-.295-.295a1.139 1.139 0 0 1 0-1.592l7.369-7.369a1.157 1.157 0 0 1 1.621 0l.295.295a1.139 1.139 0 0 1 0 1.592l-7.369 7.369a1.267 1.267 0 0 1-.821.324zm7.074-9.079a.21.21 0 0 0-.177.088l-7.369 7.369a.255.255 0 0 0-.088.177.21.21 0 0 0 .088.177l.295.295a.269.269 0 0 0 .354 0l7.369-7.369a.255.255 0 0 0 .088-.177.21.21 0 0 0-.088-.177l-.295-.295a.178.178 0 0 0-.177-.087z" class="cls-3" data-name="패스 816" transform="translate(-136.3 -48.175)"/>
                </g>
            </g>
            <g id="그룹_1150" data-name="그룹 1150" transform="translate(14.119 7.597)">
                <g id="그룹_1148" data-name="그룹 1148" transform="translate(.029)">
                    <path id="패스_817" d="M92.39 58.1l-.295.295a.73.73 0 0 1-1 0l-7.369-7.369a.73.73 0 0 1 0-1l.295-.295a.73.73 0 0 1 1 0L92.39 57.1a.73.73 0 0 1 0 1z" class="cls-3" data-name="패스 817" transform="translate(-83.134 -49.127)"/>
                    <path id="패스_818" d="M90.689 58.086a1.139 1.139 0 0 1-.8-.324l-7.369-7.369a1.139 1.139 0 0 1 0-1.592l.295-.295a1.157 1.157 0 0 1 1.621 0l7.369 7.369a1.157 1.157 0 0 1 0 1.621l-.295.295a1.409 1.409 0 0 1-.821.295zm-7.1-9.079a.21.21 0 0 0-.177.088l-.295.295a.255.255 0 0 0-.088.177.21.21 0 0 0 .088.177l7.369 7.369a.269.269 0 0 0 .354 0l.295-.295a.269.269 0 0 0 0-.354L83.762 49.1a.21.21 0 0 0-.177-.092z" class="cls-3" data-name="패스 818" transform="translate(-82.2 -48.175)"/>
                </g>
                <g id="그룹_1149" data-name="그룹 1149">
                    <path id="패스_819" d="M83.771 58.1l.295.295a.73.73 0 0 0 1 0l7.369-7.369a.73.73 0 0 0 0-1l-.295-.295a.73.73 0 0 0-1 0L83.771 57.1a.678.678 0 0 0 0 1z" class="cls-3" data-name="패스 819" transform="translate(-83.123 -49.127)"/>
                    <path id="패스_820" d="M83.515 58.086a1.139 1.139 0 0 1-.8-.324l-.295-.295a1.139 1.139 0 0 1 0-1.592l7.369-7.369a1.157 1.157 0 0 1 1.621 0l.295.295a1.157 1.157 0 0 1 0 1.621l-7.365 7.37a1.409 1.409 0 0 1-.825.294zm7.1-9.079a.21.21 0 0 0-.177.088l-7.369 7.369a.255.255 0 0 0-.088.177.21.21 0 0 0 .088.177l.295.295a.269.269 0 0 0 .354 0l7.369-7.369a.269.269 0 0 0 0-.354l-.287-.29a.255.255 0 0 0-.181-.092z" class="cls-3" data-name="패스 820" transform="translate(-82.1 -48.175)"/>
                </g>
            </g>
            <g id="그룹_1153" data-name="그룹 1153" transform="translate(-1.864 7.568)">
                <g id="그룹_1151" data-name="그룹 1151" transform="translate(.029)">
                    <path id="패스_821" d="M38.19 58.1l-.295.295a.73.73 0 0 1-1 0l-7.369-7.369a.73.73 0 0 1 0-1l.295-.295a.73.73 0 0 1 1 0L38.19 57.1a.678.678 0 0 1 0 1z" class="cls-3" data-name="패스 821" transform="translate(-28.927 -49.098)"/>
                    <path id="패스_822" d="M36.471 58.016a1.139 1.139 0 0 1-.8-.324l-7.369-7.369a1.157 1.157 0 0 1 0-1.621l.295-.295a1.157 1.157 0 0 1 1.621 0l7.369 7.369a1.139 1.139 0 0 1 0 1.592l-.295.295a1.164 1.164 0 0 1-.821.353zm-7.1-9.079a.21.21 0 0 0-.177.088l-.295.295a.269.269 0 0 0 0 .354l7.369 7.369a.269.269 0 0 0 .354 0l.295-.295a.255.255 0 0 0 .083-.177.21.21 0 0 0-.088-.177l-7.369-7.369a.178.178 0 0 0-.175-.088z" class="cls-3" data-name="패스 822" transform="translate(-27.975 -48.075)"/>
                </g>
                <g id="그룹_1152" data-name="그룹 1152">
                    <path id="패스_823" d="M29.624 58.1l.295.295a.73.73 0 0 0 1 0l7.369-7.369a.73.73 0 0 0 0-1L38 49.724a.73.73 0 0 0-1 0l-7.369 7.369a.73.73 0 0 0-.007 1.007z" class="cls-3" data-name="패스 823" transform="translate(-28.968 -49.098)"/>
                    <path id="패스_824" d="M29.3 58.016a1.139 1.139 0 0 1-.8-.324l-.295-.295a1.157 1.157 0 0 1 0-1.621l7.369-7.369a1.157 1.157 0 0 1 1.621 0l.295.295a1.139 1.139 0 0 1 0 1.592l-7.369 7.369a1.115 1.115 0 0 1-.821.353zm-.442-1.238l.295.295a.269.269 0 0 0 .354 0l7.366-7.373a.255.255 0 0 0 .088-.177.21.21 0 0 0-.088-.177l-.295-.295a.269.269 0 0 0-.354 0l-7.369 7.369a.221.221 0 0 0 0 .358z" class="cls-3" data-name="패스 824" transform="translate(-27.875 -48.075)"/>
                </g>
            </g>
            <g id="그룹_1156" data-name="그룹 1156" transform="translate(62.01 7.568)">
                <g id="그룹_1154" data-name="그룹 1154" transform="translate(.029)">
                    <path id="패스_825" d="M254.89 58.1l-.295.295a.73.73 0 0 1-1 0l-7.369-7.369a.73.73 0 0 1 0-1l.295-.295a.73.73 0 0 1 1 0l7.369 7.369a.73.73 0 0 1 0 1z" class="cls-3" data-name="패스 825" transform="translate(-245.627 -49.098)"/>
                    <path id="패스_826" d="M253.171 58.016a1.139 1.139 0 0 1-.8-.324l-7.369-7.369a1.157 1.157 0 0 1 0-1.621l.295-.295a1.157 1.157 0 0 1 1.621 0l7.369 7.369a1.139 1.139 0 0 1 0 1.592l-.295.295a1.164 1.164 0 0 1-.821.353zm-7.1-9.079a.21.21 0 0 0-.177.088l-.295.295a.269.269 0 0 0 0 .354l7.369 7.369a.269.269 0 0 0 .354 0l.295-.295a.255.255 0 0 0 .088-.177.21.21 0 0 0-.088-.177l-7.369-7.369a.21.21 0 0 0-.18-.088z" class="cls-3" data-name="패스 826" transform="translate(-244.675 -48.075)"/>
                </g>
                <g id="그룹_1155" data-name="그룹 1155">
                    <path id="패스_827" d="M246.271 58.1l.295.295a.73.73 0 0 0 1 0l7.369-7.369a.73.73 0 0 0 0-1l-.295-.295a.73.73 0 0 0-1 0l-7.369 7.369a.678.678 0 0 0 0 1z" class="cls-3" data-name="패스 827" transform="translate(-245.615 -49.098)"/>
                    <path id="패스_828" d="M246 58.016a1.139 1.139 0 0 1-.8-.324l-.295-.295a1.157 1.157 0 0 1 0-1.621l7.369-7.369a1.157 1.157 0 0 1 1.621 0l.295.295a1.139 1.139 0 0 1 0 1.592l-7.369 7.369a1.164 1.164 0 0 1-.821.353zm-.472-1.238l.295.295a.269.269 0 0 0 .354 0l7.369-7.369a.255.255 0 0 0 .088-.177.21.21 0 0 0-.088-.177l-.295-.295a.269.269 0 0 0-.354 0l-7.369 7.369a.268.268 0 0 0-.002.354z" class="cls-3" data-name="패스 828" transform="translate(-244.575 -48.075)"/>
                </g>
            </g>
            <g id="그룹_1159" data-name="그룹 1159" transform="translate(46.041 7.597)">
                <g id="그룹_1157" data-name="그룹 1157" transform="translate(.029)">
                    <path id="패스_829" d="M200.69 58.1l-.295.295a.73.73 0 0 1-1 0l-7.369-7.369a.73.73 0 0 1 0-1l.295-.295a.73.73 0 0 1 1 0l7.369 7.369a.678.678 0 0 1 0 1z" class="cls-3" data-name="패스 829" transform="translate(-191.434 -49.127)"/>
                    <path id="패스_830" d="M198.989 58.086a1.139 1.139 0 0 1-.8-.324l-7.369-7.369a1.139 1.139 0 0 1 0-1.592l.295-.295a1.157 1.157 0 0 1 1.621 0l7.369 7.369a1.139 1.139 0 0 1 0 1.592l-.295.295a1.267 1.267 0 0 1-.821.324zm-7.1-9.079a.21.21 0 0 0-.177.088l-.295.295a.255.255 0 0 0-.088.177.21.21 0 0 0 .088.177l7.369 7.369a.269.269 0 0 0 .354 0l.295-.295a.255.255 0 0 0 .088-.177.21.21 0 0 0-.088-.177l-7.373-7.364a.178.178 0 0 0-.177-.092z" class="cls-3" data-name="패스 830" transform="translate(-190.5 -48.175)"/>
                </g>
                <g id="그룹_1158" data-name="그룹 1158">
                    <path id="패스_831" d="M192.124 58.1l.295.295a.73.73 0 0 0 1 0l7.369-7.369a.73.73 0 0 0 0-1l-.295-.295a.73.73 0 0 0-1 0l-7.369 7.369a.73.73 0 0 0 0 1z" class="cls-3" data-name="패스 831" transform="translate(-191.476 -49.127)"/>
                    <path id="패스_832" d="M191.815 58.086a1.139 1.139 0 0 1-.8-.324l-.295-.295a1.139 1.139 0 0 1 0-1.592l7.369-7.369a1.157 1.157 0 0 1 1.621 0l.295.295a1.139 1.139 0 0 1 0 1.592l-7.369 7.369a1.158 1.158 0 0 1-.821.324zm7.1-9.079a.21.21 0 0 0-.177.088l-7.369 7.369a.255.255 0 0 0-.088.177.21.21 0 0 0 .088.177l.295.295a.269.269 0 0 0 .354 0l7.369-7.369a.255.255 0 0 0 .088-.177.21.21 0 0 0-.088-.177l-.287-.29a.21.21 0 0 0-.181-.092z" class="cls-3" data-name="패스 832" transform="translate(-190.4 -48.175)"/>
                </g>
            </g>
            <g id="그룹_1162" data-name="그룹 1162" transform="translate(21.871 50.072)">
                <g id="그룹_1160" data-name="그룹 1160">
                    <path id="패스_833" d="M118.69 202.3l-.295.295a.73.73 0 0 1-1 0l-7.369-7.369a.73.73 0 0 1 0-1l.295-.295a.73.73 0 0 1 1 0l7.369 7.369a.73.73 0 0 1 0 1z" class="cls-3" data-name="패스 833" transform="translate(-109.405 -193.298)"/>
                    <path id="패스_834" d="M116.889 202.186a1.139 1.139 0 0 1-.8-.324l-7.369-7.369a1.139 1.139 0 0 1 0-1.592l.295-.295a1.157 1.157 0 0 1 1.621 0l7.369 7.369a1.157 1.157 0 0 1 0 1.621l-.295.295a1.341 1.341 0 0 1-.821.295zm-7.074-9.049a.21.21 0 0 0-.177.088l-.295.295a.255.255 0 0 0-.088.177.21.21 0 0 0 .088.177l7.369 7.369a.269.269 0 0 0 .354 0l.295-.295a.269.269 0 0 0 0-.354l-7.369-7.369a.255.255 0 0 0-.177-.088z" class="cls-3" data-name="패스 834" transform="translate(-108.4 -192.275)"/>
                </g>
                <g id="그룹_1161" data-name="그룹 1161">
                    <path id="패스_835" d="M110.024 202.3l.295.295a.73.73 0 0 0 1 0l7.369-7.369a.73.73 0 0 0 0-1l-.295-.295a.73.73 0 0 0-1 0l-7.369 7.369a.73.73 0 0 0 0 1z" class="cls-3" data-name="패스 835" transform="translate(-109.405 -193.298)"/>
                    <path id="패스_836" d="M109.815 202.186a1.139 1.139 0 0 1-.8-.324l-.295-.295a1.139 1.139 0 0 1 0-1.592l7.369-7.369a1.157 1.157 0 0 1 1.621 0l.295.295a1.157 1.157 0 0 1 0 1.621l-7.369 7.369a1.409 1.409 0 0 1-.821.295zm7.074-9.049a.21.21 0 0 0-.177.088l-7.369 7.369a.255.255 0 0 0-.088.177.21.21 0 0 0 .088.177l.295.295a.269.269 0 0 0 .354 0l7.369-7.369a.269.269 0 0 0 0-.354l-.295-.295a.178.178 0 0 0-.177-.088z" class="cls-3" data-name="패스 836" transform="translate(-108.4 -192.275)"/>
                </g>
            </g>
            <g id="그룹_1165" data-name="그룹 1165" transform="translate(5.888 50.043)">
                <g id="그룹_1163" data-name="그룹 1163" transform="translate(.029)">
                    <path id="패스_837" d="M64.49 202.3l-.295.295a.73.73 0 0 1-1 0l-7.369-7.369a.73.73 0 0 1 0-1l.295-.295a.73.73 0 0 1 1 0l7.369 7.369a.73.73 0 0 1 0 1z" class="cls-3" data-name="패스 837" transform="translate(-55.227 -193.268)"/>
                    <path id="패스_838" d="M62.771 202.116a1.139 1.139 0 0 1-.8-.324l-7.369-7.369a1.157 1.157 0 0 1 0-1.621l.295-.295a1.157 1.157 0 0 1 1.621 0l7.369 7.369a1.139 1.139 0 0 1 0 1.592l-.295.295a1.216 1.216 0 0 1-.821.353zm-7.1-9.049a.21.21 0 0 0-.177.088l-.295.295a.269.269 0 0 0 0 .354l7.369 7.369a.269.269 0 0 0 .354 0l.295-.295a.255.255 0 0 0 .088-.177.21.21 0 0 0-.088-.177l-7.369-7.369a.21.21 0 0 0-.18-.088z" class="cls-3" data-name="패스 838" transform="translate(-54.275 -192.175)"/>
                </g>
                <g id="그룹_1164" data-name="그룹 1164">
                    <path id="패스_839" d="M55.871 202.3l.295.295a.73.73 0 0 0 1 0l7.369-7.369a.73.73 0 0 0 0-1l-.295-.295a.73.73 0 0 0-1 0l-7.369 7.369a.678.678 0 0 0 0 1z" class="cls-3" data-name="패스 839" transform="translate(-55.215 -193.268)"/>
                    <path id="패스_840" d="M55.6 202.116a1.139 1.139 0 0 1-.8-.324l-.295-.295a1.157 1.157 0 0 1 0-1.621l7.369-7.369a1.157 1.157 0 0 1 1.621 0l.295.295a1.139 1.139 0 0 1 0 1.592l-7.369 7.369a1.164 1.164 0 0 1-.821.353zm-.472-1.238l.295.295a.269.269 0 0 0 .354 0l7.369-7.369a.255.255 0 0 0 .088-.177.21.21 0 0 0-.088-.177l-.295-.295a.269.269 0 0 0-.354 0l-7.369 7.369a.269.269 0 0 0-.002.354z" class="cls-3" data-name="패스 840" transform="translate(-54.175 -192.175)"/>
                </g>
            </g>
            <g id="그룹_1168" data-name="그룹 1168" transform="translate(-10.081 50.043)">
                <g id="그룹_1166" data-name="그룹 1166">
                    <path id="패스_841" d="M10.29 202.3l-.29.29a.73.73 0 0 1-1 0l-7.369-7.369a.73.73 0 0 1 0-1l.295-.295a.73.73 0 0 1 1 0l7.369 7.369a.678.678 0 0 1-.005 1.005z" class="cls-3" data-name="패스 841" transform="translate(-1.005 -193.268)"/>
                    <path id="패스_842" d="M8.519 202.116a1.139 1.139 0 0 1-.8-.324l-7.365-7.369A1.115 1.115 0 0 1 0 193.6a1.139 1.139 0 0 1 .324-.8l.295-.295a1.157 1.157 0 0 1 1.621 0l7.369 7.369a1.139 1.139 0 0 1 0 1.592l-.295.295a1.053 1.053 0 0 1-.795.355zm-7.1-9.049a.21.21 0 0 0-.177.088l-.295.295a.225.225 0 0 0-.059.147.21.21 0 0 0 .088.177l7.369 7.369a.269.269 0 0 0 .354 0l.295-.295a.255.255 0 0 0 .088-.177.21.21 0 0 0-.088-.177l-7.369-7.369a.426.426 0 0 0-.21-.058z" class="cls-3" data-name="패스 842" transform="translate(0 -192.175)"/>
                </g>
                <g id="그룹_1167" data-name="그룹 1167" transform="translate(0 .029)">
                    <path id="패스_843" d="M1.724 202.3l.295.295a.73.73 0 0 0 1 0l7.369-7.369a.73.73 0 0 0 0-1l-.295-.295a.73.73 0 0 0-1 0L1.724 201.3a.73.73 0 0 0 0 1z" class="cls-3" data-name="패스 843" transform="translate(-1.075 -193.298)"/>
                    <path id="패스_844" d="M1.415 202.186a1.139 1.139 0 0 1-.8-.324l-.295-.295a1.139 1.139 0 0 1 0-1.592l7.369-7.369a1.157 1.157 0 0 1 1.621 0l.295.295a1.139 1.139 0 0 1 0 1.592l-7.365 7.369a1.21 1.21 0 0 1-.825.324zm7.1-9.049a.21.21 0 0 0-.177.088l-7.365 7.37a.255.255 0 0 0-.088.177.21.21 0 0 0 .088.177l.295.295a.269.269 0 0 0 .354 0l7.369-7.369a.255.255 0 0 0 .088-.177.21.21 0 0 0-.088-.177l-.295-.295a.255.255 0 0 0-.177-.089z" class="cls-3" data-name="패스 844" transform="translate(0 -192.275)"/>
                </g>
            </g>
            <g id="그룹_1171" data-name="그룹 1171" transform="translate(53.794 50.072)">
                <g id="그룹_1169" data-name="그룹 1169" transform="translate(.029)">
                    <path id="패스_845" d="M226.99 202.3l-.295.295a.73.73 0 0 1-1 0l-7.369-7.369a.73.73 0 0 1 0-1l.295-.295a.73.73 0 0 1 1 0l7.369 7.369a.73.73 0 0 1 0 1z" class="cls-3" data-name="패스 845" transform="translate(-217.734 -193.298)"/>
                    <path id="패스_846" d="M225.289 202.186a1.139 1.139 0 0 1-.8-.324l-7.369-7.369a1.139 1.139 0 0 1 0-1.592l.295-.295a1.157 1.157 0 0 1 1.621 0l7.369 7.369a1.139 1.139 0 0 1 0 1.592l-.295.295a1.267 1.267 0 0 1-.821.324zm-7.1-9.049a.21.21 0 0 0-.177.088l-.295.295a.255.255 0 0 0-.088.177.21.21 0 0 0 .088.177l7.369 7.369a.269.269 0 0 0 .354 0l.295-.295a.255.255 0 0 0 .088-.177.21.21 0 0 0-.088-.177l-7.369-7.369a.178.178 0 0 0-.181-.088z" class="cls-3" data-name="패스 846" transform="translate(-216.8 -192.275)"/>
                </g>
                <g id="그룹_1170" data-name="그룹 1170">
                    <path id="패스_847" d="M218.371 202.3l.295.295a.73.73 0 0 0 1 0l7.369-7.369a.73.73 0 0 0 0-1l-.295-.295a.73.73 0 0 0-1 0l-7.369 7.369a.678.678 0 0 0 0 1z" class="cls-3" data-name="패스 847" transform="translate(-217.723 -193.298)"/>
                    <path id="패스_848" d="M218.115 202.186a1.139 1.139 0 0 1-.8-.324l-.295-.295a1.139 1.139 0 0 1 0-1.592l7.369-7.369a1.157 1.157 0 0 1 1.621 0l.295.295a1.139 1.139 0 0 1 0 1.592l-7.369 7.369a1.21 1.21 0 0 1-.821.324zm7.1-9.049a.21.21 0 0 0-.177.088l-7.369 7.369a.255.255 0 0 0-.088.177.21.21 0 0 0 .088.177l.295.295a.269.269 0 0 0 .354 0l7.369-7.369a.255.255 0 0 0 .088-.177.21.21 0 0 0-.088-.177l-.295-.295a.255.255 0 0 0-.173-.088z" class="cls-3" data-name="패스 848" transform="translate(-216.7 -192.275)"/>
                </g>
            </g>
            <g id="그룹_1174" data-name="그룹 1174" transform="translate(37.818 50.072)">
                <g id="그룹_1172" data-name="그룹 1172" transform="translate(.029)">
                    <path id="패스_849" d="M172.79 202.3l-.295.295a.73.73 0 0 1-1 0l-7.369-7.369a.73.73 0 0 1 0-1l.295-.295a.73.73 0 0 1 1 0l7.369 7.369a.678.678 0 0 1 0 1z" class="cls-3" data-name="패스 849" transform="translate(-163.534 -193.298)"/>
                    <path id="패스_850" d="M171.089 202.186a1.139 1.139 0 0 1-.8-.324l-7.369-7.369a1.139 1.139 0 0 1 0-1.592l.295-.295a1.157 1.157 0 0 1 1.621 0l7.369 7.369a1.139 1.139 0 0 1 0 1.592l-.295.295a1.267 1.267 0 0 1-.821.324zm-7.1-9.049a.21.21 0 0 0-.177.088l-.295.295a.255.255 0 0 0-.088.177.21.21 0 0 0 .088.177l7.369 7.369a.269.269 0 0 0 .354 0l.295-.295a.255.255 0 0 0 .088-.177.21.21 0 0 0-.088-.177l-7.369-7.369a.178.178 0 0 0-.181-.088z" class="cls-3" data-name="패스 850" transform="translate(-162.6 -192.275)"/>
                </g>
                <g id="그룹_1173" data-name="그룹 1173">
                    <path id="패스_851" d="M164.224 202.3l.295.295a.73.73 0 0 0 1 0l7.369-7.369a.73.73 0 0 0 0-1l-.295-.295a.73.73 0 0 0-1 0l-7.369 7.369a.73.73 0 0 0 0 1z" class="cls-3" data-name="패스 851" transform="translate(-163.575 -193.298)"/>
                    <path id="패스_852" d="M163.915 202.186a1.139 1.139 0 0 1-.8-.324l-.295-.295a1.139 1.139 0 0 1 0-1.592l7.369-7.369a1.157 1.157 0 0 1 1.621 0l.295.295a1.139 1.139 0 0 1 0 1.592l-7.369 7.369a1.267 1.267 0 0 1-.821.324zm7.1-9.049a.21.21 0 0 0-.177.088l-7.369 7.369a.255.255 0 0 0-.088.177.21.21 0 0 0 .088.177l.295.295a.269.269 0 0 0 .354 0l7.369-7.369a.255.255 0 0 0 .088-.177.21.21 0 0 0-.088-.177l-.295-.295a.21.21 0 0 0-.173-.088z" class="cls-3" data-name="패스 852" transform="translate(-162.5 -192.275)"/>
                </g>
            </g>
            <g id="그룹_1177" data-name="그룹 1177" transform="translate(30.095 35.924)">
                <g id="그룹_1175" data-name="그룹 1175">
                    <path id="패스_853" d="M146.59 154.2l-.295.295a.73.73 0 0 1-1 0l-7.369-7.369a.73.73 0 0 1 0-1l.295-.295a.73.73 0 0 1 1 0l7.369 7.369a.73.73 0 0 1 0 1z" class="cls-3" data-name="패스 853" transform="translate(-137.305 -145.227)"/>
                    <path id="패스_854" d="M144.789 154.186a1.139 1.139 0 0 1-.8-.324l-7.369-7.369a1.139 1.139 0 0 1 0-1.592l.295-.295a1.157 1.157 0 0 1 1.621 0l7.369 7.369a1.139 1.139 0 0 1 0 1.592l-.295.295a1.21 1.21 0 0 1-.821.324zm-7.074-9.079a.21.21 0 0 0-.177.088l-.295.295a.269.269 0 0 0 0 .354l7.369 7.369a.269.269 0 0 0 .354 0l.295-.295a.269.269 0 0 0 0-.354l-7.369-7.369a.255.255 0 0 0-.177-.087z" class="cls-3" data-name="패스 854" transform="translate(-136.3 -144.275)"/>
                </g>
                <g id="그룹_1176" data-name="그룹 1176">
                    <path id="패스_855" d="M137.924 154.2l.295.295a.73.73 0 0 0 1 0l7.369-7.369a.73.73 0 0 0 0-1l-.295-.295a.73.73 0 0 0-1 0l-7.369 7.369a.73.73 0 0 0 0 1z" class="cls-3" data-name="패스 855" transform="translate(-137.305 -145.227)"/>
                    <path id="패스_856" d="M137.715 154.186a1.139 1.139 0 0 1-.8-.324l-.295-.295a1.139 1.139 0 0 1 0-1.592l7.369-7.369a1.157 1.157 0 0 1 1.621 0l.295.295a1.139 1.139 0 0 1 0 1.592l-7.369 7.369a1.267 1.267 0 0 1-.821.324zm7.074-9.079a.21.21 0 0 0-.177.088l-7.369 7.369a.269.269 0 0 0 0 .354l.295.295a.269.269 0 0 0 .354 0l7.369-7.369a.269.269 0 0 0 0-.354l-.295-.295a.178.178 0 0 0-.177-.087z" class="cls-3" data-name="패스 856" transform="translate(-136.3 -144.275)"/>
                </g>
            </g>
            <g id="그룹_1180" data-name="그룹 1180" transform="translate(14.119 35.924)">
                <g id="그룹_1178" data-name="그룹 1178" transform="translate(.029)">
                    <path id="패스_857" d="M92.39 154.2l-.295.295a.73.73 0 0 1-1 0l-7.369-7.369a.73.73 0 0 1 0-1l.295-.295a.73.73 0 0 1 1 0l7.369 7.369a.73.73 0 0 1 0 1z" class="cls-3" data-name="패스 857" transform="translate(-83.134 -145.227)"/>
                    <path id="패스_858" d="M90.689 154.186a1.139 1.139 0 0 1-.8-.324l-7.369-7.369a1.139 1.139 0 0 1 0-1.592l.295-.295a1.157 1.157 0 0 1 1.621 0l7.369 7.369a1.157 1.157 0 0 1 0 1.621l-.295.295a1.409 1.409 0 0 1-.821.295zm-7.1-9.079a.21.21 0 0 0-.177.088l-.295.295a.269.269 0 0 0 0 .354l7.369 7.369a.269.269 0 0 0 .354 0l.295-.295a.269.269 0 0 0 0-.354l-7.373-7.364a.21.21 0 0 0-.177-.092z" class="cls-3" data-name="패스 858" transform="translate(-82.2 -144.275)"/>
                </g>
                <g id="그룹_1179" data-name="그룹 1179">
                    <path id="패스_859" d="M83.771 154.2l.295.295a.73.73 0 0 0 1 0l7.369-7.369a.73.73 0 0 0 0-1l-.295-.295a.73.73 0 0 0-1 0l-7.369 7.369a.678.678 0 0 0 0 1z" class="cls-3" data-name="패스 859" transform="translate(-83.123 -145.227)"/>
                    <path id="패스_860" d="M83.515 154.186a1.139 1.139 0 0 1-.8-.324l-.295-.295a1.139 1.139 0 0 1 0-1.592l7.369-7.369a1.157 1.157 0 0 1 1.621 0l.295.295a1.157 1.157 0 0 1 0 1.621l-7.369 7.369a1.409 1.409 0 0 1-.821.295zm7.1-9.079a.21.21 0 0 0-.177.088l-7.369 7.369a.269.269 0 0 0 0 .354l.295.295a.269.269 0 0 0 .354 0l7.369-7.369a.269.269 0 0 0 0-.354l-.287-.29a.255.255 0 0 0-.181-.092z" class="cls-3" data-name="패스 860" transform="translate(-82.1 -144.275)"/>
                </g>
            </g>
            <g id="그룹_1183" data-name="그룹 1183" transform="translate(-1.864 35.894)">
                <g id="그룹_1181" data-name="그룹 1181" transform="translate(.029)">
                    <path id="패스_861" d="M38.19 154.2l-.295.295a.73.73 0 0 1-1 0l-7.369-7.369a.73.73 0 0 1 0-1l.295-.295a.73.73 0 0 1 1 0l7.369 7.369a.678.678 0 0 1 0 1z" class="cls-3" data-name="패스 861" transform="translate(-28.927 -145.198)"/>
                    <path id="패스_862" d="M36.471 154.116a1.139 1.139 0 0 1-.8-.324l-7.369-7.369a1.157 1.157 0 0 1 0-1.621l.295-.295a1.157 1.157 0 0 1 1.621 0l7.369 7.369a1.139 1.139 0 0 1 0 1.592l-.295.295a1.164 1.164 0 0 1-.821.353zm-7.1-9.079a.21.21 0 0 0-.177.088l-.295.295a.269.269 0 0 0 0 .354l7.369 7.369a.269.269 0 0 0 .354 0l.295-.295a.269.269 0 0 0 0-.354l-7.369-7.369a.178.178 0 0 0-.18-.088z" class="cls-3" data-name="패스 862" transform="translate(-27.975 -144.175)"/>
                </g>
                <g id="그룹_1182" data-name="그룹 1182">
                    <path id="패스_863" d="M29.624 154.2l.295.295a.73.73 0 0 0 1 0l7.369-7.369a.73.73 0 0 0 0-1l-.288-.302a.73.73 0 0 0-1 0l-7.369 7.369a.73.73 0 0 0-.007 1.007z" class="cls-3" data-name="패스 863" transform="translate(-28.968 -145.198)"/>
                    <path id="패스_864" d="M29.3 154.116a1.139 1.139 0 0 1-.8-.324l-.295-.295a1.157 1.157 0 0 1 0-1.621l7.369-7.369a1.157 1.157 0 0 1 1.621 0l.295.295a1.139 1.139 0 0 1 0 1.592l-7.369 7.369a1.115 1.115 0 0 1-.821.353zm-.442-1.238l.295.295a.269.269 0 0 0 .354 0l7.369-7.369a.269.269 0 0 0 0-.354l-.295-.295a.269.269 0 0 0-.354 0l-7.369 7.369c-.121.059-.121.236-.003.354z" class="cls-3" data-name="패스 864" transform="translate(-27.875 -144.175)"/>
                </g>
            </g>
            <g id="그룹_1186" data-name="그룹 1186" transform="translate(62.01 35.894)">
                <g id="그룹_1184" data-name="그룹 1184" transform="translate(.029)">
                    <path id="패스_865" d="M254.89 154.2l-.295.295a.73.73 0 0 1-1 0l-7.369-7.369a.73.73 0 0 1 0-1l.295-.295a.73.73 0 0 1 1 0l7.369 7.369a.73.73 0 0 1 0 1z" class="cls-3" data-name="패스 865" transform="translate(-245.627 -145.198)"/>
                    <path id="패스_866" d="M253.171 154.116a1.139 1.139 0 0 1-.8-.324l-7.369-7.369a1.157 1.157 0 0 1 0-1.621l.295-.295a1.157 1.157 0 0 1 1.621 0l7.369 7.369a1.139 1.139 0 0 1 0 1.592l-.295.295a1.164 1.164 0 0 1-.821.353zm-7.1-9.079a.21.21 0 0 0-.177.088l-.295.295a.269.269 0 0 0 0 .354l7.369 7.369a.269.269 0 0 0 .354 0l.295-.295a.269.269 0 0 0 0-.354l-7.369-7.369a.21.21 0 0 0-.18-.088z" class="cls-3" data-name="패스 866" transform="translate(-244.675 -144.175)"/>
                </g>
                <g id="그룹_1185" data-name="그룹 1185">
                    <path id="패스_867" d="M246.271 154.2l.295.295a.73.73 0 0 0 1 0l7.369-7.369a.73.73 0 0 0 0-1l-.295-.295a.73.73 0 0 0-1 0l-7.369 7.369a.678.678 0 0 0 0 1z" class="cls-3" data-name="패스 867" transform="translate(-245.615 -145.198)"/>
                    <path id="패스_868" d="M246 154.116a1.139 1.139 0 0 1-.8-.324l-.295-.295a1.157 1.157 0 0 1 0-1.621l7.369-7.369a1.157 1.157 0 0 1 1.621 0l.295.295a1.139 1.139 0 0 1 0 1.592l-7.369 7.369a1.164 1.164 0 0 1-.821.353zm-.472-1.238l.295.295a.269.269 0 0 0 .354 0l7.369-7.369a.269.269 0 0 0 0-.354l-.295-.295a.269.269 0 0 0-.354 0l-7.369 7.369c-.091.059-.091.236-.002.354z" class="cls-3" data-name="패스 868" transform="translate(-244.575 -144.175)"/>
                </g>
            </g>
            <g id="그룹_1189" data-name="그룹 1189" transform="translate(46.041 35.924)">
                <g id="그룹_1187" data-name="그룹 1187" transform="translate(.029)">
                    <path id="패스_869" d="M200.69 154.2l-.295.295a.73.73 0 0 1-1 0l-7.369-7.369a.73.73 0 0 1 0-1l.295-.295a.73.73 0 0 1 1 0l7.369 7.369a.678.678 0 0 1 0 1z" class="cls-3" data-name="패스 869" transform="translate(-191.434 -145.227)"/>
                    <path id="패스_870" d="M198.989 154.186a1.139 1.139 0 0 1-.8-.324l-7.369-7.369a1.139 1.139 0 0 1 0-1.592l.295-.295a1.157 1.157 0 0 1 1.621 0l7.369 7.369a1.139 1.139 0 0 1 0 1.592l-.295.295a1.267 1.267 0 0 1-.821.324zm-7.1-9.079a.21.21 0 0 0-.177.088l-.295.295a.269.269 0 0 0 0 .354l7.369 7.369a.269.269 0 0 0 .354 0l.295-.295a.269.269 0 0 0 0-.354l-7.369-7.369a.178.178 0 0 0-.181-.087z" class="cls-3" data-name="패스 870" transform="translate(-190.5 -144.275)"/>
                </g>
                <g id="그룹_1188" data-name="그룹 1188">
                    <path id="패스_871" d="M192.124 154.2l.295.295a.73.73 0 0 0 1 0l7.369-7.369a.73.73 0 0 0 0-1l-.295-.295a.73.73 0 0 0-1 0l-7.369 7.369a.73.73 0 0 0 0 1z" class="cls-3" data-name="패스 871" transform="translate(-191.476 -145.227)"/>
                    <path id="패스_872" d="M191.815 154.186a1.139 1.139 0 0 1-.8-.324l-.295-.295a1.139 1.139 0 0 1 0-1.592l7.369-7.369a1.157 1.157 0 0 1 1.621 0l.295.295a1.139 1.139 0 0 1 0 1.592l-7.369 7.369a1.158 1.158 0 0 1-.821.324zm7.1-9.079a.21.21 0 0 0-.177.088l-7.369 7.369a.269.269 0 0 0 0 .354l.295.295a.269.269 0 0 0 .354 0l7.369-7.369a.269.269 0 0 0 0-.354l-.295-.295a.21.21 0 0 0-.173-.087z" class="cls-3" data-name="패스 872" transform="translate(-190.4 -144.275)"/>
                </g>
            </g>
            <g id="그룹_1192" data-name="그룹 1192" transform="translate(21.871 -6.581)">
                <g id="그룹_1190" data-name="그룹 1190">
                    <path id="패스_873" d="M118.69 10.1l-.295.295a.73.73 0 0 1-1 0l-7.369-7.369a.73.73 0 0 1 0-1l.295-.295a.73.73 0 0 1 1 0L118.69 9.1a.73.73 0 0 1 0 1z" class="cls-3" data-name="패스 873" transform="translate(-109.405 -1.098)"/>
                    <path id="패스_874" d="M116.889 9.986a1.139 1.139 0 0 1-.8-.324l-7.369-7.369a1.139 1.139 0 0 1 0-1.592l.295-.295a1.157 1.157 0 0 1 1.621 0l7.369 7.369a1.157 1.157 0 0 1 0 1.621l-.295.295a1.341 1.341 0 0 1-.821.295zM109.815.937a.21.21 0 0 0-.177.088l-.295.295a.255.255 0 0 0-.088.177.21.21 0 0 0 .088.177l7.369 7.369a.269.269 0 0 0 .354 0l.295-.295a.269.269 0 0 0 0-.354l-7.369-7.369a.255.255 0 0 0-.177-.088z" class="cls-3" data-name="패스 874" transform="translate(-108.4 -.075)"/>
                </g>
                <g id="그룹_1191" data-name="그룹 1191">
                    <path id="패스_875" d="M110.024 10.1l.295.295a.73.73 0 0 0 1 0l7.369-7.369a.73.73 0 0 0 0-1l-.295-.295a.73.73 0 0 0-1 0L110.024 9.1a.73.73 0 0 0 0 1z" class="cls-3" data-name="패스 875" transform="translate(-109.405 -1.098)"/>
                    <path id="패스_876" d="M109.815 9.986a1.139 1.139 0 0 1-.8-.324l-.295-.295a1.139 1.139 0 0 1 0-1.592l7.373-7.368a1.157 1.157 0 0 1 1.621 0l.295.295a1.157 1.157 0 0 1 0 1.621l-7.369 7.369a1.409 1.409 0 0 1-.825.294zm7.074-9.049a.21.21 0 0 0-.177.088l-7.369 7.369a.255.255 0 0 0-.088.177.21.21 0 0 0 .088.177l.295.295a.269.269 0 0 0 .354 0l7.369-7.369a.269.269 0 0 0 0-.354l-.295-.295a.178.178 0 0 0-.177-.088z" class="cls-3" data-name="패스 876" transform="translate(-108.4 -.075)"/>
                </g>
            </g>
            <g id="그룹_1195" data-name="그룹 1195" transform="translate(5.888 -6.61)">
                <g id="그룹_1193" data-name="그룹 1193" transform="translate(.029)">
                    <path id="패스_877" d="M64.49 10.1l-.295.295a.73.73 0 0 1-1 0l-7.371-7.374a.73.73 0 0 1 0-1l.295-.295a.73.73 0 0 1 1 0l7.371 7.367a.73.73 0 0 1 0 1.007z" class="cls-3" data-name="패스 877" transform="translate(-55.227 -1.068)"/>
                    <path id="패스_878" d="M62.771 9.916a1.139 1.139 0 0 1-.8-.324l-7.364-7.369a1.157 1.157 0 0 1 0-1.621L54.9.307a1.157 1.157 0 0 1 1.621 0l7.369 7.369a1.139 1.139 0 0 1 0 1.592l-.295.295a1.164 1.164 0 0 1-.824.353zM55.668.867a.21.21 0 0 0-.177.088l-.291.295a.269.269 0 0 0 0 .354l7.369 7.369a.269.269 0 0 0 .354 0l.295-.295A.255.255 0 0 0 63.3 8.5a.21.21 0 0 0-.088-.177L55.845.955a.21.21 0 0 0-.177-.088z" class="cls-3" data-name="패스 878" transform="translate(-54.275 .025)"/>
                </g>
                <g id="그룹_1194" data-name="그룹 1194">
                    <path id="패스_879" d="M55.871 10.1l.295.295a.73.73 0 0 0 1 0l7.369-7.369a.73.73 0 0 0 0-1l-.295-.295a.73.73 0 0 0-1 0l-7.369 7.362a.678.678 0 0 0 0 1.007z" class="cls-3" data-name="패스 879" transform="translate(-55.215 -1.068)"/>
                    <path id="패스_880" d="M55.6 9.916a1.139 1.139 0 0 1-.8-.324l-.293-.292a1.157 1.157 0 0 1 0-1.621L61.876.307a1.157 1.157 0 0 1 1.621 0l.295.293a1.139 1.139 0 0 1 0 1.592l-7.369 7.37a1.164 1.164 0 0 1-.823.354zm-.472-1.238l.295.295a.269.269 0 0 0 .354 0L63.143 1.6a.255.255 0 0 0 .088-.177.21.21 0 0 0-.088-.177l-.295-.291a.269.269 0 0 0-.354 0l-7.368 7.369a.269.269 0 0 0 0 .354z" class="cls-3" data-name="패스 880" transform="translate(-54.175 .025)"/>
                </g>
            </g>
            <g id="그룹_1198" data-name="그룹 1198" transform="translate(-10.081 -6.61)">
                <g id="그룹_1196" data-name="그룹 1196">
                    <path id="패스_881" d="M10.29 10.1l-.29.29a.73.73 0 0 1-1 0L1.624 3.021a.73.73 0 0 1 0-1l.295-.295a.73.73 0 0 1 1 0l7.371 7.367a.678.678 0 0 1 0 1.007z" class="cls-3" data-name="패스 881" transform="translate(-1.005 -1.068)"/>
                    <path id="패스_882" d="M8.519 9.916a1.139 1.139 0 0 1-.8-.324L.354 2.223A1.115 1.115 0 0 1 0 1.4 1.139 1.139 0 0 1 .324.6L.619.307a1.157 1.157 0 0 1 1.621 0l7.369 7.369a1.139 1.139 0 0 1 0 1.592l-.295.295a1.053 1.053 0 0 1-.795.353zM1.415.867a.255.255 0 0 0-.177.088l-.295.295a.225.225 0 0 0-.059.15.21.21 0 0 0 .088.177l7.37 7.366a.269.269 0 0 0 .354 0l.295-.295a.255.255 0 0 0 .088-.177.21.21 0 0 0-.088-.177L1.621.926a.426.426 0 0 0-.206-.059z" class="cls-3" data-name="패스 882" transform="translate(0 .025)"/>
                </g>
                <g id="그룹_1197" data-name="그룹 1197" transform="translate(0 .029)">
                    <path id="패스_883" d="M1.724 10.1l.295.295a.73.73 0 0 0 1 0l7.371-7.374a.73.73 0 0 0 0-1l-.29-.297a.73.73 0 0 0-1 0L1.724 9.093a.73.73 0 0 0 0 1.007z" class="cls-3" data-name="패스 883" transform="translate(-1.075 -1.098)"/>
                    <path id="패스_884" d="M1.415 9.986a1.139 1.139 0 0 1-.8-.324l-.291-.295a1.139 1.139 0 0 1 0-1.592L7.693.407a1.157 1.157 0 0 1 1.621 0L9.609.7a1.139 1.139 0 0 1 0 1.592L2.24 9.662a1.21 1.21 0 0 1-.825.324zM8.519.937a.21.21 0 0 0-.177.088L.973 8.395a.221.221 0 0 0 0 .354l.295.295a.269.269 0 0 0 .354 0l7.368-7.37a.255.255 0 0 0 .089-.174.21.21 0 0 0-.089-.18l-.29-.294a.255.255 0 0 0-.181-.089z" class="cls-3" data-name="패스 884" transform="translate(0 -.075)"/>
                </g>
            </g>
            <g id="그룹_1201" data-name="그룹 1201" transform="translate(53.794 -6.581)">
                <g id="그룹_1199" data-name="그룹 1199" transform="translate(.029)">
                    <path id="패스_885" d="M226.99 10.1l-.295.295a.73.73 0 0 1-1 0l-7.369-7.369a.73.73 0 0 1 0-1l.295-.295a.73.73 0 0 1 1 0L226.99 9.1a.73.73 0 0 1 0 1z" class="cls-3" data-name="패스 885" transform="translate(-217.734 -1.098)"/>
                    <path id="패스_886" d="M225.289 9.986a1.139 1.139 0 0 1-.8-.324l-7.369-7.369a1.139 1.139 0 0 1 0-1.592l.295-.295a1.157 1.157 0 0 1 1.621 0l7.369 7.369a1.139 1.139 0 0 1 0 1.592l-.295.295a1.267 1.267 0 0 1-.821.324zm-7.1-9.049a.21.21 0 0 0-.177.088l-.295.295a.255.255 0 0 0-.088.177.21.21 0 0 0 .088.177l7.369 7.369a.269.269 0 0 0 .354 0l.295-.295a.255.255 0 0 0 .088-.177.21.21 0 0 0-.088-.177l-7.369-7.369a.178.178 0 0 0-.181-.088z" class="cls-3" data-name="패스 886" transform="translate(-216.8 -.075)"/>
                </g>
                <g id="그룹_1200" data-name="그룹 1200">
                    <path id="패스_887" d="M218.371 10.1l.295.295a.73.73 0 0 0 1 0l7.369-7.369a.73.73 0 0 0 0-1l-.295-.295a.73.73 0 0 0-1 0L218.371 9.1a.678.678 0 0 0 0 1z" class="cls-3" data-name="패스 887" transform="translate(-217.723 -1.098)"/>
                    <path id="패스_888" d="M218.115 9.986a1.139 1.139 0 0 1-.8-.324l-.295-.295a1.139 1.139 0 0 1 0-1.592l7.373-7.368a1.157 1.157 0 0 1 1.621 0l.295.295a1.139 1.139 0 0 1 0 1.592l-7.369 7.368a1.21 1.21 0 0 1-.825.324zm7.1-9.049a.21.21 0 0 0-.177.088l-7.369 7.369a.255.255 0 0 0-.088.177.21.21 0 0 0 .088.177l.295.295a.269.269 0 0 0 .354 0l7.369-7.369a.255.255 0 0 0 .088-.177.21.21 0 0 0-.088-.177l-.295-.295a.255.255 0 0 0-.173-.088z" class="cls-3" data-name="패스 888" transform="translate(-216.7 -.075)"/>
                </g>
            </g>
            <g id="그룹_1204" data-name="그룹 1204" transform="translate(37.818 -6.581)">
                <g id="그룹_1202" data-name="그룹 1202" transform="translate(.029)">
                    <path id="패스_889" d="M172.79 10.1l-.295.295a.73.73 0 0 1-1 0l-7.369-7.369a.73.73 0 0 1 0-1l.295-.295a.73.73 0 0 1 1 0L172.79 9.1a.678.678 0 0 1 0 1z" class="cls-3" data-name="패스 889" transform="translate(-163.534 -1.098)"/>
                    <path id="패스_890" d="M171.089 9.986a1.139 1.139 0 0 1-.8-.324l-7.369-7.369a1.139 1.139 0 0 1 0-1.592l.295-.295a1.157 1.157 0 0 1 1.621 0l7.369 7.369a1.139 1.139 0 0 1 0 1.592l-.295.295a1.267 1.267 0 0 1-.821.324zm-7.1-9.049a.21.21 0 0 0-.177.088l-.295.295a.255.255 0 0 0-.088.177.21.21 0 0 0 .088.177l7.369 7.369a.269.269 0 0 0 .354 0l.295-.295a.255.255 0 0 0 .088-.177.21.21 0 0 0-.088-.177l-7.369-7.369a.178.178 0 0 0-.181-.088z" class="cls-3" data-name="패스 890" transform="translate(-162.6 -.075)"/>
                </g>
                <g id="그룹_1203" data-name="그룹 1203">
                    <path id="패스_891" d="M164.224 10.1l.295.295a.73.73 0 0 0 1 0l7.369-7.369a.73.73 0 0 0 0-1l-.295-.295a.73.73 0 0 0-1 0L164.224 9.1a.73.73 0 0 0 0 1z" class="cls-3" data-name="패스 891" transform="translate(-163.575 -1.098)"/>
                    <path id="패스_892" d="M163.915 9.986a1.139 1.139 0 0 1-.8-.324l-.295-.295a1.139 1.139 0 0 1 0-1.592l7.373-7.368a1.157 1.157 0 0 1 1.621 0l.295.295a1.139 1.139 0 0 1 0 1.592l-7.369 7.368a1.158 1.158 0 0 1-.825.324zm7.1-9.049a.21.21 0 0 0-.177.088l-7.369 7.369a.255.255 0 0 0-.088.177.21.21 0 0 0 .088.177l.295.295a.269.269 0 0 0 .354 0l7.369-7.369a.255.255 0 0 0 .088-.177.21.21 0 0 0-.088-.177l-.295-.295a.21.21 0 0 0-.173-.088z" class="cls-3" data-name="패스 892" transform="translate(-162.5 -.075)"/>
                </g>
            </g>
        </g>
    </g>
</svg>
