<svg xmlns="http://www.w3.org/2000/svg" viewBox="0 0 54 54">
    <defs>
        <style>
            .cls-1{fill:#edf0f1}.cls-2{clip-path:url(#clip-path)}.cls-3{fill:#acb1b3}
        </style>
        <clipPath id="clip-path">
            <circle id="타원_712" cx="27" cy="27" r="27" data-name="타원 712"/>
        </clipPath>
    </defs>
    <g id="icon_node_c_03" transform="translate(-43.6 -62.6)">
        <circle id="타원_631" cx="27" cy="27" r="27" class="cls-1" data-name="타원 631" transform="translate(43.6 62.6)"/>
        <g id="그룹_1223" class="cls-2" data-name="그룹 1223" transform="translate(43.6 62.6)">
            <g id="그룹_1213" data-name="그룹 1213" transform="translate(-11.879 -18.452)">
                <circle id="타원_632" cx="1.091" cy="1.091" r="1.091" class="cls-3" data-name="타원 632" transform="translate(0 39.91)"/>
                <circle id="타원_633" cx="2.83" cy="2.83" r="2.83" class="cls-3" data-name="타원 633" transform="translate(3.567 32.866)"/>
                <circle id="타원_634" cx="1.091" cy="1.091" r="1.091" class="cls-3" data-name="타원 634" transform="translate(10.936 28.975)"/>
                <circle id="타원_635" cx="2.83" cy="2.83" r="2.83" class="cls-3" data-name="타원 635" transform="translate(14.502 21.93)"/>
                <circle id="타원_636" cx="1.091" cy="1.091" r="1.091" class="cls-3" data-name="타원 636" transform="translate(21.901 18.01)"/>
                <circle id="타원_637" cx="2.83" cy="2.83" r="2.83" class="cls-3" data-name="타원 637" transform="translate(25.467 10.965)"/>
                <circle id="타원_638" cx="1.091" cy="1.091" r="1.091" class="cls-3" data-name="타원 638" transform="translate(32.866 7.045)"/>
                <circle id="타원_639" cx="2.83" cy="2.83" r="2.83" class="cls-3" data-name="타원 639" transform="translate(36.432)"/>
            </g>
            <g id="그룹_1214" data-name="그룹 1214" transform="translate(-12.852 -8.519)">
                <circle id="타원_640" cx="1.091" cy="1.091" r="1.091" class="cls-3" data-name="타원 640" transform="translate(0 39.91)"/>
                <circle id="타원_641" cx="2.83" cy="2.83" r="2.83" class="cls-3" data-name="타원 641" transform="translate(3.567 32.866)"/>
                <circle id="타원_642" cx="1.091" cy="1.091" r="1.091" class="cls-3" data-name="타원 642" transform="translate(10.936 28.975)"/>
                <circle id="타원_643" cx="2.83" cy="2.83" r="2.83" class="cls-3" data-name="타원 643" transform="translate(14.502 21.93)"/>
                <circle id="타원_644" cx="1.091" cy="1.091" r="1.091" class="cls-3" data-name="타원 644" transform="translate(21.901 18.01)"/>
                <circle id="타원_645" cx="2.83" cy="2.83" r="2.83" class="cls-3" data-name="타원 645" transform="translate(25.467 10.965)"/>
                <circle id="타원_646" cx="1.091" cy="1.091" r="1.091" class="cls-3" data-name="타원 646" transform="translate(32.836 7.045)"/>
                <circle id="타원_647" cx="2.83" cy="2.83" r="2.83" class="cls-3" data-name="타원 647" transform="translate(36.403)"/>
            </g>
            <g id="그룹_1215" data-name="그룹 1215" transform="translate(-2.388 -8.931)">
                <circle id="타원_648" cx="1.091" cy="1.091" r="1.091" class="cls-3" data-name="타원 648" transform="translate(0 39.91)"/>
                <circle id="타원_649" cx="2.83" cy="2.83" r="2.83" class="cls-3" data-name="타원 649" transform="translate(3.567 32.866)"/>
                <circle id="타원_650" cx="1.091" cy="1.091" r="1.091" class="cls-3" data-name="타원 650" transform="translate(10.965 28.945)"/>
                <circle id="타원_651" cx="2.83" cy="2.83" r="2.83" class="cls-3" data-name="타원 651" transform="translate(14.532 21.901)"/>
                <circle id="타원_652" cx="1.091" cy="1.091" r="1.091" class="cls-3" data-name="타원 652" transform="translate(21.901 17.98)"/>
                <circle id="타원_653" cx="2.83" cy="2.83" r="2.83" class="cls-3" data-name="타원 653" transform="translate(25.467 10.936)"/>
                <circle id="타원_654" cx="1.091" cy="1.091" r="1.091" class="cls-3" data-name="타원 654" transform="translate(32.866 7.045)"/>
                <circle id="타원_655" cx="2.83" cy="2.83" r="2.83" class="cls-3" data-name="타원 655" transform="translate(36.432)"/>
            </g>
            <g id="그룹_1216" data-name="그룹 1216" transform="translate(-3.36 1.002)">
                <circle id="타원_656" cx="1.091" cy="1.091" r="1.091" class="cls-3" data-name="타원 656" transform="translate(0 39.91)"/>
                <circle id="타원_657" cx="2.83" cy="2.83" r="2.83" class="cls-3" data-name="타원 657" transform="translate(3.567 32.866)"/>
                <circle id="타원_658" cx="1.091" cy="1.091" r="1.091" class="cls-3" data-name="타원 658" transform="translate(10.965 28.945)"/>
                <circle id="타원_659" cx="2.83" cy="2.83" r="2.83" class="cls-3" data-name="타원 659" transform="translate(14.532 21.901)"/>
                <circle id="타원_660" cx="1.091" cy="1.091" r="1.091" class="cls-3" data-name="타원 660" transform="translate(21.901 17.98)"/>
                <circle id="타원_661" cx="2.83" cy="2.83" r="2.83" class="cls-3" data-name="타원 661" transform="translate(25.467 10.936)"/>
                <circle id="타원_662" cx="1.091" cy="1.091" r="1.091" class="cls-3" data-name="타원 662" transform="translate(32.866 7.045)"/>
                <circle id="타원_663" cx="2.83" cy="2.83" r="2.83" class="cls-3" data-name="타원 663" transform="translate(36.432)"/>
            </g>
            <g id="그룹_1217" data-name="그룹 1217" transform="translate(7.133 .56)">
                <circle id="타원_664" cx="1.091" cy="1.091" r="1.091" class="cls-3" data-name="타원 664" transform="translate(0 39.91)"/>
                <circle id="타원_665" cx="2.83" cy="2.83" r="2.83" class="cls-3" data-name="타원 665" transform="translate(3.567 32.866)"/>
                <circle id="타원_666" cx="1.091" cy="1.091" r="1.091" class="cls-3" data-name="타원 666" transform="translate(10.936 28.945)"/>
                <circle id="타원_667" cx="2.83" cy="2.83" r="2.83" class="cls-3" data-name="타원 667" transform="translate(14.502 21.901)"/>
                <circle id="타원_668" cx="1.091" cy="1.091" r="1.091" class="cls-3" data-name="타원 668" transform="translate(21.901 18.01)"/>
                <circle id="타원_669" cx="2.83" cy="2.83" r="2.83" class="cls-3" data-name="타원 669" transform="translate(25.467 10.965)"/>
                <circle id="타원_670" cx="1.091" cy="1.091" r="1.091" class="cls-3" data-name="타원 670" transform="translate(32.866 7.045)"/>
                <circle id="타원_671" cx="2.83" cy="2.83" r="2.83" class="cls-3" data-name="타원 671" transform="translate(36.432)"/>
            </g>
            <g id="그룹_1218" data-name="그룹 1218" transform="translate(6.131 10.493)">
                <circle id="타원_672" cx="1.091" cy="1.091" r="1.091" class="cls-3" data-name="타원 672" transform="translate(0 39.91)"/>
                <circle id="타원_673" cx="2.83" cy="2.83" r="2.83" class="cls-3" data-name="타원 673" transform="translate(3.567 32.866)"/>
                <circle id="타원_674" cx="1.091" cy="1.091" r="1.091" class="cls-3" data-name="타원 674" transform="translate(10.965 28.945)"/>
                <circle id="타원_675" cx="2.83" cy="2.83" r="2.83" class="cls-3" data-name="타원 675" transform="translate(14.532 21.901)"/>
                <circle id="타원_676" cx="1.091" cy="1.091" r="1.091" class="cls-3" data-name="타원 676" transform="translate(21.93 18.01)"/>
                <circle id="타원_677" cx="2.83" cy="2.83" r="2.83" class="cls-3" data-name="타원 677" transform="translate(25.497 10.965)"/>
                <circle id="타원_678" cx="1.091" cy="1.091" r="1.091" class="cls-3" data-name="타원 678" transform="translate(32.866 7.045)"/>
                <circle id="타원_679" cx="2.83" cy="2.83" r="2.83" class="cls-3" data-name="타원 679" transform="translate(36.432)"/>
            </g>
            <g id="그룹_1219" data-name="그룹 1219" transform="translate(16.624 10.081)">
                <circle id="타원_680" cx="1.091" cy="1.091" r="1.091" class="cls-3" data-name="타원 680" transform="translate(0 39.91)"/>
                <circle id="타원_681" cx="2.83" cy="2.83" r="2.83" class="cls-3" data-name="타원 681" transform="translate(3.567 32.866)"/>
                <circle id="타원_682" cx="1.091" cy="1.091" r="1.091" class="cls-3" data-name="타원 682" transform="translate(10.965 28.945)"/>
                <circle id="타원_683" cx="2.83" cy="2.83" r="2.83" class="cls-3" data-name="타원 683" transform="translate(14.532 21.901)"/>
                <circle id="타원_684" cx="1.091" cy="1.091" r="1.091" class="cls-3" data-name="타원 684" transform="translate(21.901 17.98)"/>
                <circle id="타원_685" cx="2.83" cy="2.83" r="2.83" class="cls-3" data-name="타원 685" transform="translate(25.467 10.936)"/>
                <circle id="타원_686" cx="1.091" cy="1.091" r="1.091" class="cls-3" data-name="타원 686" transform="translate(32.866 7.045)"/>
                <circle id="타원_687" cx="2.83" cy="2.83" r="2.83" class="cls-3" data-name="타원 687" transform="translate(36.432)"/>
            </g>
            <g id="그룹_1220" data-name="그룹 1220" transform="translate(15.652 20.014)">
                <circle id="타원_688" cx="1.091" cy="1.091" r="1.091" class="cls-3" data-name="타원 688" transform="translate(0 39.91)"/>
                <circle id="타원_689" cx="2.83" cy="2.83" r="2.83" class="cls-3" data-name="타원 689" transform="translate(3.567 32.866)"/>
                <circle id="타원_690" cx="1.091" cy="1.091" r="1.091" class="cls-3" data-name="타원 690" transform="translate(10.965 28.945)"/>
                <circle id="타원_691" cx="2.83" cy="2.83" r="2.83" class="cls-3" data-name="타원 691" transform="translate(14.502 21.901)"/>
                <circle id="타원_692" cx="1.091" cy="1.091" r="1.091" class="cls-3" data-name="타원 692" transform="translate(21.901 17.98)"/>
                <circle id="타원_693" cx="2.83" cy="2.83" r="2.83" class="cls-3" data-name="타원 693" transform="translate(25.467 10.936)"/>
                <circle id="타원_694" cx="1.091" cy="1.091" r="1.091" class="cls-3" data-name="타원 694" transform="translate(32.866 7.045)"/>
                <circle id="타원_695" cx="2.83" cy="2.83" r="2.83" class="cls-3" data-name="타원 695" transform="translate(36.432)"/>
            </g>
            <g id="그룹_1221" data-name="그룹 1221" transform="translate(26.145 19.572)">
                <circle id="타원_696" cx="1.091" cy="1.091" r="1.091" class="cls-3" data-name="타원 696" transform="translate(0 39.91)"/>
                <circle id="타원_697" cx="2.83" cy="2.83" r="2.83" class="cls-3" data-name="타원 697" transform="translate(3.567 32.866)"/>
                <circle id="타원_698" cx="1.091" cy="1.091" r="1.091" class="cls-3" data-name="타원 698" transform="translate(10.936 28.945)"/>
                <circle id="타원_699" cx="2.83" cy="2.83" r="2.83" class="cls-3" data-name="타원 699" transform="translate(14.502 21.901)"/>
                <circle id="타원_700" cx="1.091" cy="1.091" r="1.091" class="cls-3" data-name="타원 700" transform="translate(21.901 18.01)"/>
                <circle id="타원_701" cx="2.83" cy="2.83" r="2.83" class="cls-3" data-name="타원 701" transform="translate(25.467 10.965)"/>
                <circle id="타원_702" cx="1.091" cy="1.091" r="1.091" class="cls-3" data-name="타원 702" transform="translate(32.836 7.045)"/>
                <circle id="타원_703" cx="2.83" cy="2.83" r="2.83" class="cls-3" data-name="타원 703" transform="translate(36.403)"/>
            </g>
            <g id="그룹_1222" data-name="그룹 1222" transform="translate(25.143 29.505)">
                <circle id="타원_704" cx="1.091" cy="1.091" r="1.091" class="cls-3" data-name="타원 704" transform="translate(0 39.91)"/>
                <circle id="타원_705" cx="2.83" cy="2.83" r="2.83" class="cls-3" data-name="타원 705" transform="translate(3.567 32.866)"/>
                <circle id="타원_706" cx="1.091" cy="1.091" r="1.091" class="cls-3" data-name="타원 706" transform="translate(10.965 28.945)"/>
                <circle id="타원_707" cx="2.83" cy="2.83" r="2.83" class="cls-3" data-name="타원 707" transform="translate(14.532 21.901)"/>
                <circle id="타원_708" cx="1.091" cy="1.091" r="1.091" class="cls-3" data-name="타원 708" transform="translate(21.93 18.01)"/>
                <circle id="타원_709" cx="2.83" cy="2.83" r="2.83" class="cls-3" data-name="타원 709" transform="translate(25.497 10.965)"/>
                <circle id="타원_710" cx="1.091" cy="1.091" r="1.091" class="cls-3" data-name="타원 710" transform="translate(32.866 7.045)"/>
                <circle id="타원_711" cx="2.83" cy="2.83" r="2.83" class="cls-3" data-name="타원 711" transform="translate(36.432)"/>
            </g>
        </g>
    </g>
</svg>
