<svg xmlns="http://www.w3.org/2000/svg" viewBox="0 0 54 54">
    <defs>
        <style>
            .cls-1{fill:#2cc}.cls-2{clip-path:url(#clip-path)}.cls-3{fill:#fff}
        </style>
        <clipPath id="clip-path">
            <circle id="타원_755" cx="27" cy="27" r="27" data-name="타원 755"/>
        </clipPath>
    </defs>
    <g id="icon_node_bp_04" transform="translate(-28.7 -25)">
        <g id="그룹_1322" data-name="그룹 1322" transform="translate(28.7 25)">
            <circle id="타원_754" cx="27" cy="27" r="27" class="cls-1" data-name="타원 754"/>
            <g id="그룹_1321" class="cls-2" data-name="그룹 1321">
                <path id="사각형_1963" d="M0 0h2.948v71.479H0z" class="cls-3" data-name="사각형 1963" transform="translate(25.526 -7.369)"/>
                <path id="사각형_1964" d="M0 0h2.948v71.479H0z" class="cls-3" data-name="사각형 1964" transform="rotate(-19.999 -6.659 -40.326)"/>
                <path id="사각형_1965" d="M0 0h2.948v71.479H0z" class="cls-3" data-name="사각형 1965" transform="rotate(-40.002 4.11 -3.005)"/>
                <path id="사각형_1966" d="M0 0h2.948v71.479H0z" class="cls-3" data-name="사각형 1966" transform="rotate(-60 7.854 9.955)"/>
                <path id="사각형_1967" d="M0 0h2.948v71.479H0z" class="cls-3" data-name="사각형 1967" transform="rotate(-80.003 9.842 16.85)"/>
                <path id="사각형_1968" d="M0 0h71.479v2.948H0z" class="cls-3" data-name="사각형 1968" transform="rotate(-9.997 185.231 64.975)"/>
                <path id="사각형_1969" d="M0 0h71.479v2.948H0z" class="cls-3" data-name="사각형 1969" transform="rotate(-30 81.588 31.26)"/>
                <path id="사각형_1970" d="M0 0h71.479v2.948H0z" class="cls-3" data-name="사각형 1970" transform="rotate(-49.998 60.233 24.308)"/>
                <path id="사각형_1971" d="M0 0h71.479v2.948H0z" class="cls-3" data-name="사각형 1971" transform="rotate(-70.001 50.592 21.17)"/>
            </g>
        </g>
        <circle id="타원_756" cx="18.57" cy="18.57" r="18.57" class="cls-1" data-name="타원 756" transform="translate(37.13 33.43)"/>
        <path id="패스_1030" d="M91.6 99.893a12 12 0 1 1 12-12 12.026 12.026 0 0 1-12 12zm0-20.456a8.46 8.46 0 1 0 8.46 8.46 8.479 8.479 0 0 0-8.46-8.46z" class="cls-3" data-name="패스 1030" transform="translate(-35.897 -35.897)"/>
    </g>
</svg>
