<svg xmlns="http://www.w3.org/2000/svg" viewBox="0 0 16 16">
    <defs>
        <style>
            .cls-1{fill:#fff;opacity:0}.cls-2{fill:none;stroke:#999;stroke-miterlimit:10;stroke-width:1.5px}
        </style>
    </defs>
    <g id="icon_Info_Off" transform="translate(-28 -182)">
        <path id="size" d="M0 0h16v16H0z" class="cls-1" transform="translate(28 182)"/>
        <g id="wallet" transform="translate(28.2 184.3)">
            <path id="패스_31" d="M13.8 7.9v3.6c0 .72-.4 1.2-.9 1.2H1.7c-.5 0-.9-.48-.9-1.2V1.9c0-.72.4-1.2.9-1.2h11.1c.5 0 .9.48.9 1.2v3.6" class="cls-2" data-name="패스 31" transform="translate(0 -1)"/>
            <path id="패스_32" d="M14.8 7.2h-4a.945.945 0 0 1-1-1v-1a.945.945 0 0 1 1-1h4z" class="cls-2" data-name="패스 32"/>
        </g>
    </g>
</svg>
