<svg xmlns="http://www.w3.org/2000/svg" viewBox="0 0 12 12">
    <defs>
        <style>
            .cls-1{fill:#acb1b3}
        </style>
    </defs>
    <g id="icon_copy_01" transform="translate(-966 -3835)">
        <path id="패스_927" d="M8.564 6H.359C.1 6 0 6.1 0 6.359v8.205a.324.324 0 0 0 .359.359h8.205a.324.324 0 0 0 .359-.359V6.359C8.872 6.1 8.769 6 8.564 6zm-1.385 6.769a.4.4 0 0 1-.41.41H2.154a.4.4 0 0 1-.41-.41V8.154a.4.4 0 0 1 .41-.41h4.615a.4.4 0 0 1 .41.41z" class="cls-1" data-name="패스 927" transform="translate(966 3832.077)"/>
        <path id="패스_928" d="M14.564 0H6.359C6.1 0 6 .1 6 .359v1.026a.324.324 0 0 0 .359.359h6.41a.4.4 0 0 1 .41.41v6.41a.324.324 0 0 0 .359.359h1.026a.324.324 0 0 0 .359-.359V.359C14.872.1 14.769 0 14.564 0z" class="cls-1" data-name="패스 928" transform="translate(963.077 3835)"/>
    </g>
</svg>
