<svg xmlns="http://www.w3.org/2000/svg" viewBox="0 0 14 10.039">
    <defs>
        <style>
            .cls-1{fill:#acb1b3}
        </style>
    </defs>
    <g id="icon_arrow_03" transform="translate(-992 -4165.112)">
        <g id="keyboard-return_1_" transform="translate(992 4165.112)">
            <g id="그룹_633" data-name="그룹 633">
                <path id="패스_519" d="M10 10.785V15.5h10.4l-2.828 2.828 1.1 1.1 4.713-4.713L18.671 10l-1.1 1.1 2.829 2.827h-8.829v-3.142z" class="cls-1" data-name="패스 519" transform="translate(-9.692 -9.697)"/>
                <path id="패스_520" d="M8.76 10.122l-1.1-1.1a.307.307 0 0 1 0-.434l2.3-2.3H.308A.309.309 0 0 1 0 5.979V1.266A.309.309 0 0 1 .308.958h1.571a.309.309 0 0 1 .308.308V4.1h7.777l-2.3-2.3a.307.307 0 0 1 0-.434l1.1-1.1a.307.307 0 0 1 .434 0l4.712 4.712a.307.307 0 0 1 0 .434L9.2 10.125a.3.3 0 0 1-.219.089.319.319 0 0 1-.221-.092zm.219-9.21l-.665.665 2.609 2.609a.308.308 0 0 1-.216.527H1.879a.309.309 0 0 1-.308-.313V1.571H.616v4.1h10.091a.3.3 0 0 1 .283.191.31.31 0 0 1-.068.336L8.313 8.8l.665.665 4.279-4.275z" class="cls-1" data-name="패스 520" transform="translate(0 -.175)"/>
            </g>
        </g>
    </g>
</svg>
