<svg xmlns="http://www.w3.org/2000/svg" width="9.796" height="9.796" viewBox="0 0 9.796 9.796">
    <defs>
        <style>
            .cls-1{fill:#4e527d}
        </style>
    </defs>
    <g id="scale_1_up" transform="translate(-828 -179)">
        <path id="scale_1_up-2" d="M65.225 681.8A1.228 1.228 0 0 1 64 680.572v-7.348A1.228 1.228 0 0 1 65.225 672h2.449a.612.612 0 0 1 0 1.224h-2.449v7.348h7.347v-2.449a.612.612 0 1 1 1.224 0v2.449a1.227 1.227 0 0 1-1.224 1.224zm7.347-6.122v-1.584l-2.016 2.016a.612.612 0 0 1-.865-.866l2.015-2.016h-1.583a.612.612 0 1 1 0-1.224h3.062a.612.612 0 0 1 .611.612v3.062a.612.612 0 0 1-1.224 0z" class="cls-1" data-name="scale_1_up" transform="translate(764 -493)"/>
    </g>
</svg>
