<svg xmlns="http://www.w3.org/2000/svg" viewBox="0 0 54 54">
    <defs>
        <style>
            .cls-1{fill:#2cc}.cls-2{clip-path:url(#clip-path)}.cls-3{fill:#fff}
        </style>
        <clipPath id="clip-path">
            <circle id="타원_838" cx="27" cy="27" r="27" data-name="타원 838"/>
        </clipPath>
    </defs>
    <g id="icon_node_bp_03" transform="translate(-43.6 -62.6)">
        <circle id="타원_757" cx="27" cy="27" r="27" class="cls-1" data-name="타원 757" transform="translate(43.6 62.6)"/>
        <g id="그룹_1334" class="cls-2" data-name="그룹 1334" transform="translate(43.6 62.6)">
            <g id="그룹_1324" data-name="그룹 1324" transform="translate(-11.879 -18.452)">
                <circle id="타원_758" cx="1.091" cy="1.091" r="1.091" class="cls-3" data-name="타원 758" transform="translate(0 39.91)"/>
                <circle id="타원_759" cx="2.83" cy="2.83" r="2.83" class="cls-3" data-name="타원 759" transform="translate(3.567 32.866)"/>
                <circle id="타원_760" cx="1.091" cy="1.091" r="1.091" class="cls-3" data-name="타원 760" transform="translate(10.936 28.975)"/>
                <circle id="타원_761" cx="2.83" cy="2.83" r="2.83" class="cls-3" data-name="타원 761" transform="translate(14.502 21.93)"/>
                <circle id="타원_762" cx="1.091" cy="1.091" r="1.091" class="cls-3" data-name="타원 762" transform="translate(21.901 18.01)"/>
                <circle id="타원_763" cx="2.83" cy="2.83" r="2.83" class="cls-3" data-name="타원 763" transform="translate(25.467 10.965)"/>
                <circle id="타원_764" cx="1.091" cy="1.091" r="1.091" class="cls-3" data-name="타원 764" transform="translate(32.866 7.045)"/>
                <circle id="타원_765" cx="2.83" cy="2.83" r="2.83" class="cls-3" data-name="타원 765" transform="translate(36.432)"/>
            </g>
            <g id="그룹_1325" data-name="그룹 1325" transform="translate(-12.852 -8.519)">
                <circle id="타원_766" cx="1.091" cy="1.091" r="1.091" class="cls-3" data-name="타원 766" transform="translate(0 39.91)"/>
                <circle id="타원_767" cx="2.83" cy="2.83" r="2.83" class="cls-3" data-name="타원 767" transform="translate(3.567 32.866)"/>
                <circle id="타원_768" cx="1.091" cy="1.091" r="1.091" class="cls-3" data-name="타원 768" transform="translate(10.936 28.975)"/>
                <circle id="타원_769" cx="2.83" cy="2.83" r="2.83" class="cls-3" data-name="타원 769" transform="translate(14.502 21.93)"/>
                <circle id="타원_770" cx="1.091" cy="1.091" r="1.091" class="cls-3" data-name="타원 770" transform="translate(21.901 18.01)"/>
                <circle id="타원_771" cx="2.83" cy="2.83" r="2.83" class="cls-3" data-name="타원 771" transform="translate(25.467 10.965)"/>
                <circle id="타원_772" cx="1.091" cy="1.091" r="1.091" class="cls-3" data-name="타원 772" transform="translate(32.836 7.045)"/>
                <circle id="타원_773" cx="2.83" cy="2.83" r="2.83" class="cls-3" data-name="타원 773" transform="translate(36.403)"/>
            </g>
            <g id="그룹_1326" data-name="그룹 1326" transform="translate(-2.388 -8.931)">
                <circle id="타원_774" cx="1.091" cy="1.091" r="1.091" class="cls-3" data-name="타원 774" transform="translate(0 39.91)"/>
                <circle id="타원_775" cx="2.83" cy="2.83" r="2.83" class="cls-3" data-name="타원 775" transform="translate(3.567 32.866)"/>
                <circle id="타원_776" cx="1.091" cy="1.091" r="1.091" class="cls-3" data-name="타원 776" transform="translate(10.965 28.945)"/>
                <circle id="타원_777" cx="2.83" cy="2.83" r="2.83" class="cls-3" data-name="타원 777" transform="translate(14.532 21.901)"/>
                <circle id="타원_778" cx="1.091" cy="1.091" r="1.091" class="cls-3" data-name="타원 778" transform="translate(21.901 17.98)"/>
                <circle id="타원_779" cx="2.83" cy="2.83" r="2.83" class="cls-3" data-name="타원 779" transform="translate(25.467 10.936)"/>
                <circle id="타원_780" cx="1.091" cy="1.091" r="1.091" class="cls-3" data-name="타원 780" transform="translate(32.866 7.045)"/>
                <circle id="타원_781" cx="2.83" cy="2.83" r="2.83" class="cls-3" data-name="타원 781" transform="translate(36.432)"/>
            </g>
            <g id="그룹_1327" data-name="그룹 1327" transform="translate(-3.36 1.002)">
                <circle id="타원_782" cx="1.091" cy="1.091" r="1.091" class="cls-3" data-name="타원 782" transform="translate(0 39.91)"/>
                <circle id="타원_783" cx="2.83" cy="2.83" r="2.83" class="cls-3" data-name="타원 783" transform="translate(3.567 32.866)"/>
                <circle id="타원_784" cx="1.091" cy="1.091" r="1.091" class="cls-3" data-name="타원 784" transform="translate(10.965 28.945)"/>
                <circle id="타원_785" cx="2.83" cy="2.83" r="2.83" class="cls-3" data-name="타원 785" transform="translate(14.532 21.901)"/>
                <circle id="타원_786" cx="1.091" cy="1.091" r="1.091" class="cls-3" data-name="타원 786" transform="translate(21.901 17.98)"/>
                <circle id="타원_787" cx="2.83" cy="2.83" r="2.83" class="cls-3" data-name="타원 787" transform="translate(25.467 10.936)"/>
                <circle id="타원_788" cx="1.091" cy="1.091" r="1.091" class="cls-3" data-name="타원 788" transform="translate(32.866 7.045)"/>
                <circle id="타원_789" cx="2.83" cy="2.83" r="2.83" class="cls-3" data-name="타원 789" transform="translate(36.432)"/>
            </g>
            <g id="그룹_1328" data-name="그룹 1328" transform="translate(7.133 .56)">
                <circle id="타원_790" cx="1.091" cy="1.091" r="1.091" class="cls-3" data-name="타원 790" transform="translate(0 39.91)"/>
                <circle id="타원_791" cx="2.83" cy="2.83" r="2.83" class="cls-3" data-name="타원 791" transform="translate(3.567 32.866)"/>
                <circle id="타원_792" cx="1.091" cy="1.091" r="1.091" class="cls-3" data-name="타원 792" transform="translate(10.936 28.945)"/>
                <circle id="타원_793" cx="2.83" cy="2.83" r="2.83" class="cls-3" data-name="타원 793" transform="translate(14.502 21.901)"/>
                <circle id="타원_794" cx="1.091" cy="1.091" r="1.091" class="cls-3" data-name="타원 794" transform="translate(21.901 18.01)"/>
                <circle id="타원_795" cx="2.83" cy="2.83" r="2.83" class="cls-3" data-name="타원 795" transform="translate(25.467 10.965)"/>
                <circle id="타원_796" cx="1.091" cy="1.091" r="1.091" class="cls-3" data-name="타원 796" transform="translate(32.866 7.045)"/>
                <circle id="타원_797" cx="2.83" cy="2.83" r="2.83" class="cls-3" data-name="타원 797" transform="translate(36.432)"/>
            </g>
            <g id="그룹_1329" data-name="그룹 1329" transform="translate(6.131 10.493)">
                <circle id="타원_798" cx="1.091" cy="1.091" r="1.091" class="cls-3" data-name="타원 798" transform="translate(0 39.91)"/>
                <circle id="타원_799" cx="2.83" cy="2.83" r="2.83" class="cls-3" data-name="타원 799" transform="translate(3.567 32.866)"/>
                <circle id="타원_800" cx="1.091" cy="1.091" r="1.091" class="cls-3" data-name="타원 800" transform="translate(10.965 28.945)"/>
                <circle id="타원_801" cx="2.83" cy="2.83" r="2.83" class="cls-3" data-name="타원 801" transform="translate(14.532 21.901)"/>
                <circle id="타원_802" cx="1.091" cy="1.091" r="1.091" class="cls-3" data-name="타원 802" transform="translate(21.93 18.01)"/>
                <circle id="타원_803" cx="2.83" cy="2.83" r="2.83" class="cls-3" data-name="타원 803" transform="translate(25.497 10.965)"/>
                <circle id="타원_804" cx="1.091" cy="1.091" r="1.091" class="cls-3" data-name="타원 804" transform="translate(32.866 7.045)"/>
                <circle id="타원_805" cx="2.83" cy="2.83" r="2.83" class="cls-3" data-name="타원 805" transform="translate(36.432)"/>
            </g>
            <g id="그룹_1330" data-name="그룹 1330" transform="translate(16.624 10.081)">
                <circle id="타원_806" cx="1.091" cy="1.091" r="1.091" class="cls-3" data-name="타원 806" transform="translate(0 39.91)"/>
                <circle id="타원_807" cx="2.83" cy="2.83" r="2.83" class="cls-3" data-name="타원 807" transform="translate(3.567 32.866)"/>
                <circle id="타원_808" cx="1.091" cy="1.091" r="1.091" class="cls-3" data-name="타원 808" transform="translate(10.965 28.945)"/>
                <circle id="타원_809" cx="2.83" cy="2.83" r="2.83" class="cls-3" data-name="타원 809" transform="translate(14.532 21.901)"/>
                <circle id="타원_810" cx="1.091" cy="1.091" r="1.091" class="cls-3" data-name="타원 810" transform="translate(21.901 17.98)"/>
                <circle id="타원_811" cx="2.83" cy="2.83" r="2.83" class="cls-3" data-name="타원 811" transform="translate(25.467 10.936)"/>
                <circle id="타원_812" cx="1.091" cy="1.091" r="1.091" class="cls-3" data-name="타원 812" transform="translate(32.866 7.045)"/>
                <circle id="타원_813" cx="2.83" cy="2.83" r="2.83" class="cls-3" data-name="타원 813" transform="translate(36.432)"/>
            </g>
            <g id="그룹_1331" data-name="그룹 1331" transform="translate(15.652 20.014)">
                <circle id="타원_814" cx="1.091" cy="1.091" r="1.091" class="cls-3" data-name="타원 814" transform="translate(0 39.91)"/>
                <circle id="타원_815" cx="2.83" cy="2.83" r="2.83" class="cls-3" data-name="타원 815" transform="translate(3.567 32.866)"/>
                <circle id="타원_816" cx="1.091" cy="1.091" r="1.091" class="cls-3" data-name="타원 816" transform="translate(10.965 28.945)"/>
                <circle id="타원_817" cx="2.83" cy="2.83" r="2.83" class="cls-3" data-name="타원 817" transform="translate(14.502 21.901)"/>
                <circle id="타원_818" cx="1.091" cy="1.091" r="1.091" class="cls-3" data-name="타원 818" transform="translate(21.901 17.98)"/>
                <circle id="타원_819" cx="2.83" cy="2.83" r="2.83" class="cls-3" data-name="타원 819" transform="translate(25.467 10.936)"/>
                <circle id="타원_820" cx="1.091" cy="1.091" r="1.091" class="cls-3" data-name="타원 820" transform="translate(32.866 7.045)"/>
                <circle id="타원_821" cx="2.83" cy="2.83" r="2.83" class="cls-3" data-name="타원 821" transform="translate(36.432)"/>
            </g>
            <g id="그룹_1332" data-name="그룹 1332" transform="translate(26.145 19.572)">
                <circle id="타원_822" cx="1.091" cy="1.091" r="1.091" class="cls-3" data-name="타원 822" transform="translate(0 39.91)"/>
                <circle id="타원_823" cx="2.83" cy="2.83" r="2.83" class="cls-3" data-name="타원 823" transform="translate(3.567 32.866)"/>
                <circle id="타원_824" cx="1.091" cy="1.091" r="1.091" class="cls-3" data-name="타원 824" transform="translate(10.936 28.945)"/>
                <circle id="타원_825" cx="2.83" cy="2.83" r="2.83" class="cls-3" data-name="타원 825" transform="translate(14.502 21.901)"/>
                <circle id="타원_826" cx="1.091" cy="1.091" r="1.091" class="cls-3" data-name="타원 826" transform="translate(21.901 18.01)"/>
                <circle id="타원_827" cx="2.83" cy="2.83" r="2.83" class="cls-3" data-name="타원 827" transform="translate(25.467 10.965)"/>
                <circle id="타원_828" cx="1.091" cy="1.091" r="1.091" class="cls-3" data-name="타원 828" transform="translate(32.836 7.045)"/>
                <circle id="타원_829" cx="2.83" cy="2.83" r="2.83" class="cls-3" data-name="타원 829" transform="translate(36.403)"/>
            </g>
            <g id="그룹_1333" data-name="그룹 1333" transform="translate(25.143 29.505)">
                <circle id="타원_830" cx="1.091" cy="1.091" r="1.091" class="cls-3" data-name="타원 830" transform="translate(0 39.91)"/>
                <circle id="타원_831" cx="2.83" cy="2.83" r="2.83" class="cls-3" data-name="타원 831" transform="translate(3.567 32.866)"/>
                <circle id="타원_832" cx="1.091" cy="1.091" r="1.091" class="cls-3" data-name="타원 832" transform="translate(10.965 28.945)"/>
                <circle id="타원_833" cx="2.83" cy="2.83" r="2.83" class="cls-3" data-name="타원 833" transform="translate(14.532 21.901)"/>
                <circle id="타원_834" cx="1.091" cy="1.091" r="1.091" class="cls-3" data-name="타원 834" transform="translate(21.93 18.01)"/>
                <circle id="타원_835" cx="2.83" cy="2.83" r="2.83" class="cls-3" data-name="타원 835" transform="translate(25.497 10.965)"/>
                <circle id="타원_836" cx="1.091" cy="1.091" r="1.091" class="cls-3" data-name="타원 836" transform="translate(32.866 7.045)"/>
                <circle id="타원_837" cx="2.83" cy="2.83" r="2.83" class="cls-3" data-name="타원 837" transform="translate(36.432)"/>
            </g>
        </g>
    </g>
</svg>
