<svg xmlns="http://www.w3.org/2000/svg" viewBox="0 0 150 150">
    <defs>
        <style>
            .cls-1{fill:rgba(255,255,255,0)}.cls-2{fill:#fff409}.cls-3,.cls-4{fill:none;stroke:#2d3241;stroke-linejoin:round;stroke-miterlimit:10;stroke-width:3px}.cls-4{stroke-linecap:round}
        </style>
    </defs>
    <g id="illust_notDB" transform="translate(-361 -324)">
        <path id="사각형_104" d="M0 0h150v150H0z" class="cls-1" data-name="사각형 104" transform="translate(361 324)"/>
        <g id="그룹_48" data-name="그룹 48" transform="translate(366.033 338.963)">
            <path id="패스_544" d="M139.6 75.6l-2.7-10.3a11.7 11.7 0 0 0-8.2-8.2l-10.3-2.8a11.58 11.58 0 0 0-11.2 3l-7.5 7.5a11.58 11.58 0 0 0-3 11.2l2.2 8.1-25.4 25.4L73 121l11.4-.4 24.8-24.8.5-.5 8.1 2.2a11.58 11.58 0 0 0 11.2-3l7.5-7.5a11.881 11.881 0 0 0 3.1-11.4zM121 69.5a4.808 4.808 0 1 1 0-6.8 4.768 4.768 0 0 1 0 6.8z" class="cls-2" data-name="패스 544"/>
            <g id="그룹_39" data-name="그룹 39">
                <path id="사각형_115" d="M0 0h18.2v151.5H0z" class="cls-2" data-name="사각형 115" transform="rotate(45 53.502 129.291)"/>
                <path id="사각형_116" d="M0 0h18.2v23.4H0z" class="cls-2" data-name="사각형 116" transform="rotate(135 37.797 78.406)"/>
                <path id="사각형_117" d="M0 0h18.2v112.7H0z" class="cls-2" data-name="사각형 117" transform="rotate(135 29.79 59.053)"/>
            </g>
            <g id="그룹_47" data-name="그룹 47">
                <g id="그룹_41" data-name="그룹 41">
                    <path id="패스_545" d="M83.3 91H16.4a6.914 6.914 0 0 1-6.9-6.9v-12a6.914 6.914 0 0 1 6.9-6.9h76.2" class="cls-3" data-name="패스 545"/>
                    <circle id="타원_386" cx="4.3" cy="4.3" r="4.3" class="cls-3" data-name="타원 386" transform="translate(18.1 73.9)"/>
                    <g id="그룹_40" data-name="그룹 40">
                        <circle id="타원_387" cx=".4" cy=".4" r=".4" class="cls-3" data-name="타원 387" transform="translate(62.8 75.2)"/>
                        <circle id="타원_388" cx=".4" cy=".4" r=".4" class="cls-3" data-name="타원 388" transform="translate(71.4 75.2)"/>
                        <circle id="타원_389" cx=".4" cy=".4" r=".4" class="cls-3" data-name="타원 389" transform="translate(80 75.2)"/>
                        <circle id="타원_390" cx=".4" cy=".4" r=".4" class="cls-3" data-name="타원 390" transform="translate(88.6 75.2)"/>
                        <circle id="타원_391" cx=".4" cy=".4" r=".4" class="cls-3" data-name="타원 391" transform="translate(67.1 80.3)"/>
                        <circle id="타원_392" cx=".4" cy=".4" r=".4" class="cls-3" data-name="타원 392" transform="translate(75.7 80.3)"/>
                        <circle id="타원_393" cx=".4" cy=".4" r=".4" class="cls-3" data-name="타원 393" transform="translate(84.3 80.3)"/>
                    </g>
                </g>
                <g id="그룹_43" data-name="그룹 43">
                    <path id="패스_546" d="M96 39.5H17.5a8.024 8.024 0 0 1-8-8v-9.8a8.024 8.024 0 0 1 8-8H96a8.024 8.024 0 0 1 8 8v9.8a8.024 8.024 0 0 1-8 8z" class="cls-3" data-name="패스 546"/>
                    <circle id="타원_394" cx="4.3" cy="4.3" r="4.3" class="cls-3" data-name="타원 394" transform="translate(18.1 22.3)"/>
                    <g id="그룹_42" data-name="그룹 42">
                        <circle id="타원_395" cx=".4" cy=".4" r=".4" class="cls-3" data-name="타원 395" transform="translate(62.8 23.6)"/>
                        <circle id="타원_396" cx=".4" cy=".4" r=".4" class="cls-3" data-name="타원 396" transform="translate(71.4 23.6)"/>
                        <circle id="타원_397" cx=".4" cy=".4" r=".4" class="cls-3" data-name="타원 397" transform="translate(80 23.6)"/>
                        <circle id="타원_398" cx=".4" cy=".4" r=".4" class="cls-3" data-name="타원 398" transform="translate(88.6 23.6)"/>
                        <circle id="타원_399" cx=".4" cy=".4" r=".4" class="cls-3" data-name="타원 399" transform="translate(67.1 28.8)"/>
                        <circle id="타원_400" cx=".4" cy=".4" r=".4" class="cls-3" data-name="타원 400" transform="translate(75.7 28.8)"/>
                        <circle id="타원_401" cx=".4" cy=".4" r=".4" class="cls-3" data-name="타원 401" transform="translate(84.3 28.8)"/>
                        <circle id="타원_402" cx=".4" cy=".4" r=".4" class="cls-3" data-name="타원 402" transform="translate(92.9 28.8)"/>
                    </g>
                </g>
                <g id="그룹_45" data-name="그룹 45">
                    <path id="패스_547" d="M92.6 65.3H16.4a6.914 6.914 0 0 1-6.9-6.9v-12a6.914 6.914 0 0 1 6.9-6.9h80.7a6.914 6.914 0 0 1 6.9 6.9v4.5" class="cls-3" data-name="패스 547"/>
                    <circle id="타원_403" cx="4.3" cy="4.3" r="4.3" class="cls-3" data-name="타원 403" transform="translate(18.1 48.1)"/>
                    <g id="그룹_44" data-name="그룹 44">
                        <circle id="타원_404" cx=".4" cy=".4" r=".4" class="cls-3" data-name="타원 404" transform="translate(62.8 49.4)"/>
                        <circle id="타원_405" cx=".4" cy=".4" r=".4" class="cls-3" data-name="타원 405" transform="translate(71.4 49.4)"/>
                        <circle id="타원_406" cx=".4" cy=".4" r=".4" class="cls-3" data-name="타원 406" transform="translate(80 49.4)"/>
                        <circle id="타원_407" cx=".4" cy=".4" r=".4" class="cls-3" data-name="타원 407" transform="translate(88.6 49.4)"/>
                        <circle id="타원_408" cx=".4" cy=".4" r=".4" class="cls-3" data-name="타원 408" transform="translate(67.1 54.6)"/>
                        <circle id="타원_409" cx=".4" cy=".4" r=".4" class="cls-3" data-name="타원 409" transform="translate(75.7 54.6)"/>
                        <circle id="타원_410" cx=".4" cy=".4" r=".4" class="cls-3" data-name="타원 410" transform="translate(84.3 54.6)"/>
                        <circle id="타원_411" cx=".4" cy=".4" r=".4" class="cls-3" data-name="타원 411" transform="translate(92.9 54.6)"/>
                    </g>
                </g>
                <g id="그룹_46" data-name="그룹 46">
                    <circle id="타원_412" cx="4.8" cy="4.8" r="4.8" class="cls-3" data-name="타원 412" transform="translate(113.3 61.4)"/>
                    <path id="선_328" d="M25.3 0L0 25.3" class="cls-4" data-name="선 328" transform="translate(73.6 89.5)"/>
                    <path id="패스_548" d="M73.2 100.1l-3.6 3.6-.4 11.4 11.4-.4 24.8-24.8.5-.5 8.1 2.2a11.58 11.58 0 0 0 11.2-3l7.5-7.5a11.58 11.58 0 0 0 3-11.2L133 59.5a11.7 11.7 0 0 0-8.2-8.2l-10.3-2.8a11.58 11.58 0 0 0-11.2 3L95.8 59a11.58 11.58 0 0 0-3 11.2l2.2 8.1-4.7 4.7-.3 3.1-3.1.3-.3 3.1-3.1.3-.3 3.1-3.1.3-.3 3.1-3.1.3-.3 3.1-3.2.4z" class="cls-4" data-name="패스 548"/>
                </g>
            </g>
        </g>
    </g>
</svg>
