<svg xmlns="http://www.w3.org/2000/svg" width="59" height="17.544" viewBox="0 0 59 17.544">
    <defs>
        <style>
            .cls-1{opacity:.5}.cls-2{fill:#cacbd8}
        </style>
    </defs>
    <g id="Logo_Footer_Klaytn_off" class="cls-1">
        <g id="그룹_2978" data-name="그룹 2978">
            <path id="패스_1984" d="M52.9 21.335l6.053 6.018a8.8 8.8 0 0 0 0-12.053z" class="cls-2" data-name="패스 1984" transform="translate(-43.619 -12.616)"/>
            <path id="패스_1985" d="M22.465 52.1L16.5 58.047l5.965 2.453 5.965-2.456z" class="cls-2" data-name="패스 1985" transform="translate(-13.605 -42.96)"/>
            <path id="패스_1986" d="M24.811 8.509l6.175-6.158L25.3 0l-5.7 13.684z" class="cls-2" data-name="패스 1986" transform="translate(-16.161)"/>
            <path id="패스_1987" d="M0 10.781a8.724 8.724 0 0 0 2.368 6L8.316 2.5z" class="cls-2" data-name="패스 1987" transform="translate(0 -2.061)"/>
        </g>
        <g id="그룹_2979" data-name="그룹 2979" transform="translate(22.982 4.386)">
            <path id="패스_1988" d="M305.433 40.1a2.386 2.386 0 0 0-2.158 1.175v-1.052H302.1V47.1h1.175v-4.491a1.632 1.632 0 0 1 1.825-1.456c1.175 0 1.825.7 1.825 2V47.1h1.175v-4.175a2.577 2.577 0 0 0-2.667-2.825z" class="cls-2" data-name="패스 1988" transform="translate(-272.082 -37.451)"/>
            <path id="패스_1989" d="M242.318 27.8h-1.175v1.368a.906.906 0 0 1-.912.912H238.9l-2.2 5.281-2.193-5.281H233.3l2.807 6.737-.719 1.737h-1.544v1.035h1.193a1.683 1.683 0 0 0 1.561-1.035l3.088-7.421h1.456v4.105a1.573 1.573 0 0 0 1.614 1.737h1.632V35.94h-2.053v-4.824h2.053v-1.035h-2.053V27.8z" class="cls-2" data-name="패스 1989" transform="translate(-215.353 -27.309)"/>
            <path id="패스_1990" d="M200.635 42.591c0-1.544-1.105-2.491-2.86-2.491a2.854 2.854 0 0 0-2.982 2.614h1.158a1.815 1.815 0 0 1 1.807-1.614 1.533 1.533 0 0 1 1.719 1.614v.456h-1.614c-2.281 0-3.263.719-3.263 1.982 0 1.281 1.018 2.07 2.6 2.07a2.309 2.309 0 0 0 2.351-1.211 1.187 1.187 0 0 0 1.351 1.105h.772v-1.034h-1.035zm-1.175 2.491c0 .7-.86 1.246-2.07 1.246-.965 0-1.579-.368-1.579-1.07v-.281c0-.667.632-1.035 2.035-1.035h1.614z" class="cls-2" data-name="패스 1990" transform="translate(-183.442 -37.451)"/>
            <path id="패스_1991" d="M178.275 25H177.1v7.912a1.573 1.573 0 0 0 1.614 1.737h.6v-1.035h-1.035z" class="cls-2" data-name="패스 1991" transform="translate(-169.012 -25)"/>
            <path id="사각형_3314" d="M0 0h1.175v9.649H0z" class="cls-2" data-name="사각형 3314"/>
            <path id="패스_1992" d="M147.109 25h-1.474l-3.649 3.632a.944.944 0 0 0-.07 1.263l3.807 4.754h1.477l-4.351-5.421z" class="cls-2" data-name="패스 1992" transform="translate(-139.828 -25)"/>
        </g>
    </g>
</svg>
