<svg xmlns="http://www.w3.org/2000/svg" viewBox="0 0 159 24">
    <defs>
        <style>
            .cls-1{fill:#2cc;font-size:10px;font-family:SFUIText-LightItalic,SF UI Text;font-weight:300;font-style:italic}.cls-1,.cls-2{opacity:.7}.cls-3{fill:#fff}
        </style>
    </defs>
    <g id="logo" transform="translate(-35 -27)">
        <text id="Beta" class="cls-1" transform="translate(172 41)">
            <tspan x="0" y="0">Beta</tspan>
        </text>
        <g id="그룹_66" data-name="그룹 66" transform="translate(35 27)">
            <g id="그룹_62" class="cls-2" data-name="그룹 62">
                <path id="패스_580" d="M92.8 8.2c-.1.7-.3 1.4-.4 1.9l-2.5 9.1h-1.5L85 6.3h1.3l2.5 10 .3 1.4v-.2a4.331 4.331 0 0 0 .1-.5c0-.2.1-.4.1-.6l2.7-10h1.2l2.7 10c0 .2.1.4.1.6a4.331 4.331 0 0 0 .1.5v.2c.1-.5.2-.9.3-1.4l2.6-10h1.3l-3.4 12.9h-1.5l-2.5-9.1-.1-1.9z" class="cls-3" data-name="패스 580"/>
                <path id="패스_581" d="M106.9 13.5h.5v-.2a2.092 2.092 0 0 0-2.3-2.4 5.067 5.067 0 0 0-1.3.2 5.133 5.133 0 0 0-1 .4l-.3.2-.6-1a1.38 1.38 0 0 1 .4-.3 6.136 6.136 0 0 1 1.1-.5 5.663 5.663 0 0 1 1.8-.3 3.573 3.573 0 0 1 2.6.9 3.573 3.573 0 0 1 .9 2.6V19h-1.2v-1.8a.349.349 0 0 0-.1.2.914.914 0 0 1-.3.5l-.6.6a3.6 3.6 0 0 1-.9.5 5.019 5.019 0 0 1-1.2.2 3.408 3.408 0 0 1-2.2-.7 2.384 2.384 0 0 1-.9-2c-.1-1.9 1.8-3 5.6-3zm-3.9 4.3a2.418 2.418 0 0 0 3.5-.6 4.069 4.069 0 0 0 .8-2.4v-.4h-1.8a6.882 6.882 0 0 0-1.3.2 2.281 2.281 0 0 0-1.2.6 1.594 1.594 0 0 0-.4 1.2 1.5 1.5 0 0 0 .4 1.4z" class="cls-3" data-name="패스 581"/>
                <path id="패스_582" d="M110.8 6.3h1.2v10.4c0 .9.3 1.4 1 1.4h.3v1.1h-.5c-1.4 0-2.1-.8-2.1-2.3V6.3z" class="cls-3" data-name="패스 582"/>
                <path id="패스_583" d="M114.8 6.3h1.2v10.4c0 .9.3 1.4 1 1.4h.3v1.1h-.5c-1.4 0-2.1-.8-2.1-2.3V6.3z" class="cls-3" data-name="패스 583"/>
                <path id="패스_584" d="M119.6 11.1a4.377 4.377 0 0 1 3.2-1.3 3.356 3.356 0 0 1 2.8 1.2 4.359 4.359 0 0 1 1 3v.6h-7.1a3.693 3.693 0 0 0 1.1 2.7 3.74 3.74 0 0 0 2.5 1 3.194 3.194 0 0 0 1.4-.3 8.915 8.915 0 0 0 1-.5l.3-.3.6 1-.4.4-1.2.6a5.84 5.84 0 0 1-1.8.4 4.6 4.6 0 0 1-3.4-1.4 4.826 4.826 0 0 1-1.4-3.5 4.74 4.74 0 0 1 1.4-3.6zm5.8 2.5a2.865 2.865 0 0 0-.8-2.1 2.41 2.41 0 0 0-1.8-.7 3.139 3.139 0 0 0-2.1.7 3.561 3.561 0 0 0-1.1 2.1z" class="cls-3" data-name="패스 584"/>
                <path id="패스_585" d="M128.8 11.1h-1.2v-1h1.2V7.4h1.2v2.7h2.3v1H130v4.6a3.6 3.6 0 0 0 .2 1.1 1.612 1.612 0 0 0 .4.7 1 1 0 0 0 .5.4 1.689 1.689 0 0 0 .5.2h.9v1.1h-.5a2.2 2.2 0 0 1-.8-.1 1.6 1.6 0 0 1-.8-.3 1.555 1.555 0 0 1-.8-.6 4.372 4.372 0 0 1-.6-1 3.645 3.645 0 0 1-.2-1.5v-4.6z" class="cls-3" data-name="패스 585"/>
            </g>
            <g id="그룹_65" data-name="그룹 65">
                <g id="그룹_63" data-name="그룹 63">
                    <path id="패스_588" d="M12.7 11.9l8.3 8.2a12.3 12.3 0 0 0 3.3-8.2A11.479 11.479 0 0 0 21 3.7z" class="cls-3" data-name="패스 588"/>
                    <path id="패스_589" d="M12.1 12.5L4 20.6l8.1 3.4 8.2-3.4z" class="cls-3" data-name="패스 589"/>
                    <path id="패스_590" d="M11.8 11.6l8.5-8.4L12.5 0 4.7 18.7z" class="cls-3" data-name="패스 590"/>
                    <path id="패스_591" d="M0 11.9a11.83 11.83 0 0 0 3.2 8.2L11.3.6z" class="cls-3" data-name="패스 591"/>
                </g>
                <g id="그룹_64" data-name="그룹 64">
                    <path id="패스_592" d="M77.1 9.6a3.315 3.315 0 0 0-3 1.6V9.8h-1.6v9.4h1.6V13a2.287 2.287 0 0 1 2.5-2c1.6 0 2.5 1 2.5 2.7v5.4h1.6v-5.7a3.468 3.468 0 0 0-3.6-3.8z" class="cls-3" data-name="패스 592"/>
                    <path id="패스_593" d="M68.3 6.7h-1.6v1.9a1.216 1.216 0 0 1-1.2 1.2h-1.8l-3 7.2-3-7.2H56l3.8 9.2-1 2.4h-2.1v1.4h1.6a2.313 2.313 0 0 0 2.1-1.4l4.2-10.2h2v5.6a2.158 2.158 0 0 0 2.2 2.4H71v-1.4h-2.8v-6.6H71V9.8h-2.8V6.7z" class="cls-3" data-name="패스 593"/>
                    <path id="패스_594" d="M55 13c0-2.1-1.5-3.4-3.9-3.4a3.959 3.959 0 0 0-4.1 3.6h1.6A2.421 2.421 0 0 1 51 11a2.032 2.032 0 0 1 2.3 2.2v.6h-2.2c-3.1 0-4.5 1-4.5 2.7s1.4 2.8 3.6 2.8c1.7 0 2.8-.6 3.2-1.7.1.9.6 1.5 1.9 1.5h1.1v-1.4H55zm-1.6 3.4c0 1-1.2 1.7-2.8 1.7-1.3 0-2.2-.5-2.2-1.5v-.4c0-.9.9-1.4 2.8-1.4h2.2z" class="cls-3" data-name="패스 594"/>
                    <path id="패스_595" d="M44.1 6h-1.6v10.8a2.158 2.158 0 0 0 2.2 2.4h.8v-1.4h-1.4z" class="cls-3" data-name="패스 595"/>
                    <path id="사각형_120" d="M0 0h1.6v13.2H0z" class="cls-3" data-name="사각형 120" transform="translate(31.4 6)"/>
                    <path id="패스_596" d="M41.4 6h-2l-5 5a1.244 1.244 0 0 0-.1 1.7l5.2 6.5h2l-5.9-7.4z" class="cls-3" data-name="패스 596"/>
                </g>
            </g>
        </g>
    </g>
</svg>
