<?xml version="1.0" encoding="UTF-8"?>
<svg width="162px" height="24px" viewBox="0 0 162 24" version="1.1" xmlns="http://www.w3.org/2000/svg" xmlns:xlink="http://www.w3.org/1999/xlink">
    <title>Icon / Logo</title>
    <g id="Icon-/-Logo" stroke="none" stroke-width="1" fill="none" fill-rule="evenodd">
        <path d="M65.7475201,8.43487509 L69.0721977,17.3873862 L72.4262406,8.43487509 L75.3537216,8.43487509 L69.5224189,24 L66.5949379,24 L68.1667453,19.8045238 L67.0984618,19.8045238 L62.8761254,8.43487509 L65.7475201,8.43487509 Z M12.9921275,13.5106136 L20.6728857,21.1913718 C16.2351112,24.9016948 9.74844794,24.9021123 5.3103951,21.192346 L5.3103951,21.192346 L12.9921275,13.5106136 Z M55.0250765,8.20749603 C56.6621556,8.20749603 58.0264577,8.7089324 59.117983,9.86071908 L59.117983,9.86071908 L59.117983,8.43490292 L61.7821507,8.43490292 L61.7821507,19.8045516 L59.117983,19.8045516 L59.117983,18.3973845 C58.0264577,19.5495887 56.6621556,20.0318193 55.0250765,20.0318193 C53.4026104,20.0318193 52.0536171,19.4712349 50.9774008,18.349231 C49.8858756,17.2121966 49.3401825,15.8023852 49.3401825,14.1196577 C49.3401825,12.4370694 49.8858756,11.0271188 50.9774008,9.89022352 C52.0536171,8.76849798 53.4026104,8.20749603 55.0250765,8.20749603 Z M147.975128,8.17750449 C151.361041,8.17750449 153.900511,11.0887024 153.900511,14.2060138 C153.900511,14.3506135 153.879774,14.4952131 153.879774,14.6396735 L143.59831,14.6396735 C143.722173,16.8900832 145.786789,18.7275698 147.975128,18.7275698 C149.730085,18.7275698 151.402236,17.7159293 152.02169,16.0642371 L153.549519,16.0642371 C152.682339,18.5004413 150.411332,20.0281313 147.995864,20.0281313 C144.795746,20.0281313 142.111815,17.4267301 142.111815,14.1236241 C142.111815,10.8408372 144.816343,8.17750449 147.975128,8.17750449 Z M125.906166,8.17746273 C127.784986,8.17746273 129.395205,9.02404543 130.30358,10.448609 L130.344914,10.448609 L130.344914,8.46680112 L131.790215,8.46680112 L131.790215,19.7597661 L130.344914,19.7597661 L130.344914,17.777819 L130.30358,17.777819 C129.374747,19.1817852 127.743652,20.0282287 125.906166,20.0282287 C122.520392,20.0282287 119.836322,17.4680224 119.836322,14.0822483 C119.836322,10.696335 122.602781,8.17746273 125.906166,8.17746273 Z M34.8532084,4.22113952 L34.8532084,16.5931043 L40.528917,8.43484725 L43.5154069,8.43484725 L39.5737802,14.1129218 L43.5154069,19.8044959 L40.5475661,19.8044959 L38.0851976,16.2572825 L35.6228291,19.8044959 L32.1891798,19.8044959 L32.1891798,4.22113952 L34.8532084,4.22113952 Z M81.0480514,5.77090217 L81.0480514,8.43479158 L83.7304507,8.43479158 L83.7304507,10.9522722 L81.0480514,10.9522722 L81.0480514,19.8045795 L78.384162,19.8045795 L78.384162,10.9522722 L75.7016236,10.9522722 L76.6447915,8.43479158 L78.384162,8.43479158 L78.384162,5.77090217 L81.0480514,5.77090217 Z M47.6456811,4.22119519 L47.6456811,19.8045516 L44.9816525,19.8045516 L44.9816525,4.22119519 L47.6456811,4.22119519 Z M90.9949318,8.22121838 C94.1713914,8.22121838 96.1150662,10.487772 96.1150662,13.9731932 L96.1150662,13.9731932 L96.1150662,19.8044959 L93.3898019,19.8044959 L93.3898019,13.9731932 C93.3898019,11.9379432 92.5434976,10.5633424 90.3930133,10.5633424 C88.5609544,10.5633424 87.6877899,11.9993181 87.6877899,13.7922697 L87.6877899,13.7922697 L87.6877899,19.8044959 L85.0236221,19.8044959 L85.0236221,8.44862527 L87.6877899,8.44862527 L87.6877899,9.93108439 C88.347743,8.86795022 89.5476832,8.22121838 90.9949318,8.22121838 Z M158.854696,4.48218426 L158.854696,8.46667587 L161.559224,8.46667587 L161.559224,9.76737648 L158.854696,9.76737648 L158.854696,19.75978 L157.409535,19.75978 L157.409535,9.76737648 L155.035263,9.76737648 L155.035263,8.46667587 L157.409535,8.46667587 L157.409535,4.48218426 L158.854696,4.48218426 Z M101.978744,4.48218426 L105.715649,17.7984304 L105.756843,17.7984304 L109.390483,4.48218426 L110.814907,4.48218426 L114.469283,17.7778329 L114.510617,17.7778329 L118.247522,4.48218426 L119.795948,4.48218426 L115.418992,19.75978 L113.47824,19.75978 L110.113063,7.22790675 L110.071729,7.22790675 L106.72715,19.75978 L104.7658,19.75978 L100.40972,4.48218426 L101.978744,4.48218426 Z M135.856859,4.48214251 L135.856859,19.7597383 L134.411559,19.7597383 L134.411559,4.48214251 L135.856859,4.48214251 Z M139.985672,4.48214251 L139.985672,19.7597383 L138.540511,19.7597383 L138.540511,4.48214251 L139.985672,4.48214251 Z M22.2003113,4.30231849 C25.9100776,8.74037133 25.9097992,15.2271738 22.1993371,19.6648091 L22.1993371,19.6648091 L14.5185789,11.9841901 Z M10.409097,1.84347104 L3.69808859,19.5653429 C1.73033704,17.1587824 0.839636852,14.1667256 1.02362211,11.2289459 L1.02362211,11.2289459 L10.409097,1.84347104 Z M125.885429,9.47816335 C123.284167,9.47816335 121.281483,11.4602496 121.281483,14.1441798 C121.281483,16.745581 123.242833,18.7275281 125.906166,18.7275281 C128.424899,18.7275281 130.427582,16.6629129 130.427582,14.1235823 C130.427582,11.60471 128.445635,9.47816335 125.885429,9.47816335 Z M55.5526771,10.6325665 C53.6266772,10.6325665 52.0654467,12.1937969 52.0654467,14.1196577 C52.0654467,16.0456577 53.6266772,17.6068881 55.5526771,17.6068881 C57.478538,17.6068881 59.0399075,16.0456577 59.0399075,14.1196577 C59.0399075,12.1937969 57.478538,10.6325665 55.5526771,10.6325665 Z M13.4156137,0 C16.0054637,0.0907400814 18.5709585,1.01456318 20.6753769,2.77425273 L20.6753769,2.77425273 L7.29984355,16.1497861 Z M147.975128,9.4782051 C145.869318,9.4782051 143.990636,11.0060343 143.59831,13.3389729 L152.414016,13.3389729 C152.001092,11.0681049 150.20494,9.4782051 147.975128,9.4782051 Z" id="Combined-Shape" fill="#FFFFFF"></path>
    </g>
</svg>