<svg xmlns="http://www.w3.org/2000/svg" width="24" height="24" viewBox="0 0 24 24">
    <g fill="none" fill-rule="evenodd">
        <path d="M0 0h24v24H0z"/>
        <path fill="#FFF" fill-rule="nonzero" d="M20.15 5.43l-.828.48a5.861 5.861 0 0 1-1.645.646 3.527 3.527 0 0 0-2.973-.861c-1.482.265-2.615 1.417-2.803 2.85-.033.25-.039.502-.017.753-2.214-.234-4.24-1.305-5.625-2.974l-.337-.403-.267.447a3.289 3.289 0 0 0 .1 3.528l-.044-.023-.539-.292-.008.593c-.015 1.023.456 1.999 1.28 2.652l-.368-.068.183.56c.337 1.04 1.184 1.856 2.268 2.185a5.945 5.945 0 0 1-3.556.694l-1.551-.179 1.307.82a9.252 9.252 0 0 0 4.92 1.408c2.449-.001 4.794-.945 6.509-2.619 1.715-1.673 2.655-3.937 2.609-6.28V9.13a6.495 6.495 0 0 0 1.469-1.533l.69-1.008-1.147.497.372-1.656z" opacity=".4"/>
    </g>
</svg>
