<svg xmlns="http://www.w3.org/2000/svg" width="16.297" height="14.026" viewBox="0 0 16.297 14.026">
    <defs>
        <style>
            .cls-1{fill:none}.cls-2{clip-path:url(#clip-path)}.cls-3{fill:#5fb284}.cls-4{fill:#4fa373}.cls-5{fill:#3f826d}
        </style>
        <clipPath id="clip-path">
            <path d="M0 0h16.297v14.026H0z" class="cls-1"/>
        </clipPath>
    </defs>
    <g id="medium-on" class="cls-2">
        <path id="패스_2195" d="M145.012-37.985a.1.1 0 0 0-.107 0 .1.1 0 0 0-.044.1v11.366l4.982 2.488a.286.286 0 0 0 .318.01.286.286 0 0 0 .13-.29v-10.945a.137.137 0 0 0-.078-.129z" class="cls-3" data-name="패스 2195" transform="translate(-133.998 38)"/>
        <path id="패스_2198" d="M139.43-29.231l5.341-8.681a.187.187 0 0 1 .241-.067l5.161 2.578a.124.124 0 0 1 .063.076.124.124 0 0 1-.013.1l-5.363 8.709z" class="cls-4" data-name="패스 2198" transform="translate(-133.998 38)"/>
        <path id="패스_2201" d="M134.6-37.755c-.331-.168-.443-.045-.247.275l5.077 8.249 5.43 2.718-5.395-8.775a.245.245 0 0 0-.1-.09z" class="cls-4" data-name="패스 2201" transform="translate(-133.998 38)"/>
        <path id="패스_2204" d="M139.43-24.305a.287.287 0 0 1-.131.288.287.287 0 0 1-.317-.008l-4.682-2.342a.6.6 0 0 1-.3-.489v-10.865a.192.192 0 0 1 .089-.191.192.192 0 0 1 .211.006l5.063 2.533a.126.126 0 0 1 .067.106z" class="cls-5" data-name="패스 2204" transform="translate(-133.998 38)"/>
    </g>
</svg>
