<svg xmlns="http://www.w3.org/2000/svg" width="24" height="24" viewBox="0 0 24 24">
    <defs>
        <style>
            .cls-1{fill:none}.cls-2{fill:#49a1eb}
        </style>
    </defs>
    <g id="footer_twitter_on" transform="translate(-436 -2317)">
        <path id="사각형_4093" d="M0 0h24v24H0z" class="cls-1" data-name="사각형 4093" transform="translate(436 2317)"/>
        <path id="패스_730" d="M16.244 6.4l-.736.445a5.081 5.081 0 0 1-1.462.6 3.045 3.045 0 0 0-2.642-.8 3.084 3.084 0 0 0-2.492 2.646 3.318 3.318 0 0 0-.015.7 7.427 7.427 0 0 1-5-2.762l-.3-.374-.237.415a3.169 3.169 0 0 0 .089 3.276l-.039-.021-.479-.271-.007.55a3.14 3.14 0 0 0 1.137 2.463l-.327-.063.163.52a3.086 3.086 0 0 0 2.016 2.029 5.094 5.094 0 0 1-3.161.644l-1.379-.166 1.162.761A7.966 7.966 0 0 0 6.908 18.3a8.111 8.111 0 0 0 8.105-8.264v-.2a5.926 5.926 0 0 0 1.306-1.424l.613-.936-1.019.462zM4.724 14z" class="cls-2" data-name="패스 730" transform="translate(438.624 2316.287)"/>
    </g>
</svg>
